<svg xmlns="http://www.w3.org/2000/svg" xmlns:xlink="http://www.w3.org/1999/xlink" width="500" zoomAndPan="magnify" viewBox="0 0 375 374.999991" height="500" preserveAspectRatio="xMidYMid meet" version="1.0"><path fill="#ffffff" d="M 243.527344 47.164062 C 243.390625 47.300781 243.28125 47.515625 243.28125 47.644531 C 243.28125 47.773438 242.933594 48.21875 242.507812 48.632812 C 242.074219 49.054688 241.644531 49.480469 241.222656 49.910156 C 240.65625 50.492188 239.894531 51.191406 237.316406 53.503906 C 235.070312 55.519531 230.3125 60.300781 230.3125 60.539062 C 230.3125 60.644531 228.828125 62.21875 227.011719 64.042969 C 225.195312 65.863281 223.605469 67.550781 223.480469 67.789062 C 223.183594 68.347656 221.945312 69.796875 220.074219 71.78125 C 219.253906 72.648438 218.582031 73.464844 218.582031 73.597656 C 218.582031 73.726562 218.234375 74.214844 217.808594 74.683594 C 216.425781 76.210938 215.5625 77.261719 215.007812 78.101562 C 214.710938 78.550781 214.003906 79.480469 213.4375 80.15625 C 212.875 80.835938 212.261719 81.671875 212.078125 82.011719 C 211.894531 82.351562 211.476562 82.90625 211.15625 83.246094 C 210.363281 84.078125 209.1875 85.582031 208.75 86.320312 C 208.554688 86.652344 208.175781 87.152344 207.910156 87.429688 C 207.644531 87.707031 207.238281 88.269531 207.011719 88.675781 C 206.78125 89.085938 206.367188 89.699219 206.09375 90.039062 C 204.777344 91.667969 204.144531 92.574219 203.789062 93.332031 C 203.578125 93.789062 203.25 94.292969 203.054688 94.453125 C 202.859375 94.613281 202.53125 95.082031 202.320312 95.492188 C 202.109375 95.902344 201.609375 96.636719 201.203125 97.121094 C 200.800781 97.605469 200.46875 98.171875 200.46875 98.386719 C 200.46875 98.597656 200.203125 99.074219 199.878906 99.445312 C 199.554688 99.816406 199.039062 100.585938 198.738281 101.152344 C 198.433594 101.71875 197.886719 102.652344 197.527344 103.226562 C 196.226562 105.292969 195.625 106.226562 195.175781 106.875 C 194.925781 107.234375 194.429688 108.085938 194.070312 108.765625 C 193.710938 109.445312 193.152344 110.304688 192.828125 110.679688 C 192.5 111.050781 192.234375 111.515625 192.234375 111.710938 C 192.234375 111.90625 191.875 112.503906 191.4375 113.035156 C 190.996094 113.566406 190.574219 114.261719 190.496094 114.574219 C 190.417969 114.890625 190.09375 115.425781 189.777344 115.765625 C 189.460938 116.105469 189.042969 116.859375 188.855469 117.441406 C 188.667969 118.027344 188.332031 118.710938 188.109375 118.96875 C 187.886719 119.222656 187.523438 120.042969 187.300781 120.789062 C 187.058594 121.605469 186.730469 122.246094 186.484375 122.402344 C 186.257812 122.542969 185.882812 123.027344 185.652344 123.480469 C 185.1875 124.390625 184.375 125.03125 183.910156 124.855469 C 183.746094 124.789062 183.410156 124.339844 183.160156 123.851562 C 182.914062 123.367188 182.449219 122.664062 182.125 122.292969 C 181.796875 121.921875 181.535156 121.445312 181.535156 121.238281 C 181.535156 120.703125 181 119.484375 180.628906 119.179688 C 180.457031 119.035156 180.175781 118.425781 180 117.824219 C 179.824219 117.222656 179.355469 116.339844 178.960938 115.867188 C 178.5625 115.394531 178.242188 114.835938 178.242188 114.625 C 178.242188 114.417969 177.871094 113.816406 177.417969 113.296875 C 176.964844 112.773438 176.59375 112.261719 176.59375 112.164062 C 176.59375 112.0625 176.222656 111.554688 175.769531 111.03125 C 175.316406 110.507812 174.945312 109.929688 174.945312 109.746094 C 174.945312 109.5625 174.625 108.945312 174.230469 108.371094 C 173.519531 107.339844 173.3125 106.976562 171.824219 104.1875 C 171.410156 103.410156 170.921875 102.652344 170.742188 102.5 C 170.5625 102.351562 170.242188 101.847656 170.03125 101.382812 C 169.824219 100.914062 169.359375 100.175781 169.007812 99.734375 C 168.652344 99.292969 168.359375 98.851562 168.359375 98.75 C 168.359375 98.648438 168.039062 98.246094 167.648438 97.851562 C 167.257812 97.460938 166.835938 96.769531 166.714844 96.3125 C 166.589844 95.859375 166.226562 95.1875 165.90625 94.820312 C 165.585938 94.453125 165.175781 93.828125 164.992188 93.433594 C 164.8125 93.039062 164.199219 92.15625 163.628906 91.476562 C 163.058594 90.800781 162.28125 89.78125 161.898438 89.214844 C 161.515625 88.648438 160.960938 87.960938 160.664062 87.6875 C 160.371094 87.410156 160.128906 87.050781 160.128906 86.886719 C 160.128906 86.722656 159.828125 86.238281 159.460938 85.808594 C 158.835938 85.085938 158.191406 84.222656 157.105469 82.660156 C 156.457031 81.730469 155.425781 80.410156 154.417969 79.21875 C 153.933594 78.652344 153.542969 78.109375 153.542969 78.007812 C 153.542969 77.910156 152.800781 76.988281 151.894531 75.964844 C 150.988281 74.9375 150.25 74 150.25 73.878906 C 150.25 73.757812 149.949219 73.347656 149.578125 72.96875 C 149.210938 72.585938 148.402344 71.644531 147.777344 70.875 C 146.46875 69.257812 143.597656 65.882812 143.179688 65.464844 C 142.636719 64.925781 142.09375 64.386719 141.554688 63.84375 C 141.015625 63.304688 140.476562 62.765625 139.933594 62.230469 C 139.214844 61.523438 138.570312 60.875 136.695312 58.957031 C 135.585938 57.828125 133.574219 55.886719 132.222656 54.644531 C 130.875 53.40625 128.914062 51.53125 127.871094 50.476562 C 126.824219 49.425781 125.886719 48.566406 125.789062 48.566406 C 125.691406 48.566406 125.316406 48.285156 124.960938 47.941406 C 124.421875 47.425781 124.238281 47.355469 123.898438 47.539062 C 123.65625 47.667969 123.492188 47.96875 123.492188 48.289062 C 123.492188 48.941406 124.460938 50.671875 125.382812 51.664062 C 126.003906 52.332031 126.71875 53.257812 127.964844 55.019531 C 128.21875 55.375 128.703125 55.941406 129.046875 56.28125 C 129.386719 56.621094 129.667969 57.011719 129.667969 57.144531 C 129.667969 57.28125 130.015625 57.808594 130.4375 58.316406 C 130.863281 58.824219 131.671875 59.859375 132.238281 60.617188 C 132.804688 61.371094 133.570312 62.316406 133.9375 62.714844 C 134.304688 63.113281 134.605469 63.554688 134.605469 63.695312 C 134.605469 63.835938 134.867188 64.21875 135.1875 64.542969 C 135.507812 64.867188 136.023438 65.574219 136.328125 66.109375 C 136.636719 66.648438 136.972656 67.089844 137.078125 67.089844 C 137.179688 67.089844 137.519531 67.527344 137.832031 68.066406 C 138.144531 68.605469 138.65625 69.289062 138.972656 69.589844 C 139.289062 69.890625 139.546875 70.277344 139.546875 70.449219 C 139.546875 70.621094 139.78125 71.039062 140.066406 71.378906 C 140.351562 71.71875 140.777344 72.441406 141.015625 72.988281 C 141.253906 73.535156 141.660156 74.214844 141.921875 74.496094 C 142.1875 74.78125 142.554688 75.476562 142.742188 76.042969 C 142.933594 76.609375 143.347656 77.3125 143.667969 77.613281 C 143.988281 77.910156 144.351562 78.527344 144.476562 78.984375 C 144.597656 79.445312 145.023438 80.207031 145.414062 80.675781 C 145.808594 81.148438 146.132812 81.734375 146.132812 81.976562 C 146.132812 82.222656 146.503906 82.96875 146.957031 83.632812 C 147.410156 84.300781 147.777344 84.992188 147.777344 85.175781 C 147.78125 85.359375 148.148438 86.109375 148.601562 86.847656 C 149.054688 87.582031 149.425781 88.375 149.425781 88.609375 C 149.425781 88.839844 149.75 89.570312 150.144531 90.226562 C 150.539062 90.882812 150.953125 91.757812 151.066406 92.171875 C 151.175781 92.589844 151.539062 93.296875 151.867188 93.746094 C 152.222656 94.230469 152.566406 95.066406 152.714844 95.800781 C 152.847656 96.480469 153.171875 97.359375 153.425781 97.753906 C 153.917969 98.507812 154.246094 99.316406 154.457031 100.28125 C 154.523438 100.597656 154.847656 101.292969 155.171875 101.824219 C 155.5 102.359375 155.871094 103.355469 156.003906 104.03125 C 156.136719 104.710938 156.515625 105.789062 156.84375 106.421875 C 157.203125 107.109375 157.527344 108.164062 157.652344 109.027344 C 157.792969 110.027344 158.050781 110.789062 158.484375 111.484375 C 158.886719 112.136719 159.152344 112.886719 159.234375 113.613281 C 159.304688 114.230469 159.636719 115.316406 159.972656 116.023438 C 160.371094 116.863281 160.6875 118.007812 160.878906 119.316406 C 161.0625 120.554688 161.367188 121.691406 161.679688 122.292969 C 161.980469 122.871094 162.300781 124.039062 162.472656 125.175781 C 162.632812 126.226562 162.945312 127.566406 163.171875 128.15625 C 163.394531 128.742188 163.738281 130.085938 163.933594 131.140625 C 164.277344 132.996094 164.667969 134.382812 165.351562 136.1875 C 165.761719 137.277344 166.09375 140.097656 166.09375 142.523438 C 166.09375 144.183594 166.328125 146.035156 166.929688 149.109375 C 167.042969 149.671875 167.222656 151.324219 167.332031 152.773438 C 167.515625 155.214844 167.964844 158.410156 168.261719 159.40625 C 168.359375 159.734375 168.164062 160.015625 167.394531 160.660156 C 166.148438 161.714844 165.402344 162.089844 164.289062 162.234375 C 163.808594 162.292969 162.964844 162.578125 162.421875 162.863281 C 161.808594 163.183594 160.773438 163.46875 159.699219 163.609375 C 158.746094 163.738281 157.675781 163.886719 157.320312 163.941406 C 156.964844 163.996094 156.34375 164.300781 155.941406 164.621094 C 155.480469 164.988281 154.726562 165.304688 153.910156 165.46875 C 153.199219 165.617188 152.320312 165.953125 151.960938 166.21875 C 151.601562 166.484375 150.785156 166.839844 150.144531 167.007812 C 149.503906 167.171875 148.546875 167.574219 148.019531 167.898438 C 147.054688 168.488281 144.9375 168.96875 143.3125 168.96875 C 142.128906 168.96875 141.246094 168.234375 139.820312 166.0625 C 139.121094 165 138.273438 163.855469 137.9375 163.515625 C 137.597656 163.175781 137.261719 162.691406 137.1875 162.4375 C 137.113281 162.1875 136.71875 161.585938 136.3125 161.101562 C 135.90625 160.617188 135.453125 159.925781 135.300781 159.566406 C 135.148438 159.207031 134.839844 158.78125 134.613281 158.625 C 134.386719 158.464844 134.070312 158.019531 133.90625 157.628906 C 133.746094 157.238281 133.410156 156.738281 133.160156 156.511719 C 132.910156 156.289062 132.4375 155.570312 132.105469 154.914062 C 131.773438 154.257812 131.375 153.671875 131.222656 153.613281 C 131.066406 153.550781 130.824219 153.207031 130.683594 152.847656 C 130.539062 152.488281 130.074219 151.730469 129.648438 151.164062 C 129.222656 150.601562 128.8125 149.875 128.730469 149.558594 C 128.652344 149.242188 128.371094 148.839844 128.109375 148.667969 C 127.8125 148.472656 127.464844 147.859375 127.191406 147.03125 C 126.949219 146.304688 126.585938 145.617188 126.382812 145.511719 C 126.179688 145.402344 125.855469 144.921875 125.664062 144.441406 C 125.472656 143.964844 125.042969 143.226562 124.707031 142.804688 C 124.371094 142.382812 123.992188 141.730469 123.867188 141.351562 C 123.738281 140.976562 123.425781 140.417969 123.171875 140.109375 C 122.917969 139.804688 122.546875 139.109375 122.351562 138.566406 C 122.152344 138.023438 121.78125 137.398438 121.523438 137.171875 C 121.238281 136.917969 120.921875 136.238281 120.714844 135.421875 C 120.527344 134.683594 120.15625 133.851562 119.894531 133.566406 C 119.628906 133.285156 119.265625 132.550781 119.085938 131.933594 C 118.90625 131.320312 118.570312 130.617188 118.34375 130.375 C 118.113281 130.132812 117.738281 129.394531 117.507812 128.734375 C 117.277344 128.078125 116.871094 127.253906 116.605469 126.902344 C 116.339844 126.550781 115.976562 125.761719 115.796875 125.152344 C 115.617188 124.539062 115.199219 123.613281 114.867188 123.09375 C 114.535156 122.570312 114.109375 121.507812 113.914062 120.730469 C 113.722656 119.953125 113.347656 118.992188 113.082031 118.601562 C 112.8125 118.207031 112.542969 117.546875 112.476562 117.132812 C 112.25 115.710938 111.90625 114.613281 111.539062 114.148438 C 111.339844 113.890625 111.019531 113.085938 110.835938 112.355469 C 110.648438 111.628906 110.285156 110.800781 110.027344 110.515625 C 109.339844 109.757812 109.132812 108.992188 109.003906 106.75 C 108.898438 104.9375 108.816406 104.605469 108.164062 103.4375 C 107.765625 102.726562 107.4375 102 107.4375 101.828125 C 107.4375 101.65625 107.25 101.277344 107.019531 100.984375 C 106.433594 100.238281 106.023438 98.753906 105.875 96.828125 C 105.78125 95.632812 105.585938 94.84375 105.152344 93.929688 C 104.691406 92.960938 104.507812 92.179688 104.335938 90.433594 C 104.214844 89.195312 103.933594 87.550781 103.707031 86.777344 C 103.476562 86 103.34375 85.238281 103.402344 85.082031 C 103.460938 84.925781 103.375 84.355469 103.210938 83.816406 C 103.050781 83.277344 102.914062 82.121094 102.914062 81.25 C 102.910156 79.285156 102.417969 76.839844 101.875 76.097656 C 101.179688 75.144531 100.882812 73.347656 100.636719 68.535156 C 100.449219 64.867188 100.316406 63.707031 100.003906 62.910156 C 99.785156 62.355469 99.539062 61.433594 99.457031 60.859375 C 99.328125 59.957031 99.230469 59.789062 98.761719 59.664062 C 98.074219 59.480469 97.328125 59.839844 97.003906 60.511719 C 96.667969 61.214844 96.59375 70.1875 96.804688 84.582031 C 96.964844 95.375 97.003906 96.277344 97.371094 97.113281 C 97.585938 97.609375 97.765625 98.304688 97.765625 98.65625 C 97.765625 99.011719 97.863281 99.625 97.984375 100.019531 C 98.238281 100.867188 98.519531 103.925781 98.78125 108.710938 C 98.886719 110.605469 99.035156 112.261719 99.117188 112.390625 C 99.195312 112.523438 99.339844 113.519531 99.429688 114.609375 C 99.523438 115.695312 99.699219 117.746094 99.824219 119.160156 C 99.945312 120.574219 100.085938 122.460938 100.132812 123.347656 C 100.203125 124.699219 100.316406 125.105469 100.820312 125.867188 C 101.179688 126.410156 101.558594 127.414062 101.765625 128.371094 C 101.957031 129.246094 102.195312 130.289062 102.292969 130.6875 C 102.394531 131.082031 102.574219 132.15625 102.699219 133.074219 C 102.820312 133.992188 103.011719 135.054688 103.121094 135.441406 C 103.230469 135.824219 103.320312 136.464844 103.320312 136.859375 C 103.320312 137.257812 103.515625 138.230469 103.753906 139.023438 C 104.511719 141.570312 104.769531 142.886719 104.933594 145.128906 C 105.074219 147 105.179688 147.449219 105.644531 148.148438 C 105.941406 148.601562 106.316406 149.53125 106.472656 150.214844 C 106.65625 151.003906 106.984375 151.707031 107.371094 152.152344 C 107.707031 152.535156 108.105469 153.277344 108.25 153.804688 C 108.484375 154.640625 108.476562 154.824219 108.179688 155.277344 C 107.949219 155.628906 107.660156 155.792969 107.277344 155.785156 C 106.691406 155.773438 104.09375 155.097656 101.984375 154.402344 C 101.304688 154.179688 100.234375 153.902344 99.601562 153.785156 C 98.972656 153.667969 98.105469 153.332031 97.675781 153.042969 C 97.25 152.753906 96.5625 152.464844 96.148438 152.40625 C 94.953125 152.234375 93.25 151.769531 91.691406 151.195312 C 90.765625 150.847656 89.828125 150.660156 89.054688 150.65625 C 88.164062 150.652344 87.316406 150.445312 85.761719 149.847656 C 84.515625 149.371094 82.996094 148.957031 82.019531 148.832031 C 80.972656 148.699219 79.894531 148.398438 79.0625 148.003906 C 78.25 147.621094 77.234375 147.332031 76.386719 147.246094 C 75.636719 147.167969 74.558594 146.890625 73.992188 146.632812 C 72.800781 146.089844 71.308594 145.820312 67.714844 145.503906 C 66.199219 145.371094 64.71875 145.117188 64.113281 144.886719 C 63.546875 144.667969 62.296875 144.394531 61.335938 144.273438 C 60.371094 144.152344 59.214844 143.96875 58.761719 143.859375 C 58.308594 143.75 57.269531 143.660156 56.453125 143.660156 C 55.511719 143.65625 54.570312 143.507812 53.882812 143.257812 C 52.519531 142.757812 50.566406 142.480469 46.617188 142.21875 C 44.921875 142.105469 43.207031 141.917969 42.8125 141.804688 C 42.417969 141.6875 41.1875 141.59375 40.082031 141.59375 C 38.976562 141.59375 37.171875 141.464844 36.070312 141.304688 C 34.789062 141.117188 31.113281 140.960938 25.921875 140.867188 C 18.441406 140.738281 17.75 140.753906 17.429688 141.070312 C 17.238281 141.261719 17.082031 141.644531 17.082031 141.917969 C 17.082031 142.726562 17.738281 143.191406 19.074219 143.339844 C 22.035156 143.664062 23.40625 143.921875 23.976562 144.265625 C 24.625 144.652344 28.167969 145.453125 30.460938 145.730469 C 31.195312 145.820312 32.167969 145.984375 32.621094 146.097656 C 33.074219 146.214844 34.390625 146.449219 35.546875 146.621094 C 36.890625 146.820312 38.003906 147.117188 38.636719 147.449219 C 39.179688 147.734375 40.121094 148.0625 40.726562 148.175781 C 41.328125 148.292969 42.253906 148.613281 42.78125 148.894531 C 43.332031 149.1875 44.699219 149.578125 46.015625 149.820312 C 47.269531 150.050781 48.773438 150.472656 49.359375 150.757812 C 49.949219 151.039062 51.09375 151.363281 51.910156 151.480469 C 52.925781 151.625 53.683594 151.878906 54.328125 152.285156 C 54.839844 152.609375 55.851562 153.023438 56.574219 153.207031 C 57.292969 153.386719 58.140625 153.753906 58.457031 154.019531 C 58.796875 154.304688 59.558594 154.601562 60.335938 154.753906 C 61.054688 154.890625 62.128906 155.277344 62.726562 155.609375 C 63.324219 155.941406 64.25 156.363281 64.785156 156.546875 C 65.320312 156.726562 66.128906 157.132812 66.582031 157.445312 C 67.035156 157.753906 67.871094 158.128906 68.433594 158.273438 C 69 158.414062 69.695312 158.742188 69.980469 159 C 70.261719 159.257812 71.015625 159.617188 71.652344 159.800781 C 72.289062 159.984375 72.972656 160.3125 73.167969 160.53125 C 73.363281 160.746094 73.988281 161.078125 74.550781 161.265625 C 75.113281 161.453125 75.867188 161.855469 76.222656 162.160156 C 76.582031 162.46875 77.335938 162.886719 77.902344 163.09375 C 78.46875 163.300781 79.296875 163.734375 79.746094 164.058594 C 80.191406 164.382812 80.710938 164.648438 80.898438 164.648438 C 81.089844 164.648438 81.601562 164.9375 82.042969 165.292969 C 82.484375 165.648438 83.253906 166.121094 83.757812 166.347656 C 84.261719 166.574219 84.816406 166.929688 84.992188 167.136719 C 85.167969 167.34375 85.820312 167.707031 86.445312 167.945312 C 87.066406 168.1875 87.808594 168.597656 88.089844 168.859375 C 88.375 169.121094 88.808594 169.394531 89.058594 169.472656 C 89.308594 169.546875 89.953125 169.972656 90.488281 170.414062 C 91.023438 170.855469 91.710938 171.273438 92.015625 171.339844 C 92.316406 171.40625 92.789062 171.695312 93.054688 171.980469 C 93.324219 172.265625 93.964844 172.679688 94.476562 172.902344 C 94.992188 173.121094 95.671875 173.578125 95.988281 173.914062 C 96.304688 174.25 96.742188 174.527344 96.957031 174.527344 C 97.175781 174.527344 97.699219 174.832031 98.125 175.207031 C 98.550781 175.585938 99.335938 176.144531 99.875 176.453125 C 100.414062 176.761719 100.851562 177.09375 100.851562 177.1875 C 100.851562 177.285156 101.292969 177.566406 101.828125 177.816406 C 102.367188 178.0625 102.953125 178.449219 103.128906 178.675781 C 103.304688 178.898438 103.777344 179.285156 104.179688 179.53125 C 105.238281 180.183594 106.785156 181.320312 107.65625 182.089844 C 108.074219 182.457031 108.558594 182.757812 108.730469 182.757812 C 108.90625 182.757812 109.273438 183.027344 109.546875 183.351562 C 109.824219 183.679688 110.457031 184.203125 110.957031 184.519531 C 112.117188 185.25 113.246094 186.144531 114.324219 187.183594 C 114.792969 187.636719 115.75 188.53125 116.453125 189.171875 C 117.15625 189.8125 117.730469 190.492188 117.730469 190.6875 C 117.730469 191.078125 116.980469 192.089844 115.851562 193.226562 C 115.441406 193.640625 114.917969 194.351562 114.683594 194.8125 C 114.449219 195.273438 114.105469 195.78125 113.914062 195.9375 C 113.726562 196.09375 113.359375 196.703125 113.097656 197.285156 C 112.839844 197.871094 112.527344 198.414062 112.398438 198.492188 C 112.269531 198.570312 111.972656 199.023438 111.734375 199.496094 C 111.5 199.96875 111.050781 200.636719 110.742188 200.972656 C 110.433594 201.3125 110.019531 202.035156 109.820312 202.578125 C 109.621094 203.121094 109.242188 203.816406 108.980469 204.128906 C 108.722656 204.4375 108.40625 205.070312 108.28125 205.53125 C 108.15625 205.996094 107.773438 206.726562 107.433594 207.15625 C 107.089844 207.585938 106.757812 208.175781 106.695312 208.46875 C 106.496094 209.402344 106.144531 210.171875 105.65625 210.753906 C 105.382812 211.078125 105.058594 211.894531 104.898438 212.660156 C 104.742188 213.398438 104.433594 214.265625 104.210938 214.585938 C 103.613281 215.453125 103.359375 216.238281 103.144531 217.875 C 103.019531 218.816406 102.769531 219.625 102.4375 220.152344 C 102.15625 220.597656 101.773438 221.546875 101.59375 222.257812 C 101.410156 222.972656 101.085938 223.800781 100.871094 224.101562 C 100.332031 224.859375 100.027344 226.121094 99.953125 227.882812 C 99.867188 229.867188 99.449219 233.375 99.09375 235.039062 C 98.886719 236.007812 98.796875 238.351562 98.769531 243.578125 C 98.738281 249.832031 98.777344 250.902344 99.070312 251.683594 C 99.273438 252.21875 99.410156 253.191406 99.410156 254.089844 C 99.410156 254.917969 99.511719 255.855469 99.632812 256.171875 C 99.753906 256.492188 99.890625 257.492188 99.9375 258.398438 C 100.046875 260.511719 100.371094 261.871094 100.871094 262.324219 C 101.085938 262.523438 101.453125 263.3125 101.683594 264.082031 C 101.910156 264.851562 102.195312 265.542969 102.3125 265.613281 C 102.644531 265.820312 102.921875 266.699219 103.210938 268.488281 C 103.359375 269.398438 103.765625 270.765625 104.113281 271.535156 C 104.460938 272.300781 104.839844 273.449219 104.960938 274.089844 C 105.078125 274.726562 105.347656 275.441406 105.5625 275.675781 C 106.0625 276.222656 106.527344 277.164062 106.703125 277.980469 C 106.78125 278.335938 107.011719 278.78125 107.214844 278.964844 C 107.609375 279.324219 108.15625 280.484375 108.34375 281.363281 C 108.40625 281.65625 108.738281 282.25 109.078125 282.679688 C 109.421875 283.109375 109.792969 283.804688 109.90625 284.226562 C 110.019531 284.648438 110.347656 285.242188 110.632812 285.550781 C 110.917969 285.859375 111.382812 286.566406 111.664062 287.125 C 111.949219 287.683594 112.273438 288.140625 112.394531 288.140625 C 112.511719 288.140625 112.785156 288.539062 113 289.027344 C 113.214844 289.515625 113.578125 290.085938 113.808594 290.292969 C 114.039062 290.5 114.476562 291.097656 114.777344 291.617188 C 115.082031 292.136719 115.5 292.6875 115.710938 292.835938 C 115.917969 292.984375 116.273438 293.46875 116.496094 293.910156 C 116.722656 294.351562 117.101562 294.816406 117.335938 294.941406 C 117.570312 295.066406 117.871094 295.421875 118.003906 295.726562 C 118.429688 296.714844 119.597656 298.027344 123.710938 302.132812 C 127.808594 306.214844 129.308594 307.566406 130.351562 308.097656 C 130.671875 308.261719 131.023438 308.5625 131.128906 308.765625 C 131.238281 308.964844 131.671875 309.308594 132.09375 309.523438 C 132.511719 309.738281 133.042969 310.117188 133.269531 310.367188 C 133.496094 310.617188 134.050781 311.011719 134.503906 311.242188 C 134.957031 311.46875 135.632812 311.921875 136.003906 312.25 C 136.375 312.574219 136.804688 312.835938 136.957031 312.835938 C 137.113281 312.835938 137.671875 313.195312 138.199219 313.632812 C 138.726562 314.070312 139.515625 314.535156 139.949219 314.664062 C 140.382812 314.792969 140.792969 315.042969 140.859375 315.21875 C 140.925781 315.390625 141.515625 315.773438 142.167969 316.066406 C 142.820312 316.359375 143.585938 316.804688 143.867188 317.058594 C 144.152344 317.3125 144.890625 317.683594 145.515625 317.882812 C 146.136719 318.078125 146.832031 318.402344 147.058594 318.601562 C 147.628906 319.101562 148.128906 319.324219 149.324219 319.613281 C 149.886719 319.753906 150.539062 320.039062 150.769531 320.253906 C 150.996094 320.46875 151.785156 320.792969 152.519531 320.976562 C 153.25 321.164062 154.355469 321.59375 154.972656 321.9375 C 155.671875 322.328125 156.570312 322.621094 157.359375 322.71875 C 158.054688 322.804688 159.078125 323.085938 159.632812 323.347656 C 161.019531 323.996094 163.128906 324.3125 167.125 324.472656 C 168.992188 324.546875 170.9375 324.730469 171.449219 324.882812 C 171.957031 325.035156 172.84375 325.15625 173.414062 325.152344 C 173.984375 325.144531 175.097656 325.296875 175.890625 325.488281 C 177.152344 325.796875 178.308594 325.828125 185.347656 325.75 C 192.183594 325.675781 193.519531 325.613281 194.398438 325.316406 C 194.964844 325.121094 195.636719 325.019531 195.894531 325.082031 C 196.148438 325.144531 196.890625 325.058594 197.539062 324.890625 C 198.1875 324.722656 200.246094 324.484375 202.117188 324.363281 C 205.800781 324.121094 207.140625 323.917969 208.953125 323.3125 C 209.597656 323.097656 210.742188 322.835938 211.496094 322.730469 C 212.351562 322.609375 213.144531 322.347656 213.613281 322.03125 C 214.34375 321.539062 214.851562 321.347656 216.710938 320.859375 C 217.210938 320.730469 217.863281 320.441406 218.164062 320.21875 C 218.460938 320 219.257812 319.675781 219.929688 319.5 C 220.601562 319.328125 221.386719 318.96875 221.667969 318.707031 C 221.953125 318.445312 222.644531 318.074219 223.210938 317.886719 C 223.777344 317.699219 224.472656 317.328125 224.753906 317.066406 C 225.039062 316.804688 225.734375 316.390625 226.300781 316.144531 C 226.867188 315.898438 227.558594 315.476562 227.84375 315.207031 C 228.125 314.941406 228.636719 314.65625 228.976562 314.578125 C 229.316406 314.5 229.9375 314.167969 230.359375 313.839844 C 230.777344 313.507812 231.519531 313.070312 232.003906 312.859375 C 232.488281 312.652344 233.070312 312.273438 233.296875 312.019531 C 233.523438 311.765625 234.144531 311.339844 234.675781 311.070312 C 235.207031 310.800781 235.714844 310.453125 235.808594 310.300781 C 235.898438 310.144531 236.25 309.847656 236.589844 309.636719 C 236.929688 309.425781 237.554688 308.949219 237.980469 308.578125 C 238.40625 308.203125 238.851562 307.898438 238.972656 307.898438 C 239.261719 307.898438 244 303.503906 245.851562 301.519531 C 246.644531 300.667969 248.371094 298.863281 249.6875 297.503906 C 251.003906 296.144531 252.246094 294.710938 252.441406 294.3125 C 252.640625 293.917969 252.929688 293.519531 253.085938 293.429688 C 253.335938 293.28125 253.851562 292.578125 255.273438 290.433594 C 255.527344 290.054688 256.023438 289.40625 256.378906 288.992188 C 256.730469 288.582031 257.171875 287.886719 257.351562 287.453125 C 257.53125 287.015625 257.910156 286.390625 258.191406 286.054688 C 258.472656 285.722656 258.789062 285.125 258.902344 284.726562 C 259.011719 284.324219 259.425781 283.640625 259.824219 283.199219 C 260.253906 282.722656 260.601562 282.082031 260.683594 281.617188 C 260.761719 281.183594 261.03125 280.601562 261.28125 280.316406 C 261.535156 280.035156 261.949219 279.230469 262.203125 278.53125 C 262.457031 277.832031 262.839844 277.101562 263.050781 276.910156 C 263.40625 276.589844 263.605469 276.074219 264.285156 273.730469 C 264.433594 273.222656 264.761719 272.433594 265.015625 271.984375 C 265.269531 271.53125 265.542969 270.695312 265.621094 270.128906 C 265.703125 269.5625 266.074219 268.5 266.445312 267.761719 C 266.859375 266.953125 267.183594 265.9375 267.273438 265.191406 C 267.351562 264.511719 267.675781 263.445312 267.988281 262.824219 C 268.480469 261.847656 268.605469 261.199219 268.910156 258.089844 C 269.101562 256.109375 269.40625 254.023438 269.585938 253.457031 C 269.820312 252.714844 269.925781 251.378906 269.964844 248.621094 C 270 246.527344 270.035156 244.488281 270.046875 244.09375 C 270.121094 241.820312 269.789062 234.34375 269.59375 233.859375 C 269.347656 233.253906 269.191406 231.957031 268.808594 227.320312 C 268.589844 224.648438 268.527344 224.375 267.964844 223.578125 C 267.535156 222.972656 267.273438 222.242188 267.070312 221.109375 C 266.914062 220.210938 266.550781 219.085938 266.253906 218.570312 C 265.945312 218.03125 265.667969 217.148438 265.589844 216.449219 C 265.507812 215.757812 265.265625 214.976562 265.007812 214.597656 C 264.398438 213.699219 264.285156 213.367188 263.953125 211.484375 C 263.730469 210.238281 263.527344 209.699219 263.089844 209.21875 C 262.773438 208.875 262.339844 208.265625 262.125 207.871094 C 261.910156 207.472656 261.472656 206.84375 261.152344 206.472656 C 260.824219 206.09375 260.566406 205.550781 260.566406 205.238281 C 260.5625 204.929688 260.332031 204.308594 260.054688 203.855469 C 259.773438 203.402344 259.355469 202.644531 259.125 202.167969 C 258.894531 201.691406 258.488281 201.042969 258.222656 200.726562 C 257.960938 200.410156 257.546875 199.761719 257.304688 199.289062 C 257.066406 198.816406 256.683594 198.300781 256.457031 198.140625 C 256.230469 197.980469 255.910156 197.464844 255.742188 196.996094 C 255.578125 196.523438 255.113281 195.707031 254.710938 195.179688 C 254.308594 194.65625 253.980469 194.097656 253.980469 193.941406 C 253.980469 193.789062 253.289062 192.878906 252.4375 191.925781 C 251.589844 190.96875 250.894531 190.011719 250.894531 189.792969 C 250.894531 189.382812 252.136719 188.132812 252.988281 187.6875 C 253.25 187.546875 253.839844 187.074219 254.292969 186.632812 C 255.84375 185.125 256.199219 184.816406 256.695312 184.558594 C 257.324219 184.234375 258.699219 183.089844 260.902344 181.0625 C 261.859375 180.183594 262.726562 179.464844 262.832031 179.464844 C 262.9375 179.464844 263.515625 179.054688 264.113281 178.546875 C 266.207031 176.777344 266.644531 176.4375 267.15625 176.167969 C 267.4375 176.019531 268.382812 175.269531 269.253906 174.503906 C 270.125 173.734375 271.113281 172.964844 271.453125 172.789062 C 271.792969 172.613281 272.199219 172.285156 272.355469 172.0625 C 272.511719 171.835938 273 171.503906 273.433594 171.320312 C 273.871094 171.140625 274.605469 170.675781 275.066406 170.292969 C 275.527344 169.910156 276.347656 169.222656 276.890625 168.765625 C 277.4375 168.3125 278.011719 167.941406 278.171875 167.941406 C 278.332031 167.941406 278.765625 167.671875 279.136719 167.347656 C 279.507812 167.019531 280.171875 166.601562 280.613281 166.417969 C 281.050781 166.234375 281.769531 165.761719 282.207031 165.367188 C 282.644531 164.972656 283.179688 164.648438 283.394531 164.648438 C 283.605469 164.648438 284.226562 164.28125 284.769531 163.832031 C 285.3125 163.382812 286.003906 162.960938 286.3125 162.894531 C 286.621094 162.828125 287.042969 162.582031 287.253906 162.347656 C 287.460938 162.117188 288.144531 161.65625 288.765625 161.324219 C 289.386719 160.992188 290.210938 160.492188 290.597656 160.214844 C 290.980469 159.9375 291.453125 159.707031 291.640625 159.707031 C 291.832031 159.707031 292.441406 159.382812 293 158.984375 C 293.558594 158.585938 294.347656 158.167969 294.757812 158.058594 C 295.167969 157.945312 295.851562 157.578125 296.277344 157.238281 C 296.703125 156.898438 297.410156 156.523438 297.847656 156.40625 C 298.285156 156.289062 298.804688 156.023438 299.003906 155.816406 C 299.460938 155.339844 300.410156 154.859375 301.253906 154.675781 C 301.617188 154.597656 302.027344 154.394531 302.167969 154.226562 C 302.53125 153.789062 303.757812 153.203125 304.644531 153.039062 C 305.054688 152.964844 305.734375 152.632812 306.152344 152.300781 C 306.953125 151.664062 307.140625 151.585938 308.347656 151.382812 C 308.761719 151.316406 309.457031 151.015625 309.890625 150.722656 C 310.324219 150.429688 311.265625 150.023438 311.980469 149.824219 C 312.699219 149.628906 313.484375 149.28125 313.734375 149.058594 C 314.234375 148.605469 315.34375 148.179688 316.023438 148.179688 C 316.265625 148.179688 316.96875 147.855469 317.585938 147.453125 C 318.207031 147.054688 318.921875 146.683594 319.175781 146.628906 C 319.429688 146.578125 319.855469 146.492188 320.117188 146.4375 C 320.378906 146.382812 320.953125 146.097656 321.390625 145.800781 C 322.03125 145.367188 322.558594 145.226562 324.140625 145.078125 C 325.667969 144.933594 326.253906 144.78125 326.828125 144.394531 C 327.792969 143.738281 329.320312 143.242188 330.398438 143.234375 C 330.878906 143.230469 331.777344 143.042969 332.398438 142.8125 C 334.605469 142.003906 335.339844 141.808594 336.917969 141.609375 C 337.792969 141.5 338.921875 141.257812 339.417969 141.074219 C 340.902344 140.53125 341.640625 140.378906 344.285156 140.058594 C 346.789062 139.757812 347.859375 139.414062 348.199219 138.808594 C 348.296875 138.632812 348.925781 138.34375 349.597656 138.171875 C 350.269531 137.996094 350.9375 137.757812 351.078125 137.640625 C 351.488281 137.304688 351.378906 136.691406 350.84375 136.34375 C 350.414062 136.0625 349.820312 136.046875 345.855469 136.234375 C 340.804688 136.46875 339.675781 136.566406 337.046875 136.976562 C 336.039062 137.132812 333.585938 137.316406 331.59375 137.382812 C 326.398438 137.550781 323.84375 137.84375 322.726562 138.402344 C 322.214844 138.65625 321.335938 138.925781 320.769531 139 C 318.40625 139.308594 315.734375 139.804688 314.304688 140.199219 C 313.460938 140.429688 311.839844 140.695312 310.699219 140.789062 C 309.5625 140.882812 307.5625 141.1875 306.261719 141.464844 C 303.628906 142.027344 302.472656 142.265625 300.496094 142.636719 C 299.761719 142.777344 299.066406 142.964844 298.953125 143.050781 C 298.6875 143.253906 295.605469 144.066406 295.101562 144.066406 C 294.894531 144.066406 294.054688 144.335938 293.238281 144.671875 C 292.316406 145.046875 290.898438 145.394531 289.511719 145.589844 C 287.957031 145.804688 286.886719 146.082031 286.011719 146.496094 C 285.320312 146.824219 284.300781 147.203125 283.75 147.339844 C 283.199219 147.472656 282.226562 147.84375 281.589844 148.164062 C 280.953125 148.484375 279.78125 148.855469 278.988281 148.988281 C 278.195312 149.125 276.945312 149.503906 276.210938 149.832031 C 275.476562 150.160156 274.34375 150.523438 273.699219 150.636719 C 273.050781 150.75 271.984375 151.117188 271.332031 151.453125 C 270.675781 151.789062 269.605469 152.160156 268.953125 152.277344 C 267.730469 152.496094 267.214844 152.710938 266.332031 153.363281 C 266.046875 153.570312 265.214844 153.84375 264.476562 153.96875 C 263.742188 154.089844 262.816406 154.40625 262.421875 154.664062 C 262.023438 154.925781 261.328125 155.25 260.878906 155.390625 C 260.324219 155.5625 259.773438 155.742188 259.222656 155.925781 C 258.144531 156.292969 257.757812 156.28125 257.605469 155.882812 C 257.355469 155.230469 257.492188 154.433594 258.023438 153.4375 C 258.351562 152.820312 258.636719 151.847656 258.746094 150.96875 C 258.953125 149.3125 259.40625 146.820312 259.722656 145.609375 C 260.292969 143.410156 260.574219 141.558594 260.550781 140.15625 C 260.539062 139.304688 260.617188 137.269531 260.722656 135.625 C 260.90625 132.886719 260.972656 132.539062 261.566406 131.382812 C 261.921875 130.6875 262.214844 129.984375 262.214844 129.820312 C 262.214844 129.535156 262.558594 128.507812 263.367188 126.363281 C 263.714844 125.4375 263.835938 123.828125 264.242188 114.734375 C 264.335938 112.699219 264.515625 110.777344 264.644531 110.464844 C 264.964844 109.699219 265.042969 77.742188 264.730469 76.253906 C 264.59375 75.609375 264.582031 74.820312 264.695312 74.128906 C 264.824219 73.328125 264.796875 72.789062 264.59375 72.164062 C 264.140625 70.792969 264.046875 69.851562 263.886719 65.199219 C 263.722656 60.433594 263.570312 59.78125 262.53125 59.308594 C 261.9375 59.039062 261.199219 58.992188 260.679688 59.1875 C 259.84375 59.511719 259.796875 60.015625 259.660156 70.175781 C 259.527344 80.316406 259.34375 83.113281 258.695312 84.9375 C 258.484375 85.53125 258.21875 86.640625 258.101562 87.40625 C 257.792969 89.414062 257.273438 91.761719 256.925781 92.703125 C 256.761719 93.148438 256.539062 94.621094 256.429688 95.972656 C 256.308594 97.472656 256.066406 98.882812 255.8125 99.585938 C 255.582031 100.222656 255.253906 101.480469 255.085938 102.386719 C 254.886719 103.453125 254.675781 104.515625 254.457031 105.578125 C 254.28125 106.425781 254.089844 107.492188 254.035156 107.945312 C 253.980469 108.394531 253.851562 108.871094 253.753906 108.996094 C 253.652344 109.121094 253.382812 109.769531 253.152344 110.433594 C 252.921875 111.097656 252.511719 111.96875 252.238281 112.367188 C 251.875 112.894531 251.679688 113.585938 251.511719 114.941406 C 251.351562 116.226562 251.085938 117.195312 250.652344 118.101562 C 250.308594 118.820312 249.898438 119.945312 249.746094 120.601562 C 249.59375 121.261719 249.238281 122.132812 248.960938 122.542969 C 248.683594 122.953125 248.398438 123.589844 248.328125 123.953125 C 248.035156 125.507812 247.703125 126.511719 247.269531 127.1875 C 247.011719 127.585938 246.6875 128.371094 246.550781 128.9375 C 246.410156 129.503906 245.988281 130.613281 245.613281 131.402344 C 245.234375 132.191406 244.925781 133.003906 244.925781 133.210938 C 244.925781 133.664062 244.398438 134.75 243.898438 135.316406 C 243.703125 135.542969 243.378906 136.253906 243.179688 136.898438 C 242.980469 137.542969 242.597656 138.277344 242.328125 138.53125 C 242.058594 138.785156 241.839844 139.097656 241.839844 139.226562 C 241.839844 139.804688 241.171875 141.628906 240.839844 141.953125 C 240.636719 142.152344 240.265625 142.871094 240.011719 143.550781 C 239.757812 144.230469 239.339844 145.015625 239.078125 145.300781 C 238.820312 145.582031 238.484375 146.269531 238.332031 146.828125 C 238.183594 147.382812 237.8125 148.125 237.511719 148.472656 C 237.207031 148.820312 236.84375 149.453125 236.707031 149.878906 C 236.570312 150.304688 236.140625 151.03125 235.75 151.492188 C 235.363281 151.957031 235.046875 152.539062 235.046875 152.785156 C 235.046875 153.03125 234.675781 153.679688 234.222656 154.226562 C 233.691406 154.871094 233.398438 155.429688 233.398438 155.808594 C 233.398438 156.1875 233.121094 156.710938 232.59375 157.320312 C 232.152344 157.832031 231.730469 158.519531 231.660156 158.847656 C 231.585938 159.175781 231.257812 159.703125 230.929688 160.015625 C 230.601562 160.332031 230.277344 160.84375 230.210938 161.152344 C 230.140625 161.464844 229.769531 162.085938 229.386719 162.535156 C 229 162.984375 228.558594 163.714844 228.40625 164.15625 C 227.941406 165.496094 225.855469 168.199219 224.902344 168.691406 C 224.042969 169.136719 223.039062 168.933594 221.152344 167.9375 C 220.292969 167.488281 219.332031 167.117188 219.015625 167.117188 C 218.675781 167.117188 217.976562 166.78125 217.292969 166.292969 C 216.660156 165.839844 215.972656 165.46875 215.765625 165.46875 C 215.558594 165.46875 214.75 165.148438 213.96875 164.753906 C 212.875 164.203125 212.042969 163.964844 210.367188 163.730469 C 207.996094 163.394531 206.957031 163.140625 206.539062 162.792969 C 206.390625 162.671875 205.652344 162.394531 204.894531 162.175781 C 204.136719 161.960938 203.375 161.664062 203.195312 161.515625 C 203.019531 161.371094 202.40625 161.011719 201.828125 160.71875 C 201.132812 160.371094 200.660156 159.957031 200.425781 159.503906 C 200.085938 158.832031 200.089844 158.796875 200.667969 157.667969 C 201.324219 156.398438 201.703125 154.34375 201.703125 152.082031 C 201.703125 151.207031 201.835938 150.335938 202.035156 149.871094 C 202.414062 149.003906 202.628906 147.46875 202.949219 143.34375 C 203.070312 141.761719 203.304688 139.984375 203.46875 139.402344 C 203.628906 138.820312 203.761719 138.097656 203.761719 137.796875 C 203.761719 137.496094 203.914062 136.960938 204.09375 136.609375 C 204.277344 136.253906 204.511719 135.261719 204.617188 134.40625 C 204.71875 133.550781 205.019531 132.152344 205.285156 131.304688 C 205.878906 129.402344 206.15625 128.152344 206.433594 126.160156 C 206.550781 125.308594 206.878906 123.921875 207.167969 123.070312 C 207.457031 122.222656 207.777344 120.804688 207.878906 119.921875 C 208 118.910156 208.332031 117.6875 208.777344 116.628906 C 209.164062 115.699219 209.582031 114.632812 209.703125 114.257812 C 209.824219 113.878906 210.144531 113.3125 210.410156 113 C 210.808594 112.523438 210.9375 112.015625 211.148438 110.082031 C 211.363281 108.085938 211.492188 107.597656 212.007812 106.789062 C 212.34375 106.269531 212.792969 105.175781 213.003906 104.359375 C 213.21875 103.542969 213.539062 102.714844 213.714844 102.519531 C 213.894531 102.324219 214.21875 101.582031 214.441406 100.871094 C 214.664062 100.15625 214.980469 99.417969 215.148438 99.230469 C 215.316406 99.042969 215.699219 98.082031 215.996094 97.097656 C 216.296875 96.113281 216.71875 95.09375 216.941406 94.835938 C 217.160156 94.574219 217.535156 93.710938 217.773438 92.917969 C 218.011719 92.125 218.417969 91.246094 218.671875 90.964844 C 218.925781 90.679688 219.285156 89.902344 219.46875 89.234375 C 219.652344 88.566406 219.988281 87.820312 220.21875 87.578125 C 220.445312 87.335938 220.816406 86.601562 221.042969 85.949219 C 221.265625 85.292969 221.667969 84.5 221.9375 84.179688 C 222.207031 83.863281 222.546875 83.152344 222.695312 82.601562 C 222.84375 82.050781 223.214844 81.320312 223.527344 80.980469 C 223.835938 80.640625 224.246094 79.878906 224.4375 79.285156 C 224.632812 78.6875 224.964844 78.078125 225.179688 77.929688 C 225.398438 77.777344 225.710938 77.257812 225.882812 76.777344 C 226.050781 76.296875 226.460938 75.5625 226.789062 75.148438 C 227.117188 74.734375 227.53125 74.035156 227.714844 73.597656 C 227.898438 73.164062 228.316406 72.496094 228.648438 72.121094 C 228.976562 71.746094 229.3125 71.222656 229.394531 70.960938 C 229.476562 70.699219 229.855469 70.136719 230.238281 69.710938 C 230.617188 69.285156 230.929688 68.816406 230.929688 68.667969 C 230.929688 68.515625 231.171875 68.171875 231.464844 67.894531 C 231.757812 67.621094 232.132812 67.136719 232.300781 66.820312 C 232.464844 66.5 232.917969 65.886719 233.308594 65.457031 C 233.695312 65.027344 234.148438 64.359375 234.308594 63.972656 C 234.46875 63.585938 234.792969 63.101562 235.023438 62.890625 C 235.257812 62.679688 235.648438 62.09375 235.890625 61.589844 C 236.136719 61.085938 236.464844 60.625 236.621094 60.5625 C 236.78125 60.503906 237.136719 60.066406 237.414062 59.597656 C 237.6875 59.125 238.195312 58.46875 238.539062 58.140625 C 238.882812 57.8125 239.164062 57.414062 239.164062 57.253906 C 239.164062 57.09375 239.421875 56.714844 239.738281 56.417969 C 240.054688 56.117188 240.554688 55.453125 240.851562 54.945312 C 241.144531 54.433594 241.59375 53.789062 241.84375 53.503906 C 242.09375 53.222656 242.519531 52.640625 242.792969 52.21875 C 243.0625 51.792969 243.375 51.445312 243.484375 51.445312 C 243.59375 51.445312 243.871094 51.078125 244.101562 50.625 C 244.332031 50.175781 244.785156 49.671875 245.109375 49.503906 C 245.761719 49.164062 245.957031 48.8125 245.957031 47.972656 C 245.957031 47.195312 245.601562 46.917969 244.617188 46.917969 C 244.152344 46.917969 243.664062 47.027344 243.527344 47.164062 M 182.058594 76.800781 C 181.382812 76.910156 180.585938 77.175781 180.28125 77.390625 C 179.976562 77.609375 179.285156 77.976562 178.742188 78.207031 C 177.832031 78.597656 177.429688 78.894531 175.300781 80.722656 C 174.875 81.089844 174.328125 81.761719 174.089844 82.214844 C 173.847656 82.667969 173.433594 83.328125 173.164062 83.683594 C 172.894531 84.035156 172.535156 84.871094 172.367188 85.535156 C 172.199219 86.199219 171.808594 87.253906 171.496094 87.875 L 170.933594 89.007812 L 170.933594 98.476562 L 171.707031 99.957031 C 172.128906 100.773438 172.476562 101.550781 172.476562 101.6875 C 172.476562 102.21875 174.785156 105.769531 175.972656 107.066406 C 177.113281 108.3125 177.328125 108.453125 178.402344 108.667969 C 179.046875 108.796875 180.183594 109.128906 180.921875 109.402344 C 182.703125 110.0625 186.460938 110.121094 188.039062 109.511719 C 188.59375 109.300781 189.601562 109.023438 190.28125 108.902344 C 191.402344 108.695312 191.621094 108.566406 192.660156 107.472656 C 194.269531 105.777344 195.328125 104.191406 196.675781 101.460938 L 197.84375 99.09375 L 198.039062 96.125 C 198.273438 92.546875 198.007812 88.949219 197.414062 87.625 C 197.195312 87.140625 196.84375 86.234375 196.632812 85.613281 C 195.777344 83.078125 192.140625 78.925781 190.105469 78.15625 C 189.523438 77.9375 188.84375 77.570312 188.59375 77.335938 C 187.792969 76.59375 184.859375 76.351562 182.058594 76.800781 M 279.46875 116.589844 C 279.414062 116.644531 278.957031 116.777344 278.457031 116.882812 C 276.269531 117.347656 274.222656 118 273.84375 118.347656 C 273.613281 118.558594 272.894531 118.964844 272.238281 119.253906 C 271.585938 119.542969 270.996094 119.921875 270.929688 120.097656 C 270.863281 120.273438 270.351562 120.644531 269.796875 120.925781 C 269.175781 121.242188 268.574219 121.757812 268.226562 122.273438 C 267.921875 122.734375 267.414062 123.394531 267.101562 123.738281 C 266.792969 124.085938 266.445312 124.707031 266.332031 125.121094 C 266.222656 125.535156 265.859375 126.285156 265.53125 126.789062 C 265.199219 127.292969 264.820312 128.121094 264.6875 128.628906 C 264.558594 129.136719 264.203125 130.15625 263.902344 130.894531 C 263.398438 132.128906 263.355469 132.460938 263.351562 135.214844 C 263.347656 138.042969 263.375 138.257812 263.90625 139.355469 C 264.214844 139.988281 264.550781 140.886719 264.652344 141.351562 C 264.757812 141.816406 265.179688 142.585938 265.585938 143.0625 C 265.996094 143.542969 266.332031 144.046875 266.332031 144.183594 C 266.332031 144.4375 267.402344 145.460938 268.25 146.015625 C 269.714844 146.976562 276.203125 147.261719 280.171875 146.539062 C 281.917969 146.222656 282.714844 145.953125 283.976562 145.265625 C 284.855469 144.785156 285.691406 144.277344 285.832031 144.140625 C 285.972656 144.003906 286.296875 143.722656 286.550781 143.515625 C 287.40625 142.824219 289.945312 139.855469 290.394531 139.023438 C 290.640625 138.570312 291.066406 137.882812 291.347656 137.5 C 291.625 137.113281 291.851562 136.539062 291.851562 136.214844 C 291.851562 135.894531 292.039062 135.144531 292.265625 134.546875 C 292.492188 133.953125 292.675781 133.269531 292.675781 133.027344 C 292.675781 132.785156 292.816406 132.257812 292.984375 131.851562 C 293.199219 131.335938 293.292969 130.402344 293.289062 128.789062 C 293.28125 126.746094 293.21875 126.34375 292.773438 125.4375 C 292.496094 124.871094 292.152344 123.875 292.015625 123.21875 C 291.824219 122.304688 291.546875 121.765625 290.832031 120.925781 C 288.445312 118.113281 286.746094 117.175781 283.199219 116.714844 C 281.34375 116.472656 279.640625 116.414062 279.46875 116.589844 M 81.917969 117.121094 C 81.632812 117.238281 80.714844 117.464844 79.878906 117.625 C 79.042969 117.785156 78.203125 118.054688 78.015625 118.226562 C 77.832031 118.394531 77.074219 118.804688 76.335938 119.140625 C 75.121094 119.691406 73.476562 121.105469 73.476562 121.601562 C 73.476562 121.699219 73.207031 122.121094 72.871094 122.542969 C 72.539062 122.960938 72.121094 123.746094 71.941406 124.289062 C 71.761719 124.828125 71.429688 125.628906 71.207031 126.066406 C 70.867188 126.738281 70.800781 127.28125 70.800781 129.503906 C 70.800781 131.886719 70.851562 132.234375 71.300781 133.125 C 71.574219 133.667969 71.90625 134.703125 72.035156 135.433594 C 72.164062 136.164062 72.492188 137.082031 72.761719 137.480469 C 73.027344 137.875 73.425781 138.617188 73.644531 139.128906 C 73.886719 139.703125 74.667969 140.679688 75.695312 141.699219 C 78.421875 144.402344 78.726562 144.660156 79.6875 145.085938 C 80.195312 145.308594 80.84375 145.675781 81.125 145.898438 C 81.410156 146.121094 82.234375 146.445312 82.960938 146.617188 C 84.773438 147.046875 86.191406 147.601562 87.140625 148.25 C 87.667969 148.609375 88.214844 148.800781 88.734375 148.800781 C 89.878906 148.800781 92.609375 148.003906 93.335938 147.457031 C 93.675781 147.199219 94.402344 146.839844 94.949219 146.65625 C 95.496094 146.472656 96.285156 146.0625 96.699219 145.746094 C 97.199219 145.363281 97.703125 144.988281 98.210938 144.617188 C 98.679688 144.277344 99.058594 143.777344 99.214844 143.296875 C 99.351562 142.871094 99.691406 142.011719 99.976562 141.390625 C 100.917969 139.308594 101.050781 135.882812 100.378906 130.894531 C 100.101562 128.824219 99.546875 127.5625 98.46875 126.558594 C 98.171875 126.28125 97.757812 125.722656 97.550781 125.316406 C 97.339844 124.910156 96.933594 124.421875 96.644531 124.230469 C 96.355469 124.042969 95.992188 123.585938 95.832031 123.222656 C 95.5625 122.601562 94.730469 121.695312 93.058594 120.207031 C 92.679688 119.867188 91.851562 119.4375 91.21875 119.253906 C 90.585938 119.070312 89.863281 118.757812 89.613281 118.5625 C 89.363281 118.367188 88.664062 118.097656 88.058594 117.960938 C 87.246094 117.777344 86.433594 117.585938 85.621094 117.386719 C 83.84375 116.953125 82.546875 116.859375 81.917969 117.121094 M 164.539062 170.425781 C 163.960938 171.066406 160.144531 172.878906 159.375 172.878906 C 158.214844 172.878906 156.550781 173.3125 155.804688 173.8125 C 155.410156 174.074219 154.53125 174.390625 153.851562 174.511719 C 153.171875 174.636719 152.382812 174.90625 152.101562 175.113281 C 151.304688 175.699219 150.308594 176.171875 149.875 176.171875 C 149.660156 176.171875 148.9375 176.542969 148.269531 176.996094 C 147.605469 177.449219 146.890625 177.820312 146.683594 177.820312 C 146.476562 177.820312 146.023438 178.101562 145.679688 178.445312 C 145.335938 178.789062 144.71875 179.242188 144.308594 179.453125 C 143.894531 179.664062 143.199219 180.125 142.757812 180.476562 C 142.320312 180.824219 141.835938 181.113281 141.6875 181.113281 C 141.535156 181.113281 141.109375 181.378906 140.738281 181.703125 C 140.363281 182.027344 139.644531 182.503906 139.132812 182.757812 C 138.625 183.015625 137.863281 183.515625 137.445312 183.867188 C 137.027344 184.21875 136.257812 184.832031 135.738281 185.230469 C 133.789062 186.722656 132.34375 188.0625 128.910156 191.585938 C 126.964844 193.578125 125.09375 195.488281 124.75 195.832031 C 124.410156 196.171875 124.011719 196.730469 123.863281 197.074219 C 123.714844 197.417969 123.296875 198.066406 122.929688 198.511719 C 121.003906 200.863281 120.628906 201.386719 120.507812 201.878906 C 120.433594 202.171875 120.15625 202.648438 119.886719 202.929688 C 119.617188 203.210938 119.242188 203.816406 119.054688 204.269531 C 118.867188 204.71875 118.398438 205.4375 118.015625 205.863281 C 117.632812 206.289062 117.316406 206.855469 117.316406 207.121094 C 117.316406 207.390625 116.949219 208.152344 116.496094 208.820312 C 116.042969 209.484375 115.671875 210.175781 115.671875 210.351562 C 115.671875 210.527344 115.378906 211.128906 115.023438 211.6875 C 114.390625 212.6875 114.171875 213.207031 113.941406 214.265625 C 113.878906 214.558594 113.5625 215.132812 113.238281 215.542969 C 112.804688 216.085938 112.582031 216.6875 112.398438 217.789062 C 112.25 218.691406 111.910156 219.71875 111.550781 220.359375 C 111.222656 220.945312 110.84375 221.871094 110.710938 222.417969 C 110.578125 222.960938 110.207031 223.964844 109.886719 224.644531 C 109.375 225.734375 109.28125 226.253906 109.089844 229.070312 C 108.796875 233.453125 108.507812 235.40625 108.007812 236.394531 C 107.730469 236.949219 107.628906 237.421875 107.714844 237.765625 C 107.835938 238.25 107.96875 238.308594 109.238281 238.433594 C 110.003906 238.511719 117.308594 238.613281 125.472656 238.660156 C 137.839844 238.734375 140.523438 238.703125 141.574219 238.457031 C 142.269531 238.292969 143 238.207031 143.207031 238.257812 C 143.410156 238.3125 143.820312 238.164062 144.117188 237.929688 C 144.632812 237.523438 144.660156 237.398438 144.757812 235.085938 C 144.875 232.285156 145.203125 228.992188 145.398438 228.679688 C 145.59375 228.359375 145.898438 225.683594 146.117188 222.378906 C 146.230469 220.632812 146.441406 219.132812 146.648438 218.570312 C 147.101562 217.355469 147.761719 214.160156 147.777344 213.117188 C 147.785156 212.664062 148.023438 211.414062 148.304688 210.339844 C 148.589844 209.265625 149 207.0625 149.21875 205.453125 C 149.605469 202.601562 149.785156 201.949219 150.382812 201.261719 C 150.539062 201.082031 150.792969 200.335938 150.945312 199.609375 C 151.097656 198.882812 151.503906 197.78125 151.851562 197.160156 C 152.25 196.449219 152.535156 195.578125 152.625 194.800781 C 152.773438 193.539062 152.972656 193.066406 153.859375 191.835938 C 154.148438 191.4375 154.363281 190.851562 154.363281 190.46875 C 154.363281 190.050781 154.621094 189.429688 155.0625 188.789062 C 155.480469 188.179688 155.863281 187.285156 156.015625 186.554688 C 156.175781 185.777344 156.472656 185.097656 156.832031 184.683594 C 157.152344 184.320312 157.511719 183.558594 157.65625 182.9375 C 157.796875 182.328125 158.128906 181.601562 158.386719 181.320312 C 158.648438 181.035156 159.019531 180.386719 159.214844 179.878906 C 159.410156 179.367188 159.820312 178.675781 160.121094 178.335938 C 160.421875 177.996094 160.785156 177.441406 160.929688 177.101562 C 161.265625 176.320312 162.285156 175.097656 164.292969 173.078125 C 165.816406 171.550781 166.441406 170.59375 166.1875 170.1875 C 165.976562 169.839844 164.933594 169.992188 164.539062 170.425781 M 209.773438 173.128906 C 209.332031 173.566406 209.507812 174.113281 210.347656 174.9375 C 210.800781 175.382812 211.171875 175.863281 211.171875 176.011719 C 211.175781 176.15625 211.503906 176.6875 211.902344 177.1875 C 212.300781 177.691406 212.804688 178.5 213.019531 178.988281 C 213.234375 179.476562 213.507812 179.878906 213.625 179.878906 C 213.738281 179.878906 214.15625 180.574219 214.546875 181.421875 C 214.941406 182.269531 215.355469 182.964844 215.476562 182.964844 C 215.59375 182.964844 215.839844 183.480469 216.019531 184.113281 C 216.203125 184.742188 216.609375 185.550781 216.917969 185.914062 C 217.230469 186.273438 217.644531 187.078125 217.84375 187.699219 C 218.039062 188.320312 218.425781 189.164062 218.703125 189.566406 C 219 190 219.332031 190.964844 219.515625 191.921875 C 219.683594 192.8125 220.039062 193.917969 220.304688 194.378906 C 220.566406 194.835938 220.890625 195.757812 221.019531 196.425781 C 221.148438 197.09375 221.496094 198.066406 221.792969 198.585938 C 222.148438 199.207031 222.464844 200.292969 222.714844 201.742188 C 222.949219 203.070312 223.308594 204.347656 223.625 204.953125 C 223.976562 205.625 224.214844 206.535156 224.347656 207.707031 C 224.457031 208.671875 224.691406 209.863281 224.867188 210.363281 C 225.363281 211.75 225.78125 214.113281 225.992188 216.71875 C 226.136719 218.464844 226.316406 219.382812 226.6875 220.21875 C 227.21875 221.421875 227.84375 225.464844 227.847656 227.730469 C 227.847656 228.410156 227.972656 229.429688 228.121094 229.996094 C 228.320312 230.734375 228.367188 231.941406 228.296875 234.265625 L 228.199219 237.503906 L 228.941406 237.816406 C 229.578125 238.082031 231.808594 238.125 244.867188 238.121094 C 256.65625 238.121094 260.167969 238.0625 260.570312 237.859375 C 261.277344 237.503906 261.3125 236.769531 260.703125 235.207031 C 260.207031 233.933594 260.152344 233.554688 259.542969 226.957031 C 259.386719 225.269531 259.214844 224.496094 258.808594 223.695312 C 258.515625 223.121094 258.179688 222.078125 258.0625 221.382812 C 257.945312 220.683594 257.628906 219.773438 257.359375 219.355469 C 257.09375 218.933594 256.695312 217.9375 256.480469 217.136719 C 256.265625 216.335938 255.855469 215.335938 255.570312 214.914062 C 255.285156 214.492188 254.894531 213.589844 254.707031 212.910156 C 254.515625 212.234375 254.152344 211.445312 253.898438 211.164062 C 253.640625 210.878906 253.320312 210.253906 253.183594 209.769531 C 253.046875 209.285156 252.675781 208.59375 252.355469 208.226562 C 252.039062 207.859375 251.667969 207.226562 251.535156 206.816406 C 251.402344 206.402344 250.972656 205.617188 250.578125 205.066406 C 250.1875 204.515625 249.867188 203.917969 249.867188 203.738281 C 249.867188 203.5625 249.554688 203.050781 249.175781 202.605469 C 248.796875 202.160156 248.292969 201.425781 248.0625 200.972656 C 247.832031 200.523438 247.402344 199.925781 247.105469 199.652344 C 246.8125 199.378906 246.574219 199.019531 246.574219 198.851562 C 246.574219 198.6875 246.226562 198.148438 245.800781 197.65625 C 245.375 197.164062 244.195312 195.777344 243.175781 194.574219 C 240.390625 191.285156 235.9375 186.941406 234.386719 185.996094 C 234.046875 185.789062 233.542969 185.351562 233.265625 185.023438 C 232.988281 184.695312 232.558594 184.367188 232.3125 184.289062 C 232.0625 184.214844 231.625 183.9375 231.34375 183.675781 C 231.058594 183.414062 230.375 183.003906 229.820312 182.765625 C 229.265625 182.53125 228.496094 182.058594 228.113281 181.722656 C 227.730469 181.386719 227.289062 181.113281 227.136719 181.113281 C 226.980469 181.113281 226.449219 180.777344 225.957031 180.363281 C 225.46875 179.953125 224.679688 179.449219 224.210938 179.25 C 223.742188 179.046875 223.292969 178.773438 223.207031 178.636719 C 223.125 178.5 222.542969 178.164062 221.910156 177.882812 C 221.28125 177.605469 220.5 177.152344 220.171875 176.878906 C 219.847656 176.605469 219.339844 176.320312 219.042969 176.246094 C 218.75 176.171875 217.984375 175.8125 217.339844 175.449219 C 216.695312 175.085938 215.6875 174.671875 215.097656 174.53125 C 214.511719 174.390625 213.777344 174.0625 213.472656 173.804688 C 212.515625 173 210.304688 172.59375 209.773438 173.128906 M 191.199219 173.226562 C 191.195312 173.320312 191.160156 182.609375 191.121094 193.875 C 191.078125 205.136719 190.980469 218.058594 190.898438 222.585938 C 190.820312 227.113281 190.820312 232.328125 190.898438 234.171875 C 191.042969 237.449219 191.058594 237.535156 191.558594 237.863281 C 192.015625 238.164062 193.117188 238.203125 201.261719 238.214844 C 210.578125 238.226562 212.585938 238.125 213.109375 237.597656 C 213.433594 237.273438 213.367188 234.644531 213.003906 233.503906 C 212.816406 232.917969 212.394531 230.222656 211.683594 225.105469 C 211.5 223.773438 211.25 222.382812 211.132812 222.015625 C 211.011719 221.652344 210.839844 220.238281 210.742188 218.878906 C 210.375 213.5625 210.039062 211.28125 209.46875 210.265625 C 209.175781 209.742188 208.828125 208.796875 208.699219 208.164062 C 208.570312 207.535156 208.222656 206.496094 207.929688 205.855469 C 207.636719 205.214844 207.277344 203.960938 207.136719 203.066406 C 206.992188 202.175781 206.640625 200.964844 206.355469 200.378906 C 206.066406 199.792969 205.695312 198.667969 205.523438 197.878906 C 205.066406 195.746094 204.84375 195.089844 204.410156 194.613281 C 204.195312 194.375 203.902344 193.679688 203.757812 193.066406 C 203.617188 192.453125 203.234375 191.574219 202.910156 191.113281 C 202.585938 190.648438 202.242188 189.824219 202.140625 189.277344 C 202.03125 188.679688 201.746094 188.066406 201.429688 187.734375 C 201.140625 187.433594 200.71875 186.765625 200.492188 186.253906 C 200.265625 185.742188 199.847656 185.101562 199.5625 184.835938 C 199.28125 184.570312 198.992188 184.085938 198.917969 183.761719 C 198.847656 183.433594 198.425781 182.683594 197.984375 182.09375 C 197.539062 181.503906 197.175781 180.863281 197.175781 180.671875 C 197.175781 180.480469 196.894531 180.0625 196.550781 179.742188 C 196.207031 179.421875 195.707031 178.785156 195.441406 178.335938 C 195.171875 177.882812 194.75 177.324219 194.5 177.097656 C 194.066406 176.707031 193.835938 176.34375 192.636719 174.152344 C 192.296875 173.53125 191.949219 173.164062 191.65625 173.121094 C 191.410156 173.085938 191.203125 173.132812 191.199219 173.226562 M 180.320312 174.710938 C 179.96875 175.039062 179.679688 175.402344 179.679688 175.515625 C 179.679688 175.628906 179.355469 176.109375 178.960938 176.585938 C 178.566406 177.058594 178.242188 177.554688 178.242188 177.6875 C 178.242188 177.820312 177.914062 178.296875 177.511719 178.75 C 177.109375 179.199219 176.601562 179.910156 176.382812 180.328125 C 176.164062 180.742188 175.878906 181.148438 175.75 181.226562 C 175.625 181.308594 175.308594 181.847656 175.050781 182.425781 C 174.792969 183.003906 174.304688 183.828125 173.964844 184.25 C 173.625 184.675781 173.289062 185.335938 173.214844 185.722656 C 173.144531 186.109375 172.941406 186.542969 172.765625 186.6875 C 172.335938 187.042969 171.652344 188.410156 171.652344 188.910156 C 171.652344 189.40625 170.941406 191.105469 170.65625 191.28125 C 170.542969 191.351562 170.34375 191.902344 170.21875 192.507812 C 170.050781 193.324219 169.785156 193.816406 169.175781 194.449219 C 168.726562 194.917969 168.359375 195.441406 168.359375 195.621094 C 168.359375 195.796875 168.078125 196.558594 167.738281 197.316406 C 167.335938 198.199219 167.011719 199.402344 166.832031 200.65625 C 166.648438 201.941406 166.328125 203.117188 165.902344 204.054688 C 165.484375 204.972656 165.175781 206.085938 165.042969 207.140625 C 164.929688 208.050781 164.714844 208.984375 164.5625 209.21875 C 164.113281 209.910156 163.488281 212.5625 163.222656 214.917969 C 163.082031 216.132812 162.792969 217.59375 162.578125 218.160156 C 162.292969 218.914062 162.183594 219.734375 162.179688 221.199219 C 162.179688 222.300781 162.089844 223.574219 161.984375 224.027344 C 161.875 224.480469 161.730469 226.191406 161.65625 227.835938 C 161.527344 230.613281 161.480469 230.882812 160.953125 231.746094 C 160.621094 232.285156 160.324219 233.128906 160.246094 233.773438 C 160.167969 234.378906 159.964844 235.292969 159.792969 235.804688 C 159.386719 237 159.546875 237.585938 160.382812 237.980469 C 160.957031 238.25 162.410156 238.289062 170.53125 238.261719 C 178.941406 238.230469 180.066406 238.191406 180.523438 237.890625 L 181.039062 237.550781 L 180.960938 229.039062 C 180.914062 223.757812 181.011719 216.816406 181.214844 210.75 C 181.550781 200.828125 181.824219 175.457031 181.609375 174.589844 C 181.449219 173.957031 181.09375 173.992188 180.320312 174.710938 M 109.113281 248.558594 C 108.722656 248.691406 108.324219 248.921875 108.226562 249.070312 C 108.039062 249.351562 108.050781 249.425781 108.53125 251.3125 C 108.691406 251.945312 108.886719 253.75 108.964844 255.328125 C 109.117188 258.515625 109.574219 261.320312 110.113281 262.410156 C 110.308594 262.808594 110.628906 263.621094 110.824219 264.222656 C 111.023438 264.820312 111.398438 265.699219 111.664062 266.175781 C 111.929688 266.652344 112.292969 267.738281 112.46875 268.585938 C 112.648438 269.433594 113.070312 270.675781 113.410156 271.34375 C 113.746094 272.007812 114.023438 272.769531 114.023438 273.03125 C 114.023438 273.664062 114.410156 274.539062 114.964844 275.171875 C 115.210938 275.457031 115.527344 276.035156 115.664062 276.464844 C 115.800781 276.890625 116.121094 277.492188 116.378906 277.800781 C 116.996094 278.546875 117.316406 279.175781 117.316406 279.648438 C 117.316406 279.863281 117.628906 280.402344 118.007812 280.847656 C 118.386719 281.292969 118.890625 282.03125 119.125 282.492188 C 119.359375 282.953125 119.710938 283.460938 119.902344 283.621094 C 120.097656 283.78125 120.425781 284.3125 120.632812 284.796875 C 120.84375 285.285156 121.28125 286.027344 121.609375 286.449219 C 121.941406 286.867188 122.265625 287.449219 122.332031 287.742188 C 122.445312 288.234375 123.054688 289.019531 124.488281 290.507812 C 124.8125 290.847656 125.253906 291.402344 125.464844 291.742188 C 125.957031 292.535156 129.589844 296.589844 130.160156 296.976562 C 130.398438 297.140625 131.34375 297.9375 132.261719 298.75 C 133.175781 299.558594 134.210938 300.390625 134.558594 300.597656 C 134.90625 300.800781 135.300781 301.171875 135.429688 301.417969 C 135.5625 301.664062 136.078125 302.0625 136.578125 302.304688 C 137.078125 302.546875 137.488281 302.839844 137.488281 302.953125 C 137.488281 303.0625 137.882812 303.355469 138.363281 303.601562 C 138.84375 303.847656 139.59375 304.351562 140.035156 304.726562 C 140.472656 305.101562 141.085938 305.460938 141.402344 305.53125 C 141.714844 305.601562 142.144531 305.847656 142.355469 306.078125 C 142.566406 306.3125 143.199219 306.734375 143.765625 307.023438 C 144.332031 307.308594 145.054688 307.757812 145.371094 308.023438 C 145.6875 308.289062 146.289062 308.597656 146.710938 308.710938 C 147.132812 308.824219 147.898438 309.183594 148.414062 309.511719 C 148.929688 309.839844 149.679688 310.214844 150.085938 310.347656 C 150.492188 310.480469 151.226562 310.855469 151.71875 311.175781 C 152.210938 311.5 153.171875 311.917969 153.851562 312.113281 C 154.53125 312.304688 155.269531 312.632812 155.496094 312.84375 C 155.722656 313.050781 156.882812 313.460938 158.070312 313.75 C 159.257812 314.039062 160.785156 314.503906 161.464844 314.785156 C 162.703125 315.296875 163.535156 315.410156 164.398438 315.179688 C 165.183594 314.96875 164.921875 314.242188 163.429688 312.496094 C 161.746094 310.523438 161.199219 309.816406 160.847656 309.132812 C 160.644531 308.738281 160.308594 308.292969 160.105469 308.148438 C 159.898438 308.003906 159.542969 307.460938 159.3125 306.941406 C 159.085938 306.425781 158.632812 305.699219 158.308594 305.332031 C 157.976562 304.953125 157.664062 304.304688 157.589844 303.84375 C 157.515625 303.390625 157.210938 302.660156 156.910156 302.21875 C 156.609375 301.777344 156.230469 300.90625 156.066406 300.28125 C 155.90625 299.660156 155.511719 298.734375 155.1875 298.222656 C 154.867188 297.714844 154.496094 296.882812 154.363281 296.371094 C 154.230469 295.863281 153.859375 294.984375 153.539062 294.417969 C 153.207031 293.835938 152.847656 292.761719 152.707031 291.945312 C 152.574219 291.15625 152.214844 289.996094 151.910156 289.375 C 151.605469 288.75 151.238281 287.6875 151.089844 287.007812 C 150.945312 286.328125 150.558594 285.367188 150.230469 284.867188 C 149.621094 283.9375 149.53125 283.597656 149.320312 281.394531 C 149.253906 280.683594 148.929688 279.285156 148.601562 278.289062 C 148.230469 277.164062 147.925781 275.660156 147.800781 274.332031 C 147.53125 271.472656 147.1875 269.527344 146.726562 268.277344 C 146.472656 267.582031 146.285156 266.210938 146.148438 264.058594 C 146.03125 262.1875 145.808594 260.441406 145.609375 259.839844 C 145.183594 258.550781 144.914062 256.140625 144.78125 252.429688 C 144.660156 249.015625 144.601562 248.6875 144.101562 248.527344 C 143.890625 248.460938 136.09375 248.386719 126.773438 248.359375 C 114.148438 248.324219 109.640625 248.375 109.113281 248.558594 M 160.316406 248.589844 C 160.003906 248.742188 159.6875 249.011719 159.621094 249.195312 C 159.550781 249.375 159.640625 250.457031 159.820312 251.59375 C 160 252.734375 160.234375 254.230469 160.34375 254.921875 C 160.453125 255.617188 160.539062 256.519531 160.539062 256.9375 C 160.539062 257.351562 160.761719 258.21875 161.03125 258.867188 C 161.472656 259.925781 161.535156 260.476562 161.664062 264.265625 C 161.878906 270.53125 162.035156 271.90625 162.667969 273.128906 C 162.964844 273.699219 163.3125 274.785156 163.441406 275.542969 C 163.570312 276.300781 163.898438 277.386719 164.171875 277.953125 C 164.445312 278.515625 164.851562 279.878906 165.074219 280.972656 C 165.300781 282.070312 165.71875 283.417969 166.007812 283.972656 C 166.335938 284.609375 166.628906 285.691406 166.804688 286.917969 C 167.09375 288.9375 167.363281 289.859375 167.726562 290.082031 C 167.84375 290.15625 168.128906 290.652344 168.367188 291.183594 C 168.601562 291.714844 169.027344 292.394531 169.3125 292.691406 C 169.652344 293.050781 169.925781 293.699219 170.121094 294.632812 C 170.28125 295.402344 170.640625 296.363281 170.917969 296.769531 C 171.199219 297.171875 171.542969 297.96875 171.6875 298.535156 C 171.832031 299.097656 172.195312 299.855469 172.5 300.210938 C 172.800781 300.570312 173.203125 301.324219 173.390625 301.886719 C 173.578125 302.449219 173.914062 303.078125 174.140625 303.28125 C 174.367188 303.484375 174.71875 304.035156 174.925781 304.5 C 175.132812 304.964844 175.574219 305.664062 175.910156 306.054688 C 176.246094 306.445312 176.636719 307.0625 176.78125 307.425781 C 176.929688 307.789062 177.261719 308.226562 177.523438 308.398438 C 177.789062 308.570312 178.066406 308.921875 178.144531 309.179688 C 178.222656 309.4375 178.519531 309.894531 178.804688 310.199219 C 179.089844 310.503906 179.425781 310.957031 179.550781 311.210938 C 179.808594 311.714844 180.421875 312.167969 180.601562 311.984375 C 180.800781 311.785156 180.734375 248.769531 180.535156 248.570312 C 180.433594 248.46875 176.019531 248.371094 170.617188 248.347656 C 162.847656 248.320312 160.769531 248.367188 160.316406 248.589844 M 191.324219 248.648438 L 190.773438 248.980469 L 190.789062 277.117188 C 190.804688 302.660156 190.773438 305.378906 190.464844 306.613281 C 190.207031 307.652344 190.160156 308.390625 190.269531 309.738281 C 190.347656 310.707031 190.410156 311.730469 190.402344 312.015625 C 190.382812 313.121094 190.566406 313.457031 191.203125 313.457031 C 191.621094 313.457031 191.917969 313.289062 192.175781 312.917969 C 192.378906 312.625 192.796875 312.105469 193.105469 311.761719 C 193.414062 311.421875 193.726562 310.945312 193.800781 310.703125 C 193.875 310.460938 194.339844 309.722656 194.835938 309.0625 C 195.332031 308.398438 195.734375 307.730469 195.734375 307.574219 C 195.734375 307.417969 195.957031 307.144531 196.230469 306.964844 C 196.503906 306.785156 196.867188 306.296875 197.035156 305.878906 C 197.203125 305.460938 197.621094 304.765625 197.96875 304.332031 C 198.3125 303.902344 198.703125 303.207031 198.835938 302.789062 C 198.96875 302.375 199.292969 301.800781 199.554688 301.519531 C 199.820312 301.234375 200.273438 300.46875 200.5625 299.8125 C 200.851562 299.160156 201.226562 298.570312 201.394531 298.503906 C 201.5625 298.441406 201.882812 297.796875 202.105469 297.074219 C 202.332031 296.347656 202.707031 295.496094 202.941406 295.179688 C 203.175781 294.859375 203.507812 294.058594 203.679688 293.402344 C 203.855469 292.742188 204.257812 291.726562 204.582031 291.148438 C 204.902344 290.570312 205.273438 289.539062 205.402344 288.859375 C 205.53125 288.179688 205.917969 287.058594 206.261719 286.367188 C 206.671875 285.535156 206.949219 284.558594 207.082031 283.484375 C 207.195312 282.59375 207.507812 281.351562 207.785156 280.730469 C 208.058594 280.105469 208.414062 279.089844 208.574219 278.464844 C 208.734375 277.84375 209.121094 276.886719 209.425781 276.34375 C 209.734375 275.796875 210.015625 274.964844 210.050781 274.492188 C 210.089844 274.015625 210.222656 272.75 210.347656 271.671875 C 210.472656 270.597656 210.648438 268.605469 210.730469 267.25 C 210.835938 265.578125 211 264.566406 211.238281 264.117188 C 211.433594 263.746094 211.679688 262.535156 211.800781 261.339844 C 211.921875 260.175781 212.117188 258.710938 212.242188 258.089844 C 212.363281 257.46875 212.492188 255.9375 212.527344 254.695312 C 212.566406 253.410156 212.742188 251.894531 212.9375 251.195312 C 213.515625 249.105469 213.515625 249.097656 212.992188 248.753906 C 212.578125 248.484375 211.039062 248.429688 202.191406 248.375 C 192.972656 248.320312 191.816406 248.347656 191.324219 248.648438 M 229.179688 248.867188 C 228.652344 249.492188 228.289062 252.089844 228.292969 255.222656 C 228.292969 256.191406 228.195312 257.351562 228.070312 257.796875 C 227.945312 258.238281 227.84375 259.167969 227.84375 259.855469 C 227.84375 261.585938 227.257812 264.824219 226.78125 265.769531 C 226.558594 266.203125 226.285156 267.359375 226.171875 268.34375 C 225.726562 272.167969 225.363281 274.324219 224.953125 275.597656 C 224.714844 276.324219 224.445312 277.675781 224.34375 278.597656 C 224.246094 279.519531 223.984375 280.726562 223.765625 281.273438 C 223.398438 282.179688 222.886719 284.378906 222.597656 286.300781 C 222.535156 286.707031 222.222656 287.453125 221.902344 287.957031 C 221.5625 288.492188 221.207031 289.472656 221.050781 290.300781 C 220.894531 291.128906 220.539062 292.109375 220.195312 292.648438 C 219.875 293.15625 219.609375 293.855469 219.609375 294.199219 C 219.605469 295.117188 219.210938 296.394531 218.746094 296.984375 C 218.265625 297.597656 217.757812 298.75 217.757812 299.234375 C 217.757812 299.421875 217.429688 300.082031 217.03125 300.703125 C 216.632812 301.320312 216.226562 302.128906 216.121094 302.496094 C 216.019531 302.867188 215.644531 303.535156 215.289062 303.988281 C 214.929688 304.4375 214.542969 305.15625 214.429688 305.582031 C 214.3125 306.007812 214.007812 306.585938 213.746094 306.867188 C 213.484375 307.152344 213.066406 307.867188 212.816406 308.453125 C 212.570312 309.042969 212.148438 309.664062 211.886719 309.835938 C 211.628906 310.007812 211.351562 310.429688 211.277344 310.773438 C 211.199219 311.117188 210.820312 311.777344 210.433594 312.242188 C 209.667969 313.160156 209.359375 313.988281 209.671875 314.300781 C 209.796875 314.425781 210.269531 314.308594 210.984375 313.976562 C 211.597656 313.691406 212.246094 313.457031 212.429688 313.457031 C 212.613281 313.457031 213.097656 313.1875 213.507812 312.863281 C 213.917969 312.539062 214.675781 312.164062 215.195312 312.035156 C 215.714844 311.902344 216.609375 311.472656 217.179688 311.082031 C 217.75 310.6875 218.398438 310.367188 218.617188 310.367188 C 219.109375 310.367188 219.730469 310.050781 220.492188 309.417969 C 220.8125 309.152344 221.445312 308.835938 221.90625 308.710938 C 222.367188 308.589844 222.945312 308.269531 223.195312 308 C 223.445312 307.730469 224.152344 307.3125 224.769531 307.074219 C 225.382812 306.832031 226.121094 306.425781 226.402344 306.171875 C 226.683594 305.917969 227.308594 305.539062 227.785156 305.335938 C 228.261719 305.128906 228.820312 304.777344 229.019531 304.554688 C 229.222656 304.332031 229.710938 303.984375 230.105469 303.777344 C 230.503906 303.574219 231.097656 303.121094 231.433594 302.773438 C 231.765625 302.421875 232.140625 302.136719 232.269531 302.136719 C 232.398438 302.136719 232.730469 301.890625 233.003906 301.597656 C 233.277344 301.300781 233.875 300.820312 234.328125 300.535156 C 236.636719 299.066406 241.429688 294.351562 244.101562 290.917969 C 244.613281 290.261719 245.375 289.335938 245.800781 288.859375 C 246.226562 288.382812 246.574219 287.875 246.574219 287.730469 C 246.574219 287.589844 246.851562 287.15625 247.1875 286.769531 C 247.527344 286.386719 248.003906 285.679688 248.246094 285.199219 C 248.488281 284.722656 248.953125 284.027344 249.277344 283.65625 C 249.601562 283.285156 249.867188 282.808594 249.867188 282.597656 C 249.867188 282.382812 250.234375 281.71875 250.6875 281.117188 C 251.140625 280.511719 251.511719 279.820312 251.511719 279.570312 C 251.511719 279.324219 251.832031 278.738281 252.226562 278.265625 C 252.816406 277.5625 253.359375 276.367188 253.363281 275.757812 C 253.363281 275.6875 253.6875 275.144531 254.085938 274.554688 C 254.480469 273.964844 254.804688 273.257812 254.804688 272.980469 C 254.804688 272.460938 255.21875 271.539062 255.851562 270.644531 C 256.050781 270.363281 256.324219 269.574219 256.453125 268.894531 C 256.585938 268.214844 256.910156 267.335938 257.171875 266.941406 C 257.632812 266.25 257.757812 265.878906 258.324219 263.542969 C 258.460938 262.976562 258.6875 262.375 258.832031 262.207031 C 259.328125 261.613281 259.5625 260.097656 259.738281 256.375 C 259.878906 253.347656 260 252.386719 260.363281 251.394531 C 261.039062 249.53125 261.097656 248.90625 260.617188 248.648438 C 260.351562 248.507812 255.058594 248.414062 244.929688 248.375 L 229.644531 248.3125 Z M 229.179688 248.867188 " fill-opacity="1" fill-rule="evenodd"/></svg>