<svg xmlns="http://www.w3.org/2000/svg" xmlns:xlink="http://www.w3.org/1999/xlink" width="500" zoomAndPan="magnify" viewBox="0 0 375 374.999991" height="500" preserveAspectRatio="xMidYMid meet" version="1.0"><path fill="#000000" d="M 248.0625 47.167969 C 247.925781 47.304688 247.8125 47.519531 247.8125 47.648438 C 247.8125 47.777344 247.464844 48.222656 247.042969 48.636719 C 246.609375 49.058594 246.179688 49.484375 245.753906 49.914062 C 245.1875 50.492188 244.429688 51.195312 241.847656 53.507812 C 239.605469 55.523438 234.847656 60.304688 234.847656 60.542969 C 234.847656 60.648438 233.359375 62.222656 231.542969 64.046875 C 229.726562 65.867188 228.136719 67.554688 228.011719 67.792969 C 227.714844 68.351562 226.476562 69.800781 224.605469 71.785156 C 223.785156 72.652344 223.113281 73.472656 223.113281 73.601562 C 223.113281 73.730469 222.765625 74.21875 222.34375 74.6875 C 220.957031 76.214844 220.09375 77.265625 219.539062 78.105469 C 219.242188 78.558594 218.535156 79.484375 217.972656 80.164062 C 217.40625 80.84375 216.792969 81.675781 216.609375 82.015625 C 216.425781 82.355469 216.011719 82.910156 215.6875 83.25 C 214.894531 84.085938 213.71875 85.585938 213.28125 86.324219 C 213.085938 86.65625 212.707031 87.15625 212.441406 87.433594 C 212.175781 87.714844 211.769531 88.273438 211.542969 88.683594 C 211.3125 89.089844 210.902344 89.703125 210.625 90.042969 C 209.308594 91.675781 208.675781 92.582031 208.324219 93.339844 C 208.113281 93.792969 207.78125 94.296875 207.585938 94.457031 C 207.394531 94.617188 207.0625 95.085938 206.851562 95.496094 C 206.644531 95.910156 206.140625 96.640625 205.734375 97.125 C 205.332031 97.609375 205 98.179688 205 98.390625 C 205 98.601562 204.734375 99.082031 204.410156 99.453125 C 204.085938 99.824219 203.570312 100.589844 203.269531 101.15625 C 202.964844 101.722656 202.421875 102.65625 202.058594 103.234375 C 200.757812 105.296875 200.15625 106.230469 199.707031 106.878906 C 199.457031 107.242188 198.960938 108.09375 198.601562 108.773438 C 198.242188 109.453125 197.683594 110.3125 197.359375 110.683594 C 197.03125 111.054688 196.765625 111.519531 196.765625 111.71875 C 196.765625 111.914062 196.40625 112.507812 195.96875 113.042969 C 195.527344 113.574219 195.105469 114.265625 195.027344 114.582031 C 194.949219 114.898438 194.625 115.433594 194.308594 115.773438 C 193.988281 116.113281 193.574219 116.867188 193.386719 117.449219 C 193.195312 118.03125 192.863281 118.71875 192.640625 118.976562 C 192.417969 119.230469 192.054688 120.050781 191.832031 120.796875 C 191.589844 121.613281 191.261719 122.253906 191.015625 122.410156 C 190.789062 122.550781 190.414062 123.035156 190.183594 123.484375 C 189.71875 124.398438 188.90625 125.039062 188.441406 124.859375 C 188.277344 124.796875 187.9375 124.347656 187.691406 123.859375 C 187.445312 123.375 186.976562 122.671875 186.652344 122.300781 C 186.328125 121.929688 186.0625 121.453125 186.0625 121.246094 C 186.0625 120.710938 185.527344 119.492188 185.160156 119.1875 C 184.988281 119.042969 184.703125 118.433594 184.53125 117.832031 C 184.355469 117.230469 183.886719 116.347656 183.492188 115.875 C 183.09375 115.398438 182.769531 114.839844 182.769531 114.632812 C 182.769531 114.425781 182.398438 113.824219 181.949219 113.300781 C 181.496094 112.777344 181.125 112.269531 181.125 112.167969 C 181.125 112.070312 180.753906 111.5625 180.300781 111.039062 C 179.847656 110.515625 179.476562 109.9375 179.476562 109.753906 C 179.476562 109.570312 179.15625 108.953125 178.757812 108.375 C 178.050781 107.347656 177.84375 106.980469 176.355469 104.195312 C 175.941406 103.417969 175.453125 102.65625 175.273438 102.507812 C 175.09375 102.359375 174.773438 101.855469 174.5625 101.386719 C 174.351562 100.921875 173.890625 100.179688 173.535156 99.738281 C 173.179688 99.300781 172.890625 98.855469 172.890625 98.753906 C 172.890625 98.652344 172.570312 98.25 172.179688 97.859375 C 171.785156 97.46875 171.367188 96.773438 171.242188 96.320312 C 171.121094 95.863281 170.757812 95.191406 170.4375 94.824219 C 170.113281 94.460938 169.703125 93.835938 169.523438 93.4375 C 169.339844 93.042969 168.726562 92.164062 168.15625 91.484375 C 167.585938 90.804688 166.808594 89.785156 166.425781 89.21875 C 166.042969 88.652344 165.488281 87.964844 165.195312 87.691406 C 164.898438 87.417969 164.65625 87.058594 164.65625 86.894531 C 164.65625 86.726562 164.355469 86.242188 163.988281 85.816406 C 163.363281 85.089844 162.71875 84.226562 161.632812 82.664062 C 160.988281 81.734375 159.957031 80.414062 158.945312 79.222656 C 158.464844 78.65625 158.070312 78.113281 158.070312 78.015625 C 158.070312 77.914062 157.328125 76.996094 156.425781 75.96875 C 155.519531 74.941406 154.777344 74.003906 154.777344 73.882812 C 154.777344 73.761719 154.476562 73.355469 154.109375 72.972656 C 153.742188 72.589844 152.929688 71.648438 152.308594 70.882812 C 150.996094 69.261719 148.128906 65.886719 147.707031 65.46875 C 147.164062 64.929688 146.625 64.390625 146.082031 63.847656 C 145.542969 63.308594 145.003906 62.769531 144.460938 62.230469 C 143.742188 61.527344 143.097656 60.878906 141.222656 58.960938 C 140.113281 57.828125 138.101562 55.890625 136.75 54.648438 C 135.402344 53.410156 133.441406 51.535156 132.394531 50.480469 C 131.351562 49.429688 130.414062 48.566406 130.316406 48.566406 C 130.21875 48.566406 129.84375 48.285156 129.488281 47.945312 C 128.949219 47.429688 128.765625 47.359375 128.425781 47.539062 C 128.179688 47.671875 128.019531 47.972656 128.019531 48.292969 C 128.019531 48.945312 128.988281 50.675781 129.910156 51.667969 C 130.53125 52.335938 131.246094 53.261719 132.492188 55.019531 C 132.742188 55.378906 133.230469 55.945312 133.574219 56.285156 C 133.914062 56.625 134.195312 57.015625 134.195312 57.148438 C 134.195312 57.28125 134.542969 57.808594 134.964844 58.320312 C 135.390625 58.828125 136.199219 59.863281 136.765625 60.621094 C 137.332031 61.375 138.097656 62.320312 138.464844 62.71875 C 138.832031 63.117188 139.132812 63.558594 139.132812 63.699219 C 139.132812 63.839844 139.394531 64.222656 139.714844 64.546875 C 140.035156 64.871094 140.550781 65.578125 140.855469 66.113281 C 141.164062 66.652344 141.5 67.09375 141.605469 67.09375 C 141.707031 67.09375 142.046875 67.53125 142.359375 68.070312 C 142.671875 68.609375 143.183594 69.292969 143.5 69.59375 C 143.816406 69.894531 144.074219 70.28125 144.074219 70.453125 C 144.074219 70.625 144.308594 71.042969 144.59375 71.382812 C 144.878906 71.722656 145.304688 72.445312 145.542969 72.992188 C 145.78125 73.539062 146.1875 74.21875 146.453125 74.503906 C 146.714844 74.785156 147.082031 75.480469 147.269531 76.046875 C 147.460938 76.613281 147.875 77.320312 148.195312 77.617188 C 148.515625 77.914062 148.878906 78.53125 149.003906 78.992188 C 149.125 79.449219 149.550781 80.210938 149.945312 80.683594 C 150.339844 81.152344 150.660156 81.738281 150.660156 81.984375 C 150.660156 82.226562 151.03125 82.972656 151.484375 83.636719 C 151.9375 84.304688 152.308594 85 152.308594 85.183594 C 152.308594 85.363281 152.679688 86.117188 153.128906 86.851562 C 153.582031 87.589844 153.953125 88.378906 153.953125 88.613281 C 153.953125 88.847656 154.277344 89.574219 154.671875 90.230469 C 155.066406 90.886719 155.480469 91.761719 155.59375 92.179688 C 155.707031 92.59375 156.066406 93.300781 156.394531 93.753906 C 156.75 94.238281 157.09375 95.074219 157.242188 95.804688 C 157.378906 96.484375 157.699219 97.367188 157.957031 97.761719 C 158.445312 98.515625 158.773438 99.324219 158.984375 100.289062 C 159.054688 100.601562 159.375 101.296875 159.703125 101.832031 C 160.027344 102.367188 160.402344 103.359375 160.535156 104.039062 C 160.664062 104.71875 161.042969 105.792969 161.375 106.429688 C 161.730469 107.117188 162.058594 108.171875 162.179688 109.035156 C 162.324219 110.035156 162.582031 110.796875 163.011719 111.492188 C 163.417969 112.140625 163.683594 112.894531 163.761719 113.621094 C 163.832031 114.238281 164.164062 115.320312 164.5 116.03125 C 164.898438 116.871094 165.214844 118.015625 165.410156 119.324219 C 165.589844 120.5625 165.898438 121.699219 166.207031 122.300781 C 166.507812 122.878906 166.832031 124.046875 167.003906 125.183594 C 167.160156 126.234375 167.476562 127.574219 167.699219 128.164062 C 167.925781 128.75 168.269531 130.09375 168.464844 131.148438 C 168.808594 133.003906 169.199219 134.390625 169.878906 136.195312 C 170.292969 137.285156 170.621094 140.105469 170.625 142.53125 C 170.625 144.191406 170.859375 146.046875 171.460938 149.117188 C 171.570312 149.683594 171.75 151.332031 171.859375 152.785156 C 172.046875 155.222656 172.492188 158.417969 172.789062 159.417969 C 172.886719 159.742188 172.691406 160.023438 171.925781 160.671875 C 170.679688 161.722656 169.933594 162.101562 168.820312 162.242188 C 168.335938 162.304688 167.496094 162.589844 166.953125 162.871094 C 166.339844 163.191406 165.304688 163.476562 164.230469 163.621094 C 163.277344 163.75 162.203125 163.898438 161.847656 163.953125 C 161.492188 164.007812 160.871094 164.3125 160.46875 164.632812 C 160.007812 165 159.253906 165.3125 158.441406 165.480469 C 157.726562 165.625 156.851562 165.964844 156.492188 166.230469 C 156.132812 166.496094 155.3125 166.847656 154.671875 167.015625 C 154.03125 167.183594 153.074219 167.585938 152.546875 167.90625 C 151.582031 168.496094 149.464844 168.980469 147.839844 168.980469 C 146.65625 168.980469 145.773438 168.246094 144.347656 166.074219 C 143.652344 165.011719 142.800781 163.863281 142.464844 163.523438 C 142.125 163.1875 141.789062 162.703125 141.714844 162.449219 C 141.640625 162.195312 141.246094 161.59375 140.839844 161.113281 C 140.4375 160.628906 139.980469 159.9375 139.828125 159.578125 C 139.675781 159.214844 139.367188 158.792969 139.140625 158.632812 C 138.914062 158.476562 138.597656 158.027344 138.433594 157.636719 C 138.273438 157.25 137.9375 156.746094 137.6875 156.523438 C 137.4375 156.296875 136.964844 155.578125 136.632812 154.921875 C 136.300781 154.265625 135.902344 153.679688 135.75 153.621094 C 135.59375 153.5625 135.351562 153.21875 135.210938 152.859375 C 135.066406 152.5 134.601562 151.742188 134.175781 151.175781 C 133.75 150.609375 133.335938 149.886719 133.257812 149.566406 C 133.179688 149.25 132.898438 148.847656 132.636719 148.675781 C 132.335938 148.480469 131.992188 147.867188 131.71875 147.039062 C 131.476562 146.3125 131.109375 145.628906 130.90625 145.519531 C 130.703125 145.410156 130.382812 144.929688 130.191406 144.453125 C 130 143.972656 129.570312 143.238281 129.234375 142.8125 C 128.898438 142.390625 128.519531 141.738281 128.390625 141.363281 C 128.265625 140.984375 127.953125 140.425781 127.699219 140.121094 C 127.445312 139.8125 127.074219 139.117188 126.878906 138.574219 C 126.679688 138.035156 126.308594 137.40625 126.050781 137.179688 C 125.761719 136.925781 125.449219 136.246094 125.242188 135.429688 C 125.054688 134.691406 124.683594 133.859375 124.417969 133.578125 C 124.15625 133.292969 123.792969 132.558594 123.613281 131.941406 C 123.429688 131.328125 123.097656 130.625 122.871094 130.382812 C 122.640625 130.140625 122.265625 129.402344 122.035156 128.746094 C 121.804688 128.085938 121.398438 127.261719 121.132812 126.910156 C 120.867188 126.558594 120.5 125.769531 120.324219 125.160156 C 120.144531 124.546875 119.726562 123.621094 119.394531 123.101562 C 119.0625 122.578125 118.632812 121.515625 118.441406 120.738281 C 118.25 119.960938 117.875 119 117.605469 118.605469 C 117.339844 118.214844 117.066406 117.554688 117 117.140625 C 116.777344 115.71875 116.433594 114.621094 116.066406 114.15625 C 115.867188 113.898438 115.546875 113.09375 115.359375 112.363281 C 115.171875 111.632812 114.808594 110.804688 114.554688 110.523438 C 113.867188 109.761719 113.65625 108.996094 113.53125 106.757812 C 113.425781 104.945312 113.339844 104.609375 112.6875 103.445312 C 112.289062 102.730469 111.964844 102.007812 111.964844 101.835938 C 111.964844 101.664062 111.777344 101.28125 111.546875 100.988281 C 110.957031 100.242188 110.550781 98.761719 110.402344 96.835938 C 110.308594 95.636719 110.109375 94.847656 109.675781 93.9375 C 109.214844 92.964844 109.03125 92.183594 108.863281 90.4375 C 108.742188 89.203125 108.457031 87.554688 108.230469 86.78125 C 108.003906 86.007812 107.867188 85.246094 107.925781 85.089844 C 107.988281 84.933594 107.902344 84.363281 107.738281 83.820312 C 107.574219 83.28125 107.4375 82.125 107.4375 81.257812 C 107.433594 79.292969 106.941406 76.84375 106.398438 76.101562 C 105.703125 75.148438 105.410156 73.351562 105.164062 68.539062 C 104.972656 64.871094 104.84375 63.710938 104.527344 62.914062 C 104.3125 62.359375 104.066406 61.4375 103.984375 60.863281 C 103.851562 59.960938 103.757812 59.792969 103.285156 59.667969 C 102.597656 59.484375 101.851562 59.84375 101.53125 60.511719 C 101.191406 61.21875 101.117188 70.191406 101.328125 84.589844 C 101.488281 95.382812 101.527344 96.28125 101.894531 97.117188 C 102.113281 97.613281 102.289062 98.308594 102.289062 98.664062 C 102.289062 99.019531 102.386719 99.632812 102.507812 100.027344 C 102.765625 100.875 103.046875 103.933594 103.308594 108.71875 C 103.410156 110.613281 103.5625 112.269531 103.640625 112.398438 C 103.722656 112.527344 103.863281 113.527344 103.957031 114.613281 C 104.046875 115.703125 104.226562 117.753906 104.347656 119.167969 C 104.46875 120.582031 104.609375 122.464844 104.65625 123.355469 C 104.730469 124.707031 104.839844 125.113281 105.34375 125.875 C 105.707031 126.417969 106.085938 127.421875 106.292969 128.378906 C 106.484375 129.253906 106.71875 130.296875 106.820312 130.695312 C 106.917969 131.089844 107.101562 132.164062 107.222656 133.082031 C 107.347656 134 107.539062 135.066406 107.648438 135.449219 C 107.757812 135.832031 107.847656 136.472656 107.847656 136.871094 C 107.847656 137.265625 108.042969 138.238281 108.277344 139.03125 C 109.039062 141.578125 109.292969 142.894531 109.460938 145.136719 C 109.601562 147.007812 109.703125 147.457031 110.167969 148.15625 C 110.46875 148.609375 110.84375 149.539062 111 150.222656 C 111.183594 151.015625 111.507812 151.71875 111.898438 152.160156 C 112.234375 152.542969 112.628906 153.285156 112.777344 153.8125 C 113.011719 154.652344 113.003906 154.835938 112.707031 155.289062 C 112.476562 155.640625 112.183594 155.804688 111.804688 155.796875 C 111.21875 155.785156 108.617188 155.105469 106.507812 154.414062 C 105.832031 154.191406 104.757812 153.910156 104.128906 153.792969 C 103.496094 153.675781 102.628906 153.34375 102.203125 153.050781 C 101.773438 152.761719 101.085938 152.476562 100.675781 152.414062 C 99.480469 152.242188 97.773438 151.78125 96.21875 151.203125 C 95.289062 150.859375 94.351562 150.667969 93.578125 150.664062 C 92.6875 150.660156 91.84375 150.453125 90.285156 149.855469 C 89.039062 149.378906 87.523438 148.96875 86.542969 148.84375 C 85.496094 148.710938 84.417969 148.40625 83.585938 148.015625 C 82.777344 147.628906 81.757812 147.339844 80.910156 147.253906 C 80.160156 147.175781 79.082031 146.902344 78.515625 146.644531 C 77.324219 146.101562 75.832031 145.832031 72.238281 145.515625 C 70.722656 145.378906 69.242188 145.125 68.636719 144.894531 C 68.070312 144.675781 66.820312 144.402344 65.855469 144.28125 C 64.894531 144.164062 63.738281 143.976562 63.285156 143.867188 C 62.832031 143.761719 61.792969 143.667969 60.976562 143.667969 C 60.035156 143.664062 59.09375 143.515625 58.402344 143.265625 C 57.042969 142.769531 55.089844 142.488281 51.140625 142.226562 C 49.441406 142.113281 47.730469 141.925781 47.332031 141.8125 C 46.9375 141.699219 45.710938 141.605469 44.605469 141.605469 C 43.5 141.605469 41.691406 141.472656 40.589844 141.3125 C 39.3125 141.125 35.632812 140.96875 30.441406 140.878906 C 22.960938 140.746094 22.269531 140.761719 21.949219 141.082031 C 21.757812 141.273438 21.601562 141.652344 21.601562 141.925781 C 21.601562 142.734375 22.257812 143.203125 23.59375 143.347656 C 26.554688 143.675781 27.925781 143.933594 28.5 144.273438 C 29.144531 144.660156 32.691406 145.460938 34.980469 145.738281 C 35.71875 145.828125 36.691406 145.996094 37.144531 146.109375 C 37.597656 146.222656 38.914062 146.457031 40.066406 146.628906 C 41.414062 146.828125 42.523438 147.128906 43.15625 147.460938 C 43.703125 147.746094 44.640625 148.070312 45.246094 148.183594 C 45.851562 148.300781 46.777344 148.621094 47.300781 148.902344 C 47.855469 149.195312 49.21875 149.585938 50.539062 149.832031 C 51.789062 150.0625 53.296875 150.480469 53.882812 150.765625 C 54.46875 151.046875 55.617188 151.375 56.429688 151.488281 C 57.445312 151.632812 58.207031 151.886719 58.847656 152.292969 C 59.363281 152.621094 60.375 153.035156 61.097656 153.214844 C 61.816406 153.398438 62.664062 153.761719 62.980469 154.027344 C 63.320312 154.3125 64.082031 154.613281 64.859375 154.761719 C 65.578125 154.902344 66.652344 155.285156 67.25 155.621094 C 67.847656 155.953125 68.773438 156.375 69.308594 156.554688 C 69.84375 156.738281 70.652344 157.140625 71.105469 157.453125 C 71.558594 157.765625 72.394531 158.136719 72.957031 158.28125 C 73.523438 158.425781 74.21875 158.753906 74.503906 159.011719 C 74.785156 159.265625 75.539062 159.628906 76.175781 159.808594 C 76.8125 159.992188 77.496094 160.320312 77.691406 160.539062 C 77.890625 160.757812 78.511719 161.089844 79.074219 161.273438 C 79.636719 161.460938 80.390625 161.867188 80.746094 162.171875 C 81.105469 162.476562 81.859375 162.898438 82.425781 163.105469 C 82.992188 163.3125 83.820312 163.746094 84.269531 164.070312 C 84.714844 164.394531 85.234375 164.65625 85.421875 164.65625 C 85.613281 164.65625 86.125 164.949219 86.566406 165.300781 C 87.007812 165.65625 87.777344 166.132812 88.28125 166.359375 C 88.785156 166.585938 89.34375 166.941406 89.519531 167.144531 C 89.691406 167.351562 90.347656 167.71875 90.96875 167.957031 C 91.589844 168.195312 92.332031 168.605469 92.617188 168.867188 C 92.898438 169.132812 93.335938 169.40625 93.585938 169.480469 C 93.835938 169.558594 94.476562 169.980469 95.011719 170.421875 C 95.546875 170.867188 96.234375 171.28125 96.539062 171.347656 C 96.84375 171.417969 97.3125 171.707031 97.582031 171.992188 C 97.851562 172.277344 98.488281 172.691406 99.003906 172.914062 C 99.515625 173.132812 100.195312 173.589844 100.511719 173.925781 C 100.832031 174.261719 101.265625 174.539062 101.484375 174.539062 C 101.699219 174.539062 102.226562 174.84375 102.648438 175.21875 C 103.074219 175.59375 103.863281 176.15625 104.398438 176.464844 C 104.9375 176.773438 105.378906 177.101562 105.378906 177.199219 C 105.378906 177.296875 105.816406 177.578125 106.355469 177.824219 C 106.894531 178.074219 107.476562 178.460938 107.652344 178.6875 C 107.828125 178.910156 108.300781 179.296875 108.703125 179.542969 C 109.765625 180.195312 111.3125 181.332031 112.183594 182.101562 C 112.597656 182.46875 113.082031 182.769531 113.257812 182.769531 C 113.429688 182.769531 113.800781 183.039062 114.074219 183.363281 C 114.347656 183.691406 114.980469 184.214844 115.480469 184.53125 C 116.644531 185.261719 117.773438 186.15625 118.851562 187.195312 C 119.320312 187.648438 120.277344 188.542969 120.980469 189.183594 C 121.679688 189.824219 122.253906 190.503906 122.253906 190.699219 C 122.253906 191.089844 121.507812 192.101562 120.378906 193.238281 C 119.96875 193.652344 119.445312 194.363281 119.210938 194.824219 C 118.976562 195.285156 118.632812 195.792969 118.441406 195.949219 C 118.25 196.105469 117.882812 196.714844 117.625 197.296875 C 117.367188 197.882812 117.050781 198.425781 116.925781 198.503906 C 116.796875 198.582031 116.5 199.035156 116.261719 199.507812 C 116.023438 199.980469 115.578125 200.648438 115.269531 200.988281 C 114.960938 201.328125 114.542969 202.046875 114.34375 202.589844 C 114.144531 203.132812 113.769531 203.828125 113.507812 204.140625 C 113.246094 204.449219 112.933594 205.082031 112.808594 205.542969 C 112.683594 206.007812 112.300781 206.738281 111.957031 207.167969 C 111.617188 207.597656 111.285156 208.191406 111.222656 208.484375 C 111.019531 209.417969 110.667969 210.1875 110.179688 210.765625 C 109.90625 211.089844 109.582031 211.910156 109.421875 212.671875 C 109.269531 213.410156 108.960938 214.277344 108.738281 214.601562 C 108.140625 215.464844 107.886719 216.25 107.671875 217.886719 C 107.546875 218.832031 107.296875 219.640625 106.964844 220.164062 C 106.679688 220.613281 106.300781 221.5625 106.117188 222.273438 C 105.9375 222.984375 105.613281 223.8125 105.398438 224.113281 C 104.859375 224.871094 104.550781 226.136719 104.476562 227.898438 C 104.394531 229.878906 103.972656 233.390625 103.617188 235.050781 C 103.410156 236.023438 103.324219 238.367188 103.296875 243.59375 C 103.261719 249.847656 103.300781 250.917969 103.597656 251.699219 C 103.800781 252.234375 103.9375 253.207031 103.9375 254.105469 C 103.9375 254.933594 104.035156 255.871094 104.15625 256.1875 C 104.277344 256.507812 104.414062 257.507812 104.460938 258.414062 C 104.574219 260.527344 104.894531 261.890625 105.394531 262.339844 C 105.613281 262.539062 105.980469 263.328125 106.207031 264.097656 C 106.4375 264.867188 106.71875 265.558594 106.835938 265.628906 C 107.171875 265.835938 107.445312 266.714844 107.738281 268.503906 C 107.886719 269.414062 108.292969 270.785156 108.640625 271.550781 C 108.988281 272.316406 109.367188 273.464844 109.484375 274.105469 C 109.605469 274.742188 109.875 275.457031 110.085938 275.691406 C 110.589844 276.242188 111.054688 277.183594 111.230469 278 C 111.308594 278.355469 111.539062 278.796875 111.742188 278.984375 C 112.136719 279.339844 112.683594 280.503906 112.871094 281.382812 C 112.933594 281.675781 113.265625 282.265625 113.605469 282.695312 C 113.949219 283.125 114.320312 283.824219 114.433594 284.242188 C 114.546875 284.664062 114.875 285.261719 115.160156 285.570312 C 115.445312 285.878906 115.910156 286.585938 116.191406 287.144531 C 116.472656 287.699219 116.800781 288.15625 116.917969 288.15625 C 117.035156 288.15625 117.308594 288.554688 117.527344 289.042969 C 117.742188 289.53125 118.105469 290.101562 118.335938 290.308594 C 118.566406 290.519531 119 291.113281 119.304688 291.636719 C 119.609375 292.15625 120.027344 292.703125 120.234375 292.855469 C 120.445312 293.003906 120.796875 293.484375 121.023438 293.925781 C 121.25 294.367188 121.625 294.832031 121.863281 294.960938 C 122.097656 295.085938 122.398438 295.4375 122.53125 295.746094 C 122.953125 296.734375 124.125 298.046875 128.238281 302.148438 C 132.332031 306.234375 133.835938 307.585938 134.878906 308.117188 C 135.199219 308.28125 135.550781 308.582031 135.65625 308.785156 C 135.765625 308.984375 136.199219 309.328125 136.621094 309.542969 C 137.039062 309.757812 137.570312 310.136719 137.796875 310.386719 C 138.023438 310.636719 138.578125 311.03125 139.03125 311.261719 C 139.484375 311.488281 140.160156 311.941406 140.53125 312.265625 C 140.902344 312.59375 141.332031 312.855469 141.484375 312.855469 C 141.640625 312.855469 142.199219 313.214844 142.726562 313.652344 C 143.253906 314.089844 144.042969 314.554688 144.476562 314.683594 C 144.910156 314.8125 145.320312 315.0625 145.386719 315.238281 C 145.453125 315.410156 146.042969 315.792969 146.695312 316.085938 C 147.347656 316.378906 148.113281 316.824219 148.398438 317.078125 C 148.679688 317.332031 149.421875 317.703125 150.042969 317.902344 C 150.664062 318.097656 151.359375 318.421875 151.585938 318.621094 C 152.160156 319.121094 152.660156 319.34375 153.851562 319.632812 C 154.417969 319.773438 155.066406 320.058594 155.296875 320.273438 C 155.527344 320.488281 156.3125 320.8125 157.046875 321 C 157.78125 321.183594 158.882812 321.613281 159.5 321.957031 C 160.203125 322.347656 161.097656 322.640625 161.886719 322.738281 C 162.582031 322.824219 163.605469 323.109375 164.160156 323.367188 C 165.550781 324.015625 167.65625 324.332031 171.65625 324.492188 C 173.523438 324.566406 175.46875 324.75 175.976562 324.902344 C 176.488281 325.058594 177.371094 325.175781 177.941406 325.171875 C 178.515625 325.164062 179.628906 325.316406 180.421875 325.507812 C 181.683594 325.816406 182.835938 325.847656 189.878906 325.769531 C 196.714844 325.695312 198.050781 325.632812 198.929688 325.335938 C 199.496094 325.144531 200.167969 325.039062 200.425781 325.101562 C 200.679688 325.164062 201.421875 325.078125 202.070312 324.910156 C 202.71875 324.742188 204.78125 324.503906 206.648438 324.382812 C 210.332031 324.140625 211.671875 323.9375 213.484375 323.335938 C 214.132812 323.121094 215.277344 322.855469 216.027344 322.75 C 216.882812 322.628906 217.675781 322.367188 218.144531 322.050781 C 218.875 321.558594 219.382812 321.367188 221.242188 320.878906 C 221.742188 320.75 222.394531 320.460938 222.695312 320.238281 C 222.996094 320.019531 223.789062 319.695312 224.464844 319.519531 C 225.136719 319.347656 225.917969 318.988281 226.203125 318.726562 C 226.484375 318.464844 227.179688 318.09375 227.746094 317.90625 C 228.3125 317.71875 229.007812 317.351562 229.289062 317.085938 C 229.570312 316.824219 230.265625 316.410156 230.832031 316.164062 C 231.398438 315.917969 232.09375 315.496094 232.375 315.226562 C 232.660156 314.960938 233.167969 314.675781 233.507812 314.597656 C 233.847656 314.519531 234.46875 314.1875 234.890625 313.859375 C 235.3125 313.527344 236.054688 313.089844 236.539062 312.878906 C 237.023438 312.671875 237.605469 312.292969 237.832031 312.039062 C 238.058594 311.785156 238.675781 311.355469 239.207031 311.089844 C 239.742188 310.820312 240.25 310.472656 240.339844 310.320312 C 240.433594 310.164062 240.785156 309.867188 241.125 309.65625 C 241.464844 309.445312 242.089844 308.96875 242.515625 308.59375 C 242.9375 308.222656 243.386719 307.917969 243.507812 307.917969 C 243.796875 307.917969 248.53125 303.523438 250.386719 301.535156 C 251.179688 300.6875 252.90625 298.882812 254.222656 297.523438 C 255.539062 296.164062 256.78125 294.726562 256.976562 294.332031 C 257.175781 293.9375 257.464844 293.539062 257.621094 293.445312 C 257.871094 293.300781 258.386719 292.59375 259.808594 290.453125 C 260.0625 290.074219 260.558594 289.425781 260.914062 289.011719 C 261.265625 288.597656 261.707031 287.90625 261.886719 287.46875 C 262.070312 287.035156 262.445312 286.40625 262.726562 286.074219 C 263.007812 285.742188 263.324219 285.140625 263.4375 284.742188 C 263.546875 284.34375 263.960938 283.65625 264.359375 283.21875 C 264.789062 282.742188 265.136719 282.101562 265.21875 281.632812 C 265.296875 281.203125 265.566406 280.617188 265.816406 280.335938 C 266.070312 280.050781 266.484375 279.25 266.738281 278.546875 C 266.992188 277.847656 267.375 277.121094 267.585938 276.929688 C 267.941406 276.605469 268.140625 276.09375 268.820312 273.75 C 268.96875 273.238281 269.296875 272.453125 269.550781 272 C 269.804688 271.546875 270.078125 270.714844 270.15625 270.148438 C 270.238281 269.582031 270.609375 268.515625 270.980469 267.78125 C 271.394531 266.96875 271.71875 265.957031 271.808594 265.207031 C 271.890625 264.527344 272.210938 263.460938 272.523438 262.839844 C 273.015625 261.863281 273.140625 261.214844 273.445312 258.105469 C 273.636719 256.125 273.941406 254.039062 274.121094 253.472656 C 274.355469 252.730469 274.460938 251.394531 274.503906 248.636719 C 274.535156 246.542969 274.570312 244.503906 274.582031 244.109375 C 274.65625 241.835938 274.324219 234.355469 274.128906 233.871094 C 273.882812 233.265625 273.730469 231.972656 273.347656 227.332031 C 273.125 224.664062 273.0625 224.386719 272.5 223.59375 C 272.070312 222.988281 271.808594 222.257812 271.609375 221.121094 C 271.449219 220.226562 271.085938 219.101562 270.792969 218.585938 C 270.480469 218.046875 270.203125 217.160156 270.125 216.464844 C 270.046875 215.769531 269.800781 214.992188 269.542969 214.609375 C 268.933594 213.710938 268.820312 213.378906 268.488281 211.496094 C 268.265625 210.25 268.0625 209.714844 267.625 209.234375 C 267.308594 208.886719 266.875 208.277344 266.660156 207.882812 C 266.445312 207.484375 266.007812 206.859375 265.6875 206.484375 C 265.359375 206.105469 265.101562 205.5625 265.101562 205.25 C 265.097656 204.945312 264.867188 204.320312 264.589844 203.867188 C 264.308594 203.414062 263.890625 202.65625 263.660156 202.179688 C 263.429688 201.703125 263.023438 201.054688 262.757812 200.738281 C 262.496094 200.421875 262.082031 199.777344 261.839844 199.300781 C 261.601562 198.828125 261.21875 198.3125 260.992188 198.152344 C 260.765625 197.996094 260.445312 197.476562 260.277344 197.007812 C 260.113281 196.535156 259.648438 195.71875 259.246094 195.191406 C 258.84375 194.667969 258.515625 194.109375 258.515625 193.953125 C 258.515625 193.800781 257.824219 192.890625 256.972656 191.9375 C 256.125 190.980469 255.429688 190.023438 255.429688 189.804688 C 255.429688 189.394531 256.667969 188.144531 257.523438 187.699219 C 257.785156 187.558594 258.375 187.085938 258.824219 186.644531 C 260.378906 185.136719 260.734375 184.828125 261.230469 184.570312 C 261.859375 184.246094 263.234375 183.101562 265.441406 181.074219 C 266.394531 180.195312 267.261719 179.476562 267.367188 179.476562 C 267.472656 179.476562 268.050781 179.0625 268.648438 178.558594 C 270.742188 176.789062 271.179688 176.445312 271.691406 176.179688 C 271.972656 176.03125 272.917969 175.28125 273.789062 174.515625 C 274.660156 173.746094 275.648438 172.976562 275.988281 172.800781 C 276.328125 172.625 276.734375 172.296875 276.890625 172.074219 C 277.050781 171.847656 277.535156 171.515625 277.972656 171.332031 C 278.40625 171.148438 279.140625 170.6875 279.601562 170.304688 C 280.0625 169.917969 280.882812 169.234375 281.429688 168.777344 C 281.972656 168.324219 282.550781 167.949219 282.707031 167.949219 C 282.867188 167.949219 283.300781 167.683594 283.671875 167.355469 C 284.046875 167.03125 284.710938 166.613281 285.148438 166.429688 C 285.589844 166.246094 286.308594 165.773438 286.746094 165.375 C 287.183594 164.980469 287.714844 164.65625 287.929688 164.65625 C 288.144531 164.65625 288.761719 164.289062 289.304688 163.84375 C 289.847656 163.394531 290.542969 162.972656 290.851562 162.902344 C 291.15625 162.835938 291.578125 162.589844 291.789062 162.359375 C 292 162.125 292.679688 161.664062 293.304688 161.332031 C 293.925781 161.003906 294.75 160.503906 295.132812 160.222656 C 295.519531 159.945312 295.988281 159.71875 296.179688 159.71875 C 296.367188 159.71875 296.980469 159.390625 297.539062 158.992188 C 298.09375 158.59375 298.886719 158.179688 299.296875 158.066406 C 299.707031 157.953125 300.390625 157.585938 300.816406 157.246094 C 301.242188 156.910156 301.949219 156.535156 302.386719 156.417969 C 302.824219 156.300781 303.34375 156.03125 303.542969 155.824219 C 304 155.347656 304.945312 154.867188 305.792969 154.6875 C 306.152344 154.609375 306.5625 154.40625 306.707031 154.234375 C 307.066406 153.796875 308.292969 153.210938 309.183594 153.050781 C 309.59375 152.976562 310.273438 152.640625 310.691406 152.308594 C 311.492188 151.675781 311.679688 151.597656 312.886719 151.394531 C 313.300781 151.324219 313.996094 151.027344 314.429688 150.730469 C 314.863281 150.4375 315.804688 150.035156 316.519531 149.835938 C 317.234375 149.636719 318.023438 149.289062 318.273438 149.066406 C 318.773438 148.617188 319.882812 148.191406 320.5625 148.191406 C 320.804688 148.191406 321.507812 147.863281 322.125 147.464844 C 322.746094 147.0625 323.460938 146.691406 323.714844 146.640625 C 323.96875 146.585938 324.394531 146.5 324.65625 146.445312 C 324.917969 146.390625 325.492188 146.105469 325.929688 145.808594 C 326.570312 145.375 327.097656 145.234375 328.679688 145.085938 C 330.207031 144.941406 330.796875 144.792969 331.367188 144.402344 C 332.332031 143.746094 333.859375 143.253906 334.941406 143.242188 C 335.417969 143.238281 336.316406 143.050781 336.941406 142.820312 C 339.144531 142.011719 339.878906 141.816406 341.457031 141.617188 C 342.335938 141.507812 343.460938 141.269531 343.957031 141.085938 C 345.441406 140.539062 346.179688 140.386719 348.824219 140.066406 C 351.332031 139.765625 352.402344 139.421875 352.742188 138.816406 C 352.839844 138.640625 353.46875 138.355469 354.140625 138.179688 C 354.8125 138.003906 355.476562 137.765625 355.621094 137.648438 C 356.027344 137.3125 355.917969 136.699219 355.386719 136.351562 C 354.953125 136.070312 354.363281 136.054688 350.394531 136.242188 C 345.34375 136.476562 344.214844 136.574219 341.589844 136.984375 C 340.578125 137.144531 338.125 137.324219 336.132812 137.390625 C 330.9375 137.558594 328.382812 137.851562 327.265625 138.410156 C 326.757812 138.664062 325.875 138.933594 325.308594 139.007812 C 322.945312 139.316406 320.273438 139.8125 318.84375 140.207031 C 318 140.441406 316.378906 140.707031 315.238281 140.796875 C 314.097656 140.890625 312.101562 141.195312 310.800781 141.472656 C 308.167969 142.039062 307.011719 142.273438 305.035156 142.648438 C 304.300781 142.785156 303.605469 142.972656 303.488281 143.058594 C 303.226562 143.261719 300.144531 144.074219 299.640625 144.074219 C 299.433594 144.074219 298.59375 144.347656 297.773438 144.679688 C 296.855469 145.054688 295.4375 145.402344 294.046875 145.597656 C 292.496094 145.8125 291.421875 146.09375 290.550781 146.507812 C 289.855469 146.835938 288.839844 147.214844 288.289062 147.347656 C 287.738281 147.480469 286.765625 147.851562 286.125 148.171875 C 285.488281 148.492188 284.320312 148.863281 283.527344 149 C 282.734375 149.132812 281.484375 149.511719 280.746094 149.839844 C 280.011719 150.171875 278.878906 150.53125 278.234375 150.644531 C 277.585938 150.757812 276.523438 151.125 275.867188 151.460938 C 275.210938 151.796875 274.140625 152.167969 273.492188 152.285156 C 272.269531 152.507812 271.75 152.71875 270.867188 153.371094 C 270.582031 153.582031 269.75 153.851562 269.015625 153.976562 C 268.277344 154.101562 267.351562 154.414062 266.957031 154.675781 C 266.558594 154.933594 265.867188 155.261719 265.414062 155.398438 C 264.859375 155.570312 264.308594 155.75 263.757812 155.933594 C 262.679688 156.300781 262.292969 156.292969 262.140625 155.890625 C 261.890625 155.242188 262.027344 154.445312 262.558594 153.445312 C 262.886719 152.832031 263.171875 151.855469 263.28125 150.980469 C 263.488281 149.324219 263.941406 146.828125 264.257812 145.617188 C 264.828125 143.417969 265.109375 141.566406 265.089844 140.164062 C 265.074219 139.3125 265.152344 137.277344 265.257812 135.632812 C 265.441406 132.894531 265.507812 132.546875 266.101562 131.390625 C 266.460938 130.695312 266.75 129.992188 266.75 129.828125 C 266.75 129.542969 267.09375 128.515625 267.902344 126.371094 C 268.25 125.445312 268.371094 123.835938 268.777344 114.742188 C 268.871094 112.703125 269.050781 110.78125 269.179688 110.46875 C 269.5 109.707031 269.578125 77.746094 269.265625 76.257812 C 269.132812 75.617188 269.117188 74.824219 269.230469 74.132812 C 269.359375 73.332031 269.332031 72.792969 269.128906 72.171875 C 268.675781 70.796875 268.582031 69.855469 268.421875 65.203125 C 268.257812 60.4375 268.109375 59.785156 267.066406 59.3125 C 266.472656 59.042969 265.734375 58.992188 265.214844 59.191406 C 264.378906 59.515625 264.332031 60.019531 264.195312 70.179688 C 264.0625 80.320312 263.878906 83.117188 263.230469 84.941406 C 263.019531 85.535156 262.753906 86.644531 262.636719 87.414062 C 262.328125 89.421875 261.808594 91.769531 261.460938 92.707031 C 261.296875 93.152344 261.074219 94.625 260.964844 95.980469 C 260.84375 97.480469 260.601562 98.890625 260.347656 99.59375 C 260.117188 100.226562 259.789062 101.488281 259.621094 102.394531 C 259.421875 103.457031 259.210938 104.523438 258.992188 105.582031 C 258.816406 106.433594 258.625 107.496094 258.570312 107.949219 C 258.515625 108.402344 258.386719 108.875 258.289062 109 C 258.1875 109.128906 257.917969 109.773438 257.6875 110.441406 C 257.457031 111.105469 257.046875 111.972656 256.773438 112.371094 C 256.410156 112.902344 256.214844 113.59375 256.046875 114.949219 C 255.886719 116.230469 255.621094 117.203125 255.1875 118.109375 C 254.84375 118.828125 254.433594 119.953125 254.28125 120.609375 C 254.128906 121.265625 253.773438 122.140625 253.496094 122.550781 C 253.21875 122.960938 252.933594 123.597656 252.863281 123.960938 C 252.566406 125.515625 252.238281 126.519531 251.804688 127.195312 C 251.546875 127.589844 251.222656 128.378906 251.085938 128.945312 C 250.945312 129.511719 250.523438 130.621094 250.144531 131.410156 C 249.769531 132.199219 249.460938 133.011719 249.460938 133.21875 C 249.460938 133.671875 248.933594 134.757812 248.433594 135.324219 C 248.234375 135.550781 247.910156 136.265625 247.714844 136.90625 C 247.515625 137.550781 247.132812 138.285156 246.863281 138.539062 C 246.59375 138.792969 246.375 139.105469 246.375 139.234375 C 246.375 139.816406 245.707031 141.636719 245.375 141.964844 C 245.171875 142.160156 244.800781 142.878906 244.546875 143.558594 C 244.292969 144.238281 243.871094 145.027344 243.613281 145.308594 C 243.351562 145.59375 243.019531 146.277344 242.867188 146.835938 C 242.71875 147.390625 242.347656 148.132812 242.042969 148.480469 C 241.742188 148.832031 241.378906 149.464844 241.242188 149.886719 C 241.101562 150.3125 240.671875 151.039062 240.285156 151.503906 C 239.898438 151.964844 239.582031 152.546875 239.582031 152.792969 C 239.582031 153.039062 239.210938 153.6875 238.757812 154.238281 C 238.226562 154.882812 237.933594 155.441406 237.933594 155.816406 C 237.933594 156.199219 237.65625 156.71875 237.128906 157.328125 C 236.6875 157.839844 236.265625 158.527344 236.191406 158.855469 C 236.121094 159.183594 235.792969 159.710938 235.464844 160.027344 C 235.136719 160.339844 234.8125 160.851562 234.742188 161.164062 C 234.675781 161.472656 234.304688 162.09375 233.917969 162.546875 C 233.53125 162.996094 233.09375 163.722656 232.941406 164.164062 C 232.476562 165.507812 230.386719 168.210938 229.433594 168.703125 C 228.578125 169.144531 227.574219 168.945312 225.683594 167.949219 C 224.824219 167.496094 223.867188 167.128906 223.550781 167.128906 C 223.207031 167.128906 222.507812 166.792969 221.824219 166.304688 C 221.191406 165.851562 220.507812 165.480469 220.300781 165.480469 C 220.09375 165.480469 219.285156 165.15625 218.5 164.761719 C 217.410156 164.210938 216.574219 163.976562 214.898438 163.738281 C 212.527344 163.402344 211.488281 163.152344 211.074219 162.804688 C 210.925781 162.679688 210.183594 162.402344 209.425781 162.1875 C 208.667969 161.96875 207.90625 161.671875 207.730469 161.527344 C 207.554688 161.378906 206.9375 161.023438 206.359375 160.730469 C 205.667969 160.378906 205.191406 159.964844 204.960938 159.511719 C 204.617188 158.84375 204.621094 158.804688 205.203125 157.679688 C 205.855469 156.40625 206.234375 154.355469 206.234375 152.089844 C 206.234375 151.214844 206.367188 150.347656 206.566406 149.882812 C 206.945312 149.011719 207.160156 147.476562 207.480469 143.351562 C 207.601562 141.769531 207.835938 139.996094 208 139.410156 C 208.160156 138.828125 208.292969 138.105469 208.292969 137.804688 C 208.292969 137.503906 208.445312 136.972656 208.628906 136.617188 C 208.8125 136.261719 209.046875 135.269531 209.148438 134.414062 C 209.25 133.558594 209.550781 132.160156 209.816406 131.3125 C 210.410156 129.410156 210.6875 128.160156 210.964844 126.167969 C 211.082031 125.316406 211.414062 123.929688 211.699219 123.078125 C 211.988281 122.230469 212.308594 120.8125 212.410156 119.929688 C 212.53125 118.917969 212.863281 117.695312 213.308594 116.636719 C 213.695312 115.707031 214.113281 114.640625 214.238281 114.265625 C 214.359375 113.886719 214.675781 113.320312 214.941406 113.003906 C 215.339844 112.53125 215.46875 112.019531 215.679688 110.085938 C 215.894531 108.089844 216.023438 107.605469 216.539062 106.796875 C 216.875 106.277344 217.324219 105.183594 217.539062 104.367188 C 217.753906 103.550781 218.074219 102.722656 218.25 102.527344 C 218.425781 102.332031 218.75 101.589844 218.972656 100.875 C 219.195312 100.164062 219.515625 99.425781 219.683594 99.238281 C 219.851562 99.046875 220.230469 98.089844 220.53125 97.105469 C 220.828125 96.121094 221.253906 95.101562 221.472656 94.839844 C 221.691406 94.578125 222.066406 93.714844 222.308594 92.925781 C 222.546875 92.132812 222.949219 91.25 223.203125 90.96875 C 223.460938 90.6875 223.820312 89.90625 224.003906 89.238281 C 224.1875 88.570312 224.523438 87.824219 224.75 87.582031 C 224.980469 87.339844 225.351562 86.605469 225.574219 85.953125 C 225.800781 85.300781 226.203125 84.503906 226.472656 84.1875 C 226.738281 83.867188 227.078125 83.15625 227.226562 82.605469 C 227.375 82.054688 227.75 81.324219 228.058594 80.984375 C 228.367188 80.644531 228.78125 79.882812 228.972656 79.289062 C 229.164062 78.695312 229.5 78.082031 229.714844 77.933594 C 229.929688 77.78125 230.246094 77.261719 230.414062 76.78125 C 230.585938 76.300781 230.992188 75.566406 231.320312 75.152344 C 231.648438 74.738281 232.066406 74.042969 232.25 73.605469 C 232.429688 73.167969 232.851562 72.5 233.179688 72.125 C 233.511719 71.75 233.847656 71.226562 233.929688 70.964844 C 234.011719 70.703125 234.390625 70.140625 234.769531 69.714844 C 235.152344 69.292969 235.464844 68.820312 235.464844 68.671875 C 235.464844 68.519531 235.703125 68.175781 236 67.898438 C 236.292969 67.625 236.667969 67.140625 236.832031 66.824219 C 237 66.503906 237.453125 65.890625 237.839844 65.460938 C 238.230469 65.03125 238.679688 64.363281 238.84375 63.976562 C 239.003906 63.589844 239.324219 63.105469 239.558594 62.894531 C 239.792969 62.683594 240.179688 62.097656 240.425781 61.59375 C 240.667969 61.089844 240.996094 60.628906 241.15625 60.566406 C 241.316406 60.507812 241.671875 60.070312 241.945312 59.601562 C 242.222656 59.128906 242.730469 58.472656 243.074219 58.144531 C 243.417969 57.816406 243.699219 57.417969 243.699219 57.257812 C 243.699219 57.097656 243.957031 56.71875 244.269531 56.421875 C 244.585938 56.121094 245.085938 55.457031 245.382812 54.949219 C 245.679688 54.4375 246.128906 53.789062 246.378906 53.507812 C 246.628906 53.222656 247.054688 52.644531 247.328125 52.222656 C 247.597656 51.796875 247.910156 51.449219 248.019531 51.449219 C 248.128906 51.449219 248.40625 51.082031 248.636719 50.628906 C 248.863281 50.179688 249.320312 49.671875 249.644531 49.503906 C 250.292969 49.167969 250.488281 48.816406 250.488281 47.972656 C 250.488281 47.199219 250.136719 46.921875 249.152344 46.921875 C 248.6875 46.921875 248.195312 47.03125 248.0625 47.167969 M 186.589844 76.808594 C 185.914062 76.914062 185.113281 77.179688 184.8125 77.398438 C 184.507812 77.613281 183.816406 77.980469 183.273438 78.210938 C 182.359375 78.605469 181.957031 78.898438 179.832031 80.726562 C 179.402344 81.097656 178.859375 81.769531 178.617188 82.222656 C 178.378906 82.675781 177.960938 83.332031 177.695312 83.6875 C 177.425781 84.039062 177.066406 84.875 176.898438 85.539062 C 176.730469 86.207031 176.335938 87.257812 176.027344 87.882812 L 175.464844 89.011719 L 175.464844 98.480469 L 176.234375 99.964844 C 176.660156 100.777344 177.007812 101.558594 177.007812 101.695312 C 177.007812 102.226562 179.316406 105.777344 180.503906 107.074219 C 181.644531 108.316406 181.859375 108.457031 182.929688 108.675781 C 183.578125 108.804688 184.714844 109.136719 185.453125 109.410156 C 187.234375 110.070312 190.992188 110.125 192.570312 109.519531 C 193.125 109.308594 194.132812 109.03125 194.8125 108.90625 C 195.933594 108.703125 196.152344 108.574219 197.191406 107.480469 C 198.800781 105.785156 199.859375 104.199219 201.207031 101.464844 L 202.375 99.097656 L 202.570312 96.128906 C 202.804688 92.554688 202.539062 88.953125 201.945312 87.632812 C 201.726562 87.144531 201.375 86.238281 201.164062 85.617188 C 200.308594 83.085938 196.671875 78.929688 194.632812 78.164062 C 194.054688 77.941406 193.375 77.574219 193.125 77.34375 C 192.324219 76.597656 189.390625 76.359375 186.589844 76.808594 M 284.007812 116.59375 C 283.949219 116.652344 283.496094 116.785156 282.996094 116.890625 C 280.804688 117.355469 278.761719 118.007812 278.378906 118.355469 C 278.152344 118.566406 277.429688 118.972656 276.777344 119.261719 C 276.121094 119.550781 275.535156 119.929688 275.464844 120.105469 C 275.398438 120.277344 274.890625 120.652344 274.332031 120.933594 C 273.710938 121.25 273.109375 121.765625 272.765625 122.28125 C 272.457031 122.742188 271.949219 123.402344 271.640625 123.746094 C 271.328125 124.09375 270.980469 124.714844 270.871094 125.128906 C 270.757812 125.542969 270.394531 126.292969 270.066406 126.796875 C 269.734375 127.296875 269.355469 128.128906 269.226562 128.636719 C 269.09375 129.144531 268.738281 130.164062 268.4375 130.902344 C 267.933594 132.136719 267.890625 132.46875 267.886719 135.222656 C 267.882812 138.050781 267.910156 138.269531 268.441406 139.363281 C 268.75 140 269.085938 140.898438 269.1875 141.359375 C 269.292969 141.824219 269.714844 142.59375 270.121094 143.074219 C 270.53125 143.550781 270.867188 144.054688 270.867188 144.191406 C 270.867188 144.445312 271.9375 145.46875 272.785156 146.023438 C 274.25 146.984375 280.738281 147.269531 284.707031 146.546875 C 286.457031 146.230469 287.25 145.964844 288.515625 145.273438 C 289.394531 144.792969 290.226562 144.289062 290.367188 144.148438 C 290.511719 144.011719 290.832031 143.730469 291.089844 143.523438 C 291.945312 142.832031 294.484375 139.863281 294.933594 139.03125 C 295.179688 138.578125 295.605469 137.894531 295.882812 137.507812 C 296.164062 137.125 296.390625 136.546875 296.390625 136.222656 C 296.390625 135.902344 296.574219 135.152344 296.800781 134.554688 C 297.027344 133.960938 297.214844 133.277344 297.214844 133.035156 C 297.214844 132.792969 297.351562 132.265625 297.523438 131.859375 C 297.738281 131.347656 297.828125 130.410156 297.824219 128.796875 C 297.820312 126.753906 297.757812 126.351562 297.3125 125.445312 C 297.03125 124.878906 296.691406 123.878906 296.554688 123.226562 C 296.363281 122.3125 296.085938 121.773438 295.371094 120.933594 C 292.980469 118.121094 291.285156 117.183594 287.734375 116.722656 C 285.882812 116.480469 284.179688 116.421875 284.007812 116.59375 M 86.441406 117.128906 C 86.15625 117.246094 85.242188 117.472656 84.402344 117.632812 C 83.566406 117.792969 82.726562 118.0625 82.542969 118.230469 C 82.355469 118.402344 81.597656 118.8125 80.859375 119.148438 C 79.644531 119.699219 78 121.113281 78 121.609375 C 78 121.707031 77.730469 122.128906 77.394531 122.550781 C 77.0625 122.96875 76.644531 123.753906 76.464844 124.296875 C 76.285156 124.835938 75.953125 125.636719 75.730469 126.074219 C 75.390625 126.746094 75.324219 127.289062 75.324219 129.511719 C 75.324219 131.894531 75.375 132.246094 75.824219 133.132812 C 76.097656 133.675781 76.429688 134.714844 76.558594 135.441406 C 76.6875 136.171875 77.015625 137.089844 77.285156 137.488281 C 77.550781 137.882812 77.949219 138.625 78.167969 139.136719 C 78.414062 139.710938 79.191406 140.6875 80.222656 141.707031 C 82.945312 144.410156 83.25 144.667969 84.210938 145.09375 C 84.71875 145.320312 85.367188 145.683594 85.648438 145.90625 C 85.933594 146.128906 86.757812 146.453125 87.484375 146.625 C 89.296875 147.054688 90.714844 147.609375 91.667969 148.261719 C 92.191406 148.621094 92.738281 148.808594 93.257812 148.808594 C 94.40625 148.808594 97.132812 148.011719 97.859375 147.464844 C 98.203125 147.207031 98.929688 146.847656 99.476562 146.664062 C 100.023438 146.480469 100.808594 146.070312 101.226562 145.753906 C 101.726562 145.371094 102.230469 144.996094 102.734375 144.625 C 103.207031 144.285156 103.585938 143.785156 103.738281 143.304688 C 103.875 142.878906 104.21875 142.019531 104.5 141.398438 C 105.441406 139.320312 105.574219 135.890625 104.90625 130.902344 C 104.628906 128.832031 104.070312 127.570312 102.992188 126.566406 C 102.699219 126.289062 102.285156 125.730469 102.074219 125.324219 C 101.867188 124.914062 101.460938 124.429688 101.171875 124.238281 C 100.882812 124.050781 100.515625 123.59375 100.355469 123.230469 C 100.089844 122.609375 99.257812 121.703125 97.585938 120.214844 C 97.207031 119.875 96.375 119.445312 95.742188 119.261719 C 95.109375 119.078125 94.386719 118.765625 94.136719 118.570312 C 93.890625 118.375 93.191406 118.105469 92.585938 117.96875 C 91.769531 117.785156 90.957031 117.59375 90.144531 117.394531 C 88.367188 116.960938 87.070312 116.867188 86.441406 117.128906 M 169.070312 170.433594 C 168.488281 171.078125 164.671875 172.890625 163.902344 172.890625 C 162.742188 172.890625 161.082031 173.324219 160.335938 173.820312 C 159.9375 174.085938 159.058594 174.402344 158.378906 174.523438 C 157.699219 174.644531 156.914062 174.917969 156.628906 175.125 C 155.832031 175.710938 154.839844 176.183594 154.402344 176.183594 C 154.1875 176.183594 153.464844 176.554688 152.796875 177.007812 C 152.132812 177.460938 151.417969 177.828125 151.210938 177.832031 C 151.003906 177.832031 150.554688 178.113281 150.210938 178.457031 C 149.867188 178.800781 149.246094 179.253906 148.835938 179.464844 C 148.425781 179.675781 147.726562 180.136719 147.289062 180.484375 C 146.847656 180.835938 146.363281 181.125 146.214844 181.125 C 146.0625 181.125 145.636719 181.390625 145.265625 181.714844 C 144.894531 182.039062 144.171875 182.511719 143.664062 182.769531 C 143.152344 183.027344 142.390625 183.527344 141.972656 183.878906 C 141.554688 184.230469 140.785156 184.84375 140.265625 185.242188 C 138.316406 186.730469 136.871094 188.074219 133.4375 191.597656 C 131.492188 193.59375 129.621094 195.503906 129.277344 195.84375 C 128.9375 196.183594 128.539062 196.742188 128.390625 197.085938 C 128.242188 197.429688 127.820312 198.078125 127.457031 198.527344 C 125.53125 200.875 125.15625 201.398438 125.035156 201.890625 C 124.960938 202.1875 124.683594 202.660156 124.414062 202.941406 C 124.144531 203.226562 123.769531 203.828125 123.582031 204.28125 C 123.390625 204.734375 122.925781 205.453125 122.539062 205.875 C 122.15625 206.300781 121.84375 206.867188 121.84375 207.132812 C 121.84375 207.402344 121.472656 208.164062 121.019531 208.832031 C 120.570312 209.5 120.199219 210.1875 120.199219 210.363281 C 120.199219 210.539062 119.90625 211.140625 119.550781 211.703125 C 118.917969 212.699219 118.699219 213.222656 118.46875 214.28125 C 118.40625 214.574219 118.089844 215.144531 117.765625 215.554688 C 117.332031 216.097656 117.109375 216.699219 116.925781 217.800781 C 116.777344 218.703125 116.4375 219.734375 116.078125 220.371094 C 115.746094 220.957031 115.367188 221.882812 115.234375 222.429688 C 115.101562 222.976562 114.734375 223.976562 114.414062 224.65625 C 113.902344 225.746094 113.808594 226.269531 113.617188 229.082031 C 113.320312 233.46875 113.035156 235.417969 112.535156 236.410156 C 112.257812 236.960938 112.15625 237.4375 112.242188 237.78125 C 112.363281 238.265625 112.496094 238.324219 113.765625 238.449219 C 114.527344 238.523438 121.835938 238.628906 130 238.675781 C 142.367188 238.75 145.054688 238.714844 146.101562 238.472656 C 146.796875 238.308594 147.53125 238.222656 147.734375 238.273438 C 147.9375 238.328125 148.347656 238.179688 148.644531 237.945312 C 149.160156 237.539062 149.191406 237.410156 149.285156 235.101562 C 149.402344 232.296875 149.734375 229.007812 149.925781 228.691406 C 150.125 228.375 150.425781 225.699219 150.644531 222.394531 C 150.757812 220.644531 150.96875 219.148438 151.175781 218.585938 C 151.628906 217.371094 152.292969 214.171875 152.304688 213.132812 C 152.3125 212.679688 152.550781 211.429688 152.835938 210.351562 C 153.117188 209.277344 153.53125 207.078125 153.746094 205.464844 C 154.132812 202.613281 154.316406 201.960938 154.910156 201.273438 C 155.070312 201.09375 155.324219 200.351562 155.472656 199.621094 C 155.625 198.894531 156.035156 197.792969 156.378906 197.171875 C 156.777344 196.460938 157.0625 195.59375 157.15625 194.8125 C 157.304688 193.550781 157.5 193.078125 158.386719 191.847656 C 158.675781 191.449219 158.894531 190.863281 158.894531 190.480469 C 158.894531 190.0625 159.152344 189.441406 159.59375 188.800781 C 160.011719 188.191406 160.390625 187.296875 160.542969 186.566406 C 160.703125 185.789062 161.003906 185.109375 161.363281 184.695312 C 161.683594 184.332031 162.042969 183.570312 162.1875 182.945312 C 162.328125 182.339844 162.65625 181.613281 162.917969 181.328125 C 163.175781 181.046875 163.550781 180.398438 163.746094 179.890625 C 163.941406 179.378906 164.347656 178.683594 164.648438 178.34375 C 164.949219 178.003906 165.316406 177.453125 165.460938 177.113281 C 165.792969 176.332031 166.816406 175.109375 168.824219 173.089844 C 170.347656 171.558594 170.972656 170.605469 170.71875 170.199219 C 170.503906 169.851562 169.460938 170.003906 169.070312 170.433594 M 214.304688 173.136719 C 213.867188 173.578125 214.039062 174.125 214.878906 174.949219 C 215.332031 175.394531 215.703125 175.875 215.707031 176.019531 C 215.707031 176.167969 216.035156 176.699219 216.433594 177.199219 C 216.832031 177.703125 217.335938 178.511719 217.550781 179 C 217.769531 179.488281 218.039062 179.890625 218.15625 179.890625 C 218.273438 179.890625 218.6875 180.582031 219.082031 181.433594 C 219.472656 182.28125 219.890625 182.976562 220.007812 182.976562 C 220.125 182.976562 220.371094 183.492188 220.554688 184.121094 C 220.738281 184.753906 221.140625 185.5625 221.453125 185.921875 C 221.761719 186.285156 222.179688 187.089844 222.375 187.710938 C 222.570312 188.332031 222.960938 189.175781 223.234375 189.578125 C 223.53125 190.011719 223.863281 190.976562 224.046875 191.933594 C 224.21875 192.828125 224.574219 193.929688 224.835938 194.390625 C 225.101562 194.847656 225.421875 195.769531 225.550781 196.4375 C 225.683594 197.105469 226.03125 198.078125 226.328125 198.597656 C 226.679688 199.21875 226.996094 200.304688 227.25 201.753906 C 227.480469 203.082031 227.84375 204.359375 228.15625 204.964844 C 228.507812 205.636719 228.75 206.546875 228.882812 207.71875 C 228.992188 208.683594 229.226562 209.878906 229.402344 210.375 C 229.894531 211.765625 230.3125 214.125 230.527344 216.734375 C 230.667969 218.480469 230.851562 219.398438 231.222656 220.230469 C 231.753906 221.4375 232.378906 225.480469 232.378906 227.746094 C 232.378906 228.425781 232.503906 229.445312 232.65625 230.011719 C 232.851562 230.75 232.902344 231.957031 232.832031 234.28125 L 232.734375 237.519531 L 233.472656 237.828125 C 234.113281 238.097656 236.34375 238.140625 249.402344 238.136719 C 261.191406 238.132812 264.703125 238.074219 265.105469 237.875 C 265.8125 237.519531 265.847656 236.785156 265.238281 235.222656 C 264.742188 233.949219 264.6875 233.566406 264.078125 226.972656 C 263.921875 225.285156 263.75 224.511719 263.34375 223.710938 C 263.050781 223.132812 262.714844 222.089844 262.597656 221.394531 C 262.480469 220.699219 262.164062 219.785156 261.898438 219.367188 C 261.628906 218.949219 261.230469 217.953125 261.015625 217.152344 C 260.800781 216.351562 260.390625 215.351562 260.105469 214.929688 C 259.820312 214.507812 259.429688 213.605469 259.242188 212.925781 C 259.050781 212.246094 258.6875 211.457031 258.433594 211.175781 C 258.175781 210.894531 257.855469 210.265625 257.71875 209.78125 C 257.582031 209.300781 257.210938 208.605469 256.890625 208.238281 C 256.574219 207.871094 256.203125 207.238281 256.070312 206.828125 C 255.9375 206.417969 255.503906 205.628906 255.113281 205.078125 C 254.722656 204.527344 254.402344 203.929688 254.402344 203.75 C 254.402344 203.574219 254.089844 203.0625 253.710938 202.621094 C 253.328125 202.175781 252.828125 201.441406 252.597656 200.988281 C 252.367188 200.535156 251.9375 199.9375 251.640625 199.664062 C 251.347656 199.390625 251.105469 199.03125 251.105469 198.863281 C 251.105469 198.699219 250.761719 198.160156 250.335938 197.667969 C 249.910156 197.179688 248.730469 195.792969 247.710938 194.589844 C 244.925781 191.296875 240.472656 186.953125 238.921875 186.007812 C 238.582031 185.800781 238.074219 185.363281 237.800781 185.035156 C 237.523438 184.707031 237.09375 184.378906 236.84375 184.300781 C 236.59375 184.226562 236.160156 183.949219 235.875 183.6875 C 235.59375 183.425781 234.90625 183.015625 234.351562 182.777344 C 233.796875 182.539062 233.03125 182.070312 232.648438 181.734375 C 232.265625 181.398438 231.824219 181.125 231.667969 181.125 C 231.511719 181.125 230.984375 180.785156 230.492188 180.375 C 230 179.964844 229.214844 179.460938 228.746094 179.261719 C 228.277344 179.058594 227.824219 178.785156 227.742188 178.648438 C 227.65625 178.511719 227.074219 178.175781 226.445312 177.894531 C 225.816406 177.617188 225.03125 177.164062 224.707031 176.890625 C 224.378906 176.613281 223.871094 176.328125 223.578125 176.253906 C 223.285156 176.183594 222.515625 175.824219 221.871094 175.460938 C 221.226562 175.097656 220.21875 174.683594 219.632812 174.542969 C 219.042969 174.398438 218.3125 174.074219 218.003906 173.816406 C 217.050781 173.011719 214.835938 172.605469 214.304688 173.136719 M 195.730469 173.238281 C 195.726562 173.328125 195.691406 182.621094 195.648438 193.886719 C 195.609375 205.148438 195.511719 218.070312 195.429688 222.597656 C 195.351562 227.128906 195.351562 232.34375 195.429688 234.1875 C 195.574219 237.464844 195.589844 237.550781 196.089844 237.878906 C 196.546875 238.175781 197.648438 238.21875 205.792969 238.230469 C 215.109375 238.242188 217.117188 238.136719 217.644531 237.613281 C 217.96875 237.289062 217.898438 234.65625 217.535156 233.519531 C 217.351562 232.933594 216.925781 230.238281 216.214844 225.117188 C 216.03125 223.789062 215.78125 222.398438 215.664062 222.03125 C 215.542969 221.664062 215.371094 220.253906 215.277344 218.894531 C 214.90625 213.578125 214.570312 211.292969 214.003906 210.277344 C 213.710938 209.753906 213.363281 208.808594 213.230469 208.179688 C 213.101562 207.546875 212.753906 206.507812 212.460938 205.867188 C 212.167969 205.230469 211.808594 203.972656 211.667969 203.078125 C 211.523438 202.1875 211.171875 200.976562 210.886719 200.390625 C 210.601562 199.804688 210.226562 198.679688 210.058594 197.890625 C 209.597656 195.757812 209.375 195.101562 208.941406 194.625 C 208.726562 194.386719 208.433594 193.691406 208.289062 193.078125 C 208.148438 192.464844 207.765625 191.585938 207.441406 191.125 C 207.117188 190.660156 206.773438 189.835938 206.671875 189.289062 C 206.5625 188.691406 206.277344 188.078125 205.960938 187.746094 C 205.671875 187.445312 205.25 186.777344 205.023438 186.265625 C 204.796875 185.75 204.378906 185.113281 204.097656 184.847656 C 203.8125 184.582031 203.523438 184.097656 203.449219 183.773438 C 203.378906 183.445312 202.957031 182.695312 202.515625 182.105469 C 202.070312 181.515625 201.707031 180.875 201.707031 180.683594 C 201.707031 180.492188 201.425781 180.074219 201.082031 179.753906 C 200.738281 179.429688 200.238281 178.796875 199.972656 178.34375 C 199.703125 177.890625 199.28125 177.335938 199.03125 177.109375 C 198.597656 176.71875 198.367188 176.355469 197.167969 174.160156 C 196.828125 173.542969 196.480469 173.175781 196.1875 173.132812 C 195.941406 173.097656 195.734375 173.144531 195.730469 173.238281 M 184.851562 174.722656 C 184.5 175.050781 184.210938 175.414062 184.210938 175.527344 C 184.210938 175.640625 183.886719 176.121094 183.492188 176.59375 C 183.09375 177.070312 182.769531 177.566406 182.769531 177.699219 C 182.769531 177.832031 182.441406 178.308594 182.042969 178.757812 C 181.640625 179.210938 181.132812 179.921875 180.914062 180.339844 C 180.691406 180.753906 180.40625 181.160156 180.28125 181.238281 C 180.152344 181.316406 179.835938 181.855469 179.578125 182.4375 C 179.320312 183.015625 178.832031 183.839844 178.492188 184.261719 C 178.152344 184.6875 177.816406 185.347656 177.746094 185.734375 C 177.671875 186.121094 177.46875 186.554688 177.296875 186.699219 C 176.867188 187.054688 176.183594 188.421875 176.183594 188.921875 C 176.183594 189.417969 175.46875 191.117188 175.1875 191.292969 C 175.070312 191.363281 174.875 191.914062 174.75 192.519531 C 174.578125 193.335938 174.316406 193.828125 173.707031 194.460938 C 173.257812 194.929688 172.890625 195.457031 172.890625 195.632812 C 172.890625 195.808594 172.609375 196.574219 172.265625 197.332031 C 171.867188 198.210938 171.539062 199.414062 171.363281 200.671875 C 171.179688 201.957031 170.855469 203.128906 170.429688 204.066406 C 170.015625 204.984375 169.707031 206.097656 169.574219 207.15625 C 169.460938 208.066406 169.246094 209 169.09375 209.230469 C 168.640625 209.925781 168.015625 212.574219 167.75 214.929688 C 167.613281 216.148438 167.324219 217.609375 167.109375 218.175781 C 166.820312 218.929688 166.714844 219.75 166.710938 221.210938 C 166.707031 222.316406 166.617188 223.585938 166.511719 224.039062 C 166.40625 224.492188 166.257812 226.207031 166.183594 227.847656 C 166.058594 230.625 166.011719 230.898438 165.480469 231.757812 C 165.148438 232.300781 164.855469 233.144531 164.773438 233.789062 C 164.699219 234.394531 164.496094 235.308594 164.320312 235.820312 C 163.917969 237.011719 164.078125 237.601562 164.914062 237.992188 C 165.488281 238.265625 166.9375 238.304688 175.0625 238.277344 C 183.46875 238.246094 184.597656 238.203125 185.054688 237.90625 L 185.570312 237.566406 L 185.492188 229.054688 C 185.445312 223.773438 185.539062 216.832031 185.746094 210.765625 C 186.082031 200.839844 186.355469 175.46875 186.136719 174.601562 C 185.980469 173.96875 185.621094 174.003906 184.851562 174.722656 M 113.640625 248.574219 C 113.25 248.707031 112.851562 248.9375 112.75 249.085938 C 112.566406 249.367188 112.574219 249.441406 113.058594 251.328125 C 113.21875 251.960938 113.414062 253.765625 113.488281 255.34375 C 113.644531 258.53125 114.097656 261.335938 114.640625 262.429688 C 114.835938 262.824219 115.15625 263.640625 115.351562 264.238281 C 115.546875 264.835938 115.925781 265.71875 116.191406 266.195312 C 116.457031 266.667969 116.820312 267.753906 116.996094 268.601562 C 117.171875 269.453125 117.597656 270.691406 117.933594 271.359375 C 118.273438 272.027344 118.550781 272.785156 118.550781 273.046875 C 118.550781 273.679688 118.933594 274.554688 119.492188 275.191406 C 119.738281 275.472656 120.054688 276.054688 120.191406 276.480469 C 120.328125 276.910156 120.648438 277.511719 120.90625 277.820312 C 121.523438 278.5625 121.84375 279.195312 121.84375 279.667969 C 121.84375 279.882812 122.15625 280.417969 122.535156 280.863281 C 122.914062 281.308594 123.417969 282.050781 123.652344 282.511719 C 123.886719 282.972656 124.238281 283.480469 124.429688 283.640625 C 124.625 283.800781 124.953125 284.328125 125.160156 284.816406 C 125.371094 285.300781 125.808594 286.042969 126.136719 286.464844 C 126.464844 286.886719 126.789062 287.46875 126.855469 287.761719 C 126.972656 288.253906 127.582031 289.035156 129.015625 290.523438 C 129.339844 290.863281 129.78125 291.417969 129.992188 291.757812 C 130.484375 292.554688 134.117188 296.609375 134.6875 296.996094 C 134.925781 297.160156 135.871094 297.957031 136.789062 298.769531 C 137.703125 299.578125 138.738281 300.410156 139.085938 300.613281 C 139.433594 300.820312 139.828125 301.191406 139.957031 301.4375 C 140.089844 301.683594 140.605469 302.082031 141.105469 302.324219 C 141.605469 302.566406 142.015625 302.859375 142.015625 302.96875 C 142.015625 303.082031 142.410156 303.375 142.890625 303.621094 C 143.371094 303.863281 144.125 304.371094 144.5625 304.746094 C 145 305.121094 145.613281 305.480469 145.929688 305.550781 C 146.242188 305.621094 146.671875 305.867188 146.882812 306.097656 C 147.09375 306.332031 147.726562 306.753906 148.292969 307.039062 C 148.859375 307.328125 149.582031 307.777344 149.898438 308.042969 C 150.214844 308.308594 150.816406 308.617188 151.238281 308.730469 C 151.660156 308.84375 152.425781 309.203125 152.941406 309.53125 C 153.457031 309.855469 154.210938 310.234375 154.613281 310.367188 C 155.019531 310.5 155.753906 310.875 156.246094 311.195312 C 156.742188 311.519531 157.699219 311.9375 158.378906 312.132812 C 159.058594 312.324219 159.800781 312.652344 160.027344 312.863281 C 160.253906 313.070312 161.410156 313.480469 162.597656 313.769531 C 163.789062 314.058594 165.316406 314.523438 165.996094 314.804688 C 167.234375 315.320312 168.0625 315.429688 168.929688 315.199219 C 169.714844 314.988281 169.453125 314.261719 167.960938 312.515625 C 166.273438 310.542969 165.730469 309.835938 165.378906 309.152344 C 165.175781 308.757812 164.839844 308.3125 164.632812 308.167969 C 164.425781 308.023438 164.070312 307.480469 163.84375 306.960938 C 163.613281 306.445312 163.160156 305.71875 162.835938 305.351562 C 162.503906 304.972656 162.191406 304.324219 162.117188 303.863281 C 162.046875 303.410156 161.738281 302.679688 161.4375 302.238281 C 161.136719 301.796875 160.757812 300.925781 160.597656 300.300781 C 160.433594 299.679688 160.039062 298.753906 159.71875 298.242188 C 159.398438 297.734375 159.027344 296.898438 158.894531 296.390625 C 158.761719 295.882812 158.386719 295 158.066406 294.433594 C 157.738281 293.855469 157.375 292.777344 157.238281 291.964844 C 157.101562 291.171875 156.742188 290.015625 156.4375 289.390625 C 156.136719 288.769531 155.765625 287.703125 155.621094 287.023438 C 155.472656 286.347656 155.085938 285.382812 154.757812 284.886719 C 154.148438 283.953125 154.0625 283.617188 153.851562 281.410156 C 153.78125 280.699219 153.457031 279.300781 153.128906 278.304688 C 152.757812 277.179688 152.453125 275.675781 152.328125 274.347656 C 152.058594 271.492188 151.714844 269.542969 151.257812 268.292969 C 151 267.601562 150.8125 266.226562 150.675781 264.074219 C 150.558594 262.203125 150.335938 260.457031 150.136719 259.855469 C 149.710938 258.566406 149.445312 256.15625 149.308594 252.445312 C 149.1875 249.027344 149.132812 248.703125 148.628906 248.542969 C 148.421875 248.476562 140.621094 248.402344 131.296875 248.375 C 118.675781 248.339844 114.167969 248.390625 113.640625 248.570312 M 164.84375 248.605469 C 164.53125 248.757812 164.21875 249.027344 164.148438 249.210938 C 164.078125 249.390625 164.167969 250.472656 164.347656 251.609375 C 164.527344 252.75 164.765625 254.246094 164.871094 254.9375 C 164.980469 255.632812 165.070312 256.539062 165.070312 256.953125 C 165.070312 257.367188 165.289062 258.234375 165.558594 258.882812 C 166 259.941406 166.066406 260.492188 166.195312 264.28125 C 166.410156 270.546875 166.5625 271.921875 167.199219 273.144531 C 167.496094 273.714844 167.84375 274.804688 167.96875 275.5625 C 168.097656 276.320312 168.425781 277.402344 168.699219 277.96875 C 168.972656 278.535156 169.378906 279.894531 169.605469 280.992188 C 169.832031 282.085938 170.25 283.4375 170.535156 283.988281 C 170.867188 284.628906 171.160156 285.707031 171.335938 286.9375 C 171.625 288.953125 171.890625 289.878906 172.253906 290.101562 C 172.371094 290.171875 172.660156 290.667969 172.894531 291.203125 C 173.132812 291.734375 173.554688 292.414062 173.839844 292.710938 C 174.183594 293.066406 174.453125 293.71875 174.648438 294.648438 C 174.808594 295.421875 175.171875 296.382812 175.449219 296.785156 C 175.726562 297.191406 176.074219 297.984375 176.21875 298.550781 C 176.359375 299.117188 176.726562 299.875 177.027344 300.230469 C 177.332031 300.589844 177.730469 301.34375 177.917969 301.90625 C 178.105469 302.46875 178.445312 303.097656 178.671875 303.300781 C 178.894531 303.503906 179.25 304.054688 179.453125 304.519531 C 179.660156 304.984375 180.105469 305.683594 180.4375 306.074219 C 180.773438 306.464844 181.167969 307.082031 181.3125 307.445312 C 181.457031 307.804688 181.792969 308.242188 182.054688 308.417969 C 182.316406 308.589844 182.597656 308.941406 182.675781 309.199219 C 182.753906 309.457031 183.050781 309.914062 183.335938 310.21875 C 183.617188 310.523438 183.957031 310.976562 184.082031 311.230469 C 184.339844 311.734375 184.949219 312.1875 185.132812 312.003906 C 185.332031 311.804688 185.265625 248.785156 185.066406 248.585938 C 184.964844 248.484375 180.550781 248.386719 175.148438 248.363281 C 167.375 248.335938 165.300781 248.382812 164.84375 248.605469 M 195.855469 248.660156 L 195.304688 248.996094 L 195.320312 277.132812 C 195.335938 302.679688 195.304688 305.398438 194.996094 306.632812 C 194.738281 307.671875 194.691406 308.410156 194.800781 309.757812 C 194.878906 310.726562 194.941406 311.75 194.933594 312.035156 C 194.914062 313.140625 195.097656 313.476562 195.730469 313.476562 C 196.152344 313.476562 196.449219 313.308594 196.707031 312.9375 C 196.910156 312.644531 197.328125 312.125 197.636719 311.78125 C 197.945312 311.441406 198.257812 310.964844 198.332031 310.722656 C 198.40625 310.480469 198.871094 309.742188 199.367188 309.082031 C 199.863281 308.417969 200.265625 307.75 200.265625 307.59375 C 200.265625 307.4375 200.488281 307.164062 200.761719 306.984375 C 201.035156 306.804688 201.398438 306.316406 201.566406 305.898438 C 201.734375 305.480469 202.152344 304.785156 202.5 304.351562 C 202.84375 303.921875 203.234375 303.226562 203.367188 302.808594 C 203.5 302.390625 203.824219 301.820312 204.089844 301.535156 C 204.351562 301.253906 204.804688 300.484375 205.09375 299.832031 C 205.382812 299.175781 205.757812 298.589844 205.925781 298.523438 C 206.09375 298.460938 206.414062 297.8125 206.636719 297.089844 C 206.863281 296.367188 207.238281 295.515625 207.472656 295.195312 C 207.707031 294.878906 208.042969 294.078125 208.214844 293.417969 C 208.386719 292.757812 208.789062 291.746094 209.113281 291.167969 C 209.433594 290.585938 209.804688 289.558594 209.933594 288.878906 C 210.0625 288.199219 210.449219 287.078125 210.792969 286.382812 C 211.203125 285.550781 211.480469 284.578125 211.617188 283.503906 C 211.726562 282.609375 212.042969 281.371094 212.316406 280.746094 C 212.589844 280.125 212.945312 279.105469 213.109375 278.484375 C 213.269531 277.859375 213.652344 276.90625 213.960938 276.359375 C 214.265625 275.816406 214.546875 274.980469 214.585938 274.507812 C 214.621094 274.035156 214.753906 272.765625 214.878906 271.691406 C 215.007812 270.613281 215.179688 268.625 215.265625 267.265625 C 215.371094 265.59375 215.53125 264.582031 215.769531 264.132812 C 215.964844 263.761719 216.210938 262.550781 216.335938 261.355469 C 216.453125 260.191406 216.652344 258.726562 216.773438 258.105469 C 216.898438 257.484375 217.027344 255.953125 217.0625 254.710938 C 217.097656 253.425781 217.273438 251.910156 217.46875 251.210938 C 218.050781 249.121094 218.050781 249.113281 217.527344 248.769531 C 217.109375 248.5 215.574219 248.445312 206.722656 248.390625 C 197.503906 248.335938 196.347656 248.363281 195.855469 248.660156 M 233.714844 248.878906 C 233.1875 249.507812 232.824219 252.105469 232.828125 255.238281 C 232.828125 256.207031 232.726562 257.367188 232.601562 257.8125 C 232.480469 258.257812 232.378906 259.183594 232.378906 259.871094 C 232.375 261.601562 231.792969 264.84375 231.3125 265.785156 C 231.09375 266.21875 230.820312 267.375 230.707031 268.359375 C 230.257812 272.1875 229.898438 274.339844 229.484375 275.613281 C 229.25 276.34375 228.976562 277.695312 228.878906 278.617188 C 228.78125 279.539062 228.519531 280.742188 228.296875 281.292969 C 227.929688 282.195312 227.421875 284.398438 227.128906 286.320312 C 227.070312 286.722656 226.757812 287.46875 226.4375 287.976562 C 226.097656 288.511719 225.738281 289.492188 225.582031 290.320312 C 225.425781 291.148438 225.070312 292.125 224.730469 292.664062 C 224.40625 293.171875 224.140625 293.871094 224.140625 294.21875 C 224.140625 295.136719 223.746094 296.410156 223.277344 297.003906 C 222.796875 297.617188 222.289062 298.769531 222.289062 299.253906 C 222.289062 299.441406 221.964844 300.101562 221.566406 300.71875 C 221.167969 301.339844 220.757812 302.148438 220.65625 302.515625 C 220.554688 302.882812 220.179688 303.554688 219.820312 304.007812 C 219.464844 304.457031 219.078125 305.175781 218.960938 305.601562 C 218.847656 306.027344 218.539062 306.605469 218.277344 306.886719 C 218.019531 307.171875 217.601562 307.882812 217.351562 308.472656 C 217.101562 309.0625 216.683594 309.683594 216.421875 309.855469 C 216.160156 310.027344 215.882812 310.449219 215.808594 310.792969 C 215.734375 311.136719 215.355469 311.796875 214.964844 312.261719 C 214.199219 313.179688 213.890625 314.007812 214.203125 314.320312 C 214.328125 314.445312 214.804688 314.328125 215.515625 313.996094 C 216.128906 313.710938 216.78125 313.476562 216.960938 313.476562 C 217.144531 313.476562 217.628906 313.207031 218.039062 312.882812 C 218.449219 312.558594 219.210938 312.183594 219.730469 312.050781 C 220.25 311.921875 221.140625 311.492188 221.710938 311.101562 C 222.28125 310.707031 222.929688 310.386719 223.152344 310.386719 C 223.640625 310.386719 224.261719 310.070312 225.027344 309.4375 C 225.34375 309.171875 225.980469 308.855469 226.441406 308.730469 C 226.898438 308.609375 227.480469 308.285156 227.726562 308.019531 C 227.976562 307.75 228.683594 307.332031 229.300781 307.089844 C 229.917969 306.851562 230.652344 306.445312 230.933594 306.191406 C 231.21875 305.9375 231.839844 305.558594 232.320312 305.351562 C 232.796875 305.148438 233.351562 304.796875 233.554688 304.574219 C 233.753906 304.351562 234.246094 304 234.640625 303.796875 C 235.035156 303.59375 235.632812 303.140625 235.964844 302.789062 C 236.296875 302.441406 236.675781 302.152344 236.804688 302.152344 C 236.933594 302.152344 237.261719 301.910156 237.539062 301.613281 C 237.8125 301.316406 238.40625 300.839844 238.859375 300.550781 C 241.171875 299.085938 245.964844 294.367188 248.636719 290.933594 C 249.148438 290.28125 249.910156 289.355469 250.335938 288.875 C 250.761719 288.398438 251.105469 287.890625 251.105469 287.75 C 251.105469 287.609375 251.382812 287.175781 251.722656 286.789062 C 252.0625 286.402344 252.539062 285.695312 252.78125 285.21875 C 253.023438 284.742188 253.488281 284.046875 253.8125 283.671875 C 254.136719 283.300781 254.402344 282.824219 254.402344 282.613281 C 254.402344 282.402344 254.769531 281.734375 255.222656 281.132812 C 255.675781 280.53125 256.046875 279.835938 256.046875 279.589844 C 256.046875 279.34375 256.367188 278.753906 256.761719 278.285156 C 257.351562 277.578125 257.894531 276.382812 257.898438 275.777344 C 257.898438 275.703125 258.222656 275.160156 258.621094 274.570312 C 259.015625 273.984375 259.339844 273.273438 259.339844 272.996094 C 259.339844 272.476562 259.753906 271.554688 260.386719 270.660156 C 260.585938 270.378906 260.859375 269.589844 260.992188 268.910156 C 261.121094 268.234375 261.445312 267.351562 261.707031 266.957031 C 262.167969 266.269531 262.292969 265.898438 262.859375 263.558594 C 262.996094 262.992188 263.222656 262.390625 263.367188 262.222656 C 263.863281 261.628906 264.097656 260.113281 264.273438 256.390625 C 264.414062 253.363281 264.535156 252.402344 264.898438 251.410156 C 265.578125 249.546875 265.632812 248.921875 265.152344 248.664062 C 264.886719 248.523438 259.59375 248.429688 249.464844 248.390625 L 234.179688 248.328125 Z M 233.714844 248.878906 " fill-opacity="1" fill-rule="evenodd"/></svg>