<svg xmlns="http://www.w3.org/2000/svg" xmlns:xlink="http://www.w3.org/1999/xlink" width="1080" zoomAndPan="magnify" viewBox="0 0 810 809.999993" height="1080" preserveAspectRatio="xMidYMid meet" version="1.0"><defs><g/></defs><path fill="#caddff" d="M 728.007812 625.960938 C 634.390625 756.15625 414.386719 831.75 232.230469 737.335938 C 90.308594 663.773438 0.179688 502.5625 27.976562 338.023438 C 58.914062 154.882812 223.355469 24.765625 394.445312 11.855469 C 551.503906 0.0117188 707.269531 89.550781 766.289062 215.84375 C 798.578125 284.941406 796.773438 354.371094 795.800781 391.96875 C 794.941406 425.128906 792.035156 536.917969 728.007812 625.960938 " fill-opacity="1" fill-rule="nonzero"/><path fill="#99b9ff" d="M 523.101562 290.179688 L 523.101562 328.847656 C 523.101562 366.65625 551.691406 397.304688 586.960938 397.304688 C 622.222656 397.304688 650.816406 427.960938 650.816406 465.773438 C 650.816406 469.144531 648.203125 471.875 644.972656 471.875 L 475.949219 471.875 C 423.078125 471.875 380.214844 425.921875 380.214844 369.238281 L 380.214844 286.738281 C 380.214844 264.195312 397.261719 245.914062 418.289062 245.914062 L 481.820312 245.914062 C 504.617188 245.914062 523.101562 265.734375 523.101562 290.179688 " fill-opacity="1" fill-rule="nonzero"/><path fill="#99b9ff" d="M 503.605469 638.386719 L 518.921875 638.386719 L 518.921875 452.128906 L 503.605469 452.128906 L 503.605469 638.386719 " fill-opacity="1" fill-rule="nonzero"/><path fill="#99b9ff" d="M 583.054688 638.605469 L 515.261719 632.390625 L 509.050781 632.390625 L 439.84375 638.605469 L 439.84375 643.539062 L 583.054688 643.539062 L 583.054688 638.605469 " fill-opacity="1" fill-rule="nonzero"/><path fill="#ffffff" d="M 773.296875 669.335938 L 713.21875 419.957031 L 653.136719 669.335938 L 638.738281 669.335938 L 704.753906 393.308594 L 721.6875 393.285156 L 787.703125 669.335938 L 773.296875 669.335938 " fill-opacity="1" fill-rule="nonzero"/><path fill="#ffffff" d="M 421.136719 667.664062 L 361.058594 418.25 L 300.976562 667.664062 L 286.574219 667.664062 L 352.585938 391.605469 L 369.519531 391.578125 L 435.539062 667.664062 L 421.136719 667.664062 " fill-opacity="1" fill-rule="nonzero"/><path fill="#ffffff" d="M 264.074219 395.117188 L 789.019531 395.117188 L 789.019531 372.5625 L 264.074219 372.5625 L 264.074219 395.117188 " fill-opacity="1" fill-rule="nonzero"/><path fill="#5479f7" d="M 731.613281 247.582031 L 631.101562 247.582031 C 626.867188 247.582031 622.925781 249.691406 620.667969 253.171875 L 582.960938 364.207031 L 493.992188 364.207031 L 493.992188 366.8125 C 493.992188 371.539062 497.820312 375.371094 502.546875 375.371094 L 693.230469 375.371094 C 697.957031 375.371094 701.789062 371.539062 701.789062 366.8125 L 701.789062 364.40625 L 735.871094 260.585938 C 736.390625 259.003906 737.03125 257.46875 737.621094 255.917969 C 739.109375 252.011719 736.171875 247.582031 731.613281 247.582031 " fill-opacity="1" fill-rule="nonzero"/><path fill="#000000" d="M 701.796875 364.410156 L 701.804688 364.410156 Z M 495.386719 365.601562 L 495.386719 366.8125 C 495.386719 370.753906 498.601562 373.96875 502.550781 373.96875 L 693.234375 373.96875 C 697.183594 373.96875 700.394531 370.753906 700.394531 366.8125 L 700.394531 364.410156 C 700.394531 364.222656 700.429688 364.039062 700.5 363.878906 L 734.546875 260.148438 C 734.929688 258.976562 735.382812 257.832031 735.8125 256.722656 C 735.980469 256.285156 736.15625 255.851562 736.320312 255.417969 C 736.855469 254.003906 736.648438 252.394531 735.765625 251.117188 C 734.828125 249.757812 733.320312 248.972656 731.613281 248.972656 L 631.101562 248.972656 C 627.375 248.972656 623.960938 250.773438 621.929688 253.789062 L 584.28125 364.65625 C 584.085938 365.222656 583.554688 365.601562 582.960938 365.601562 Z M 693.234375 376.765625 L 502.550781 376.765625 C 497.058594 376.765625 492.597656 372.296875 492.597656 366.8125 L 492.597656 364.210938 C 492.597656 363.433594 493.222656 362.8125 493.996094 362.8125 L 581.960938 362.8125 L 619.347656 252.722656 C 619.382812 252.609375 619.4375 252.503906 619.5 252.410156 C 622.03125 248.511719 626.371094 246.183594 631.101562 246.183594 L 731.613281 246.183594 C 734.25 246.183594 736.597656 247.398438 738.0625 249.53125 C 739.46875 251.566406 739.792969 254.140625 738.929688 256.410156 C 738.761719 256.851562 738.585938 257.292969 738.414062 257.734375 C 737.996094 258.808594 737.558594 259.921875 737.203125 261.019531 L 703.183594 364.644531 L 703.183594 366.8125 C 703.183594 372.296875 698.722656 376.765625 693.234375 376.765625 " fill-opacity="1" fill-rule="nonzero"/><path fill="#99b9ff" d="M 657.671875 304.496094 C 656.253906 309.195312 658.414062 314.007812 662.5 315.242188 C 666.59375 316.476562 671.054688 313.664062 672.472656 308.960938 C 673.886719 304.257812 671.71875 299.449219 667.632812 298.210938 C 663.546875 296.976562 659.082031 299.789062 657.671875 304.496094 " fill-opacity="1" fill-rule="nonzero"/><path fill="#99b9ff" d="M 749.960938 768.1875 L 542.875 768.1875 C 530.441406 768.1875 521.144531 757.308594 523.648438 745.699219 L 555.066406 600.082031 C 557.710938 587.839844 569.011719 579.046875 582.125 579.046875 L 759.757812 579.046875 L 749.960938 768.1875 " fill-opacity="1" fill-rule="nonzero"/><path fill="#000000" d="M 582.128906 580.445312 C 569.730469 580.445312 558.917969 588.832031 556.429688 600.378906 L 525.011719 745.992188 C 523.949219 750.910156 525.1875 756.015625 528.398438 760 C 531.882812 764.3125 537.15625 766.789062 542.875 766.789062 L 748.636719 766.789062 L 758.285156 580.445312 Z M 749.964844 769.582031 L 542.875 769.582031 C 536.3125 769.582031 530.238281 766.730469 526.226562 761.753906 C 522.480469 757.113281 521.042969 751.152344 522.285156 745.402344 L 553.699219 599.789062 C 556.46875 586.964844 568.421875 577.652344 582.128906 577.652344 L 759.757812 577.652344 C 760.140625 577.652344 760.503906 577.808594 760.769531 578.089844 C 761.035156 578.367188 761.167969 578.738281 761.152344 579.125 L 751.355469 768.257812 C 751.316406 769 750.703125 769.582031 749.964844 769.582031 " fill-opacity="1" fill-rule="nonzero"/><path fill="#5479f7" d="M 776.476562 768.1875 L 736.289062 768.1875 C 723.851562 768.1875 714.558594 757.308594 717.0625 745.699219 L 751.667969 585.3125 C 752.449219 581.667969 755.8125 579.050781 759.722656 579.050781 L 770.0625 579.050781 C 774.339844 579.050781 777.910156 582.1875 778.257812 586.253906 L 792.414062 751.699219 C 793.175781 760.578125 785.820312 768.1875 776.476562 768.1875 " fill-opacity="1" fill-rule="nonzero"/><path fill="#000000" d="M 759.722656 580.445312 C 756.488281 580.445312 753.675781 582.617188 753.03125 585.609375 L 718.425781 745.992188 C 717.363281 750.910156 718.601562 756.015625 721.8125 760 C 725.296875 764.3125 730.570312 766.789062 736.285156 766.789062 L 776.472656 766.789062 C 780.699219 766.789062 784.710938 765.054688 787.484375 762.03125 C 790.085938 759.195312 791.34375 755.570312 791.019531 751.816406 L 776.867188 586.378906 C 776.585938 583.050781 773.59375 580.445312 770.0625 580.445312 Z M 776.472656 769.582031 L 736.285156 769.582031 C 729.722656 769.582031 723.652344 766.730469 719.640625 761.753906 C 715.894531 757.113281 714.457031 751.152344 715.699219 745.402344 L 750.300781 585.019531 C 751.226562 580.75 755.1875 577.65625 759.722656 577.65625 L 770.0625 577.65625 C 775.03125 577.65625 779.242188 581.382812 779.652344 586.136719 L 793.804688 751.578125 C 794.191406 756.117188 792.675781 760.503906 789.539062 763.921875 C 786.238281 767.519531 781.480469 769.582031 776.472656 769.582031 " fill-opacity="1" fill-rule="nonzero"/><path fill="#000000" d="M 763.667969 763.890625 L 736.289062 763.890625 C 731.753906 763.890625 727.515625 761.964844 724.644531 758.609375 C 721.75 755.230469 720.621094 750.832031 721.546875 746.550781 L 732.902344 693.902344 C 733.066406 693.148438 733.808594 692.664062 734.566406 692.832031 C 735.3125 692.996094 735.796875 693.738281 735.632812 694.492188 L 724.277344 747.140625 C 723.535156 750.5625 724.441406 754.078125 726.761719 756.792969 C 729.101562 759.527344 732.574219 761.09375 736.289062 761.09375 L 763.667969 761.09375 C 764.441406 761.09375 765.0625 761.726562 765.0625 762.492188 C 765.0625 763.265625 764.441406 763.890625 763.667969 763.890625 " fill-opacity="1" fill-rule="nonzero"/><path fill="#000000" d="M 776.472656 763.890625 C 775.707031 763.890625 775.085938 763.265625 775.085938 762.492188 C 775.085938 761.726562 775.707031 761.09375 776.472656 761.09375 C 778.925781 761.09375 781.1875 760.152344 782.84375 758.441406 C 784.476562 756.75 785.265625 754.5625 785.070312 752.277344 L 781.847656 714.578125 C 781.785156 713.808594 782.347656 713.136719 783.121094 713.066406 C 783.894531 713 784.558594 713.570312 784.632812 714.339844 L 787.855469 752.042969 C 788.121094 755.144531 787.054688 758.105469 784.851562 760.386719 C 782.664062 762.644531 779.691406 763.890625 776.472656 763.890625 " fill-opacity="1" fill-rule="nonzero"/><path fill="#000000" d="M 774.253906 610.929688 C 773.542969 610.929688 772.933594 610.382812 772.871094 609.65625 L 772.199219 601.792969 C 772.128906 601.027344 772.699219 600.347656 773.464844 600.285156 C 774.238281 600.21875 774.914062 600.789062 774.980469 601.558594 L 775.652344 609.414062 C 775.71875 610.183594 775.148438 610.859375 774.382812 610.925781 C 774.335938 610.929688 774.300781 610.929688 774.253906 610.929688 " fill-opacity="1" fill-rule="nonzero"/><path fill="#000000" d="M 748.03125 631.839844 C 747.933594 631.839844 747.828125 631.832031 747.738281 631.808594 C 746.972656 631.644531 746.5 630.902344 746.664062 630.148438 L 756.152344 586.164062 C 756.5 584.53125 758.007812 583.347656 759.726562 583.347656 L 770.058594 583.347656 C 771.945312 583.347656 773.550781 584.773438 773.699219 586.601562 L 774.140625 591.746094 C 774.207031 592.511719 773.640625 593.191406 772.871094 593.257812 C 772.09375 593.324219 771.425781 592.75 771.359375 591.980469 L 770.921875 586.835938 C 770.882812 586.453125 770.5 586.140625 770.058594 586.140625 L 759.726562 586.140625 C 759.320312 586.140625 758.960938 586.402344 758.882812 586.757812 L 749.394531 630.738281 C 749.253906 631.390625 748.671875 631.839844 748.03125 631.839844 " fill-opacity="1" fill-rule="nonzero"/><path fill="#000000" d="M 721.746094 656.886719 L 559.597656 656.886719 C 558.828125 656.886719 558.203125 656.261719 558.203125 655.488281 C 558.203125 654.71875 558.828125 654.09375 559.597656 654.09375 L 721.746094 654.09375 C 725.925781 654.09375 729.523438 651.398438 730.476562 647.542969 L 744.769531 590.019531 C 744.957031 589.269531 745.714844 588.8125 746.460938 588.996094 C 747.207031 589.183594 747.664062 589.941406 747.480469 590.691406 L 733.191406 648.21875 C 731.917969 653.320312 727.210938 656.886719 721.746094 656.886719 " fill-opacity="1" fill-rule="nonzero"/><path fill="#ffffff" d="M 659.164062 655.484375 L 654.621094 672.957031 C 653.886719 675.910156 651.117188 677.996094 647.933594 677.996094 L 615.820312 677.996094 C 612.328125 677.996094 609.792969 674.820312 610.730469 671.609375 L 615.4375 655.484375 L 659.164062 655.484375 " fill-opacity="1" fill-rule="nonzero"/><path fill="#000000" d="M 616.480469 656.886719 L 612.066406 672 C 611.761719 673.050781 611.972656 674.160156 612.636719 675.046875 C 613.375 676.035156 614.535156 676.601562 615.820312 676.601562 L 647.933594 676.601562 C 650.492188 676.601562 652.6875 674.964844 653.269531 672.621094 L 657.355469 656.886719 Z M 647.933594 679.394531 L 615.820312 679.394531 C 613.648438 679.394531 611.675781 678.421875 610.398438 676.726562 C 609.207031 675.125 608.832031 673.117188 609.386719 671.21875 L 614.089844 655.097656 C 614.261719 654.5 614.8125 654.09375 615.433594 654.09375 L 659.160156 654.09375 C 659.59375 654.09375 660.003906 654.292969 660.269531 654.632812 C 660.53125 654.976562 660.621094 655.421875 660.515625 655.84375 L 655.972656 673.308594 C 655.085938 676.886719 651.773438 679.394531 647.933594 679.394531 " fill-opacity="1" fill-rule="nonzero"/><path fill="#000000" d="M 706.949219 754.953125 L 534.703125 754.953125 C 533.925781 754.953125 533.300781 754.328125 533.300781 753.554688 C 533.300781 752.785156 533.925781 752.160156 534.703125 752.160156 L 706.949219 752.160156 C 707.726562 752.160156 708.347656 752.785156 708.347656 753.554688 C 708.347656 754.328125 707.726562 754.953125 706.949219 754.953125 " fill-opacity="1" fill-rule="nonzero"/><path fill="#5479f7" d="M 623.042969 572.441406 L 609.597656 572.441406 C 605.96875 572.441406 603.023438 575.246094 603.023438 578.710938 L 629.621094 578.710938 C 629.621094 575.246094 626.679688 572.441406 623.042969 572.441406 " fill-opacity="1" fill-rule="nonzero"/><path fill="#000000" d="M 604.636719 577.316406 L 628.011719 577.316406 C 627.371094 575.304688 625.386719 573.835938 623.042969 573.835938 L 609.597656 573.835938 C 607.261719 573.835938 605.277344 575.304688 604.636719 577.316406 Z M 629.621094 580.105469 L 603.023438 580.105469 C 602.25 580.105469 601.625 579.480469 601.625 578.710938 C 601.625 574.480469 605.203125 571.042969 609.597656 571.042969 L 623.042969 571.042969 C 627.441406 571.042969 631.019531 574.480469 631.019531 578.710938 C 631.019531 579.480469 630.394531 580.105469 629.621094 580.105469 " fill-opacity="1" fill-rule="nonzero"/><path fill="#5479f7" d="M 730.804688 572.441406 L 717.355469 572.441406 C 713.726562 572.441406 710.777344 575.246094 710.777344 578.710938 L 737.382812 578.710938 C 737.382812 575.246094 734.433594 572.441406 730.804688 572.441406 " fill-opacity="1" fill-rule="nonzero"/><path fill="#000000" d="M 712.386719 577.316406 L 735.765625 577.316406 C 735.128906 575.308594 733.144531 573.835938 730.800781 573.835938 L 717.351562 573.835938 C 715.015625 573.835938 713.027344 575.308594 712.386719 577.316406 Z M 737.378906 580.109375 L 710.773438 580.109375 C 710.007812 580.109375 709.382812 579.484375 709.382812 578.710938 C 709.382812 574.484375 712.960938 571.046875 717.351562 571.046875 L 730.800781 571.046875 C 735.195312 571.046875 738.773438 574.484375 738.773438 578.710938 C 738.773438 579.484375 738.152344 580.109375 737.378906 580.109375 " fill-opacity="1" fill-rule="nonzero"/><path fill="#ffffff" d="M 727.292969 572.105469 L 729.457031 559.835938 C 730.996094 551.132812 724.839844 544.078125 715.710938 544.078125 L 635.085938 544.078125 C 625.960938 544.078125 617.3125 551.132812 615.78125 559.835938 L 613.609375 572.105469 L 619.785156 572.105469 L 621.464844 562.554688 C 622.664062 555.78125 629.390625 550.292969 636.496094 550.292969 L 712.113281 550.292969 C 719.214844 550.292969 724 555.78125 722.808594 562.554688 L 721.121094 572.105469 L 727.292969 572.105469 " fill-opacity="1" fill-rule="nonzero"/><path fill="#000000" d="M 722.785156 570.707031 L 726.125 570.707031 L 728.085938 559.589844 C 728.738281 555.890625 727.882812 552.402344 725.679688 549.773438 C 723.347656 547 719.8125 545.472656 715.714844 545.472656 L 635.089844 545.472656 C 626.621094 545.472656 618.574219 552.023438 617.152344 560.074219 L 615.28125 570.707031 L 618.617188 570.707031 L 620.09375 562.308594 C 621.402344 554.910156 628.761719 548.890625 636.496094 548.890625 L 712.113281 548.890625 C 716.046875 548.890625 719.476562 550.398438 721.765625 553.125 C 723.960938 555.75 724.824219 559.183594 724.1875 562.792969 Z M 727.292969 573.496094 L 721.125 573.496094 C 720.710938 573.496094 720.316406 573.316406 720.050781 573 C 719.789062 572.683594 719.675781 572.265625 719.75 571.859375 L 721.4375 562.308594 C 721.925781 559.523438 721.285156 556.898438 719.621094 554.925781 C 717.875 552.835938 715.210938 551.6875 712.113281 551.6875 L 636.496094 551.6875 C 630.050781 551.6875 623.925781 556.667969 622.847656 562.792969 L 621.160156 572.34375 C 621.042969 573.011719 620.460938 573.496094 619.785156 573.496094 L 613.613281 573.496094 C 613.203125 573.496094 612.8125 573.316406 612.546875 573 C 612.28125 572.683594 612.164062 572.265625 612.238281 571.859375 L 614.40625 559.589844 C 616.050781 550.265625 625.328125 542.679688 635.089844 542.679688 L 715.714844 542.679688 C 720.648438 542.679688 724.949219 544.558594 727.8125 547.976562 C 730.5625 551.253906 731.632812 555.550781 730.835938 560.074219 L 728.667969 572.34375 C 728.550781 573.011719 727.972656 573.496094 727.292969 573.496094 " fill-opacity="1" fill-rule="nonzero"/><path fill="#99b9ff" d="M 711.710938 538.996094 L 640.886719 538.996094 C 638.03125 538.996094 635.328125 541.203125 634.847656 543.921875 L 633.808594 549.824219 C 633.324219 552.542969 635.25 554.75 638.105469 554.75 L 708.929688 554.75 C 711.78125 554.75 714.484375 552.542969 714.964844 549.824219 L 716.011719 543.921875 C 716.492188 541.203125 714.566406 538.996094 711.710938 538.996094 " fill-opacity="1" fill-rule="nonzero"/><path fill="#000000" d="M 640.886719 540.390625 C 638.71875 540.390625 636.582031 542.121094 636.222656 544.167969 L 635.183594 550.0625 C 635.027344 550.9375 635.222656 551.75 635.726562 552.347656 C 636.261719 552.996094 637.113281 553.355469 638.105469 553.355469 L 708.929688 553.355469 C 711.097656 553.355469 713.234375 551.621094 713.59375 549.578125 L 714.632812 543.683594 C 714.792969 542.808594 714.597656 541.996094 714.089844 541.394531 C 713.546875 540.75 712.707031 540.390625 711.710938 540.390625 Z M 708.929688 556.144531 L 638.105469 556.144531 C 636.300781 556.144531 634.65625 555.414062 633.589844 554.144531 C 632.542969 552.898438 632.132812 551.273438 632.429688 549.578125 L 633.476562 543.683594 C 634.082031 540.269531 637.335938 537.597656 640.886719 537.597656 L 711.710938 537.597656 C 713.519531 537.597656 715.167969 538.328125 716.230469 539.597656 C 717.273438 540.84375 717.683594 542.464844 717.378906 544.167969 L 716.34375 550.0625 C 715.738281 553.472656 712.484375 556.144531 708.929688 556.144531 " fill-opacity="1" fill-rule="nonzero"/><path fill="#99b9ff" d="M 735.910156 754.953125 C 735.410156 754.953125 734.933594 754.6875 734.679688 754.222656 C 734.3125 753.546875 734.566406 752.699219 735.238281 752.328125 L 762.273438 737.644531 L 762.273438 590.351562 C 762.273438 589.582031 762.898438 588.957031 763.667969 588.957031 C 764.441406 588.957031 765.0625 589.582031 765.0625 590.351562 L 765.0625 738.472656 C 765.0625 738.984375 764.789062 739.460938 764.332031 739.703125 L 736.578125 754.785156 C 736.363281 754.898438 736.136719 754.953125 735.910156 754.953125 " fill-opacity="1" fill-rule="nonzero"/><path fill="#ffffff" d="M 484.175781 50.585938 C 494.167969 34.628906 515.207031 29.792969 531.167969 39.792969 C 547.117188 49.789062 551.953125 70.835938 541.953125 86.796875 C 531.960938 102.761719 510.921875 107.59375 494.964844 97.589844 C 479.011719 87.59375 474.171875 66.546875 484.175781 50.585938 " fill-opacity="1" fill-rule="nonzero"/><path fill="#000000" d="M 484.171875 50.589844 L 484.183594 50.589844 Z M 513.125 35.976562 C 510.671875 35.976562 508.195312 36.257812 505.742188 36.820312 C 497.234375 38.777344 489.992188 43.933594 485.359375 51.332031 C 480.71875 58.738281 479.242188 67.503906 481.195312 76.019531 C 483.152344 84.535156 488.300781 91.773438 495.707031 96.417969 C 503.109375 101.050781 511.867188 102.527344 520.386719 100.574219 C 528.890625 98.617188 536.128906 93.464844 540.769531 86.058594 C 550.339844 70.78125 545.695312 50.554688 530.421875 40.980469 C 525.15625 37.679688 519.191406 35.976562 513.125 35.976562 Z M 512.992188 104.214844 C 506.414062 104.214844 499.941406 102.363281 494.226562 98.78125 C 486.1875 93.75 480.597656 85.882812 478.476562 76.644531 C 476.351562 67.402344 477.957031 57.890625 482.988281 49.851562 C 488.023438 41.816406 495.878906 36.222656 505.117188 34.101562 C 514.359375 31.976562 523.875 33.578125 531.902344 38.617188 C 548.488281 49.007812 553.527344 70.957031 543.140625 87.546875 C 538.105469 95.578125 530.242188 101.171875 521.003906 103.296875 C 518.34375 103.90625 515.65625 104.214844 512.992188 104.214844 " fill-opacity="1" fill-rule="nonzero"/><path fill="#000000" d="M 518.515625 88.398438 C 519.273438 88.867188 520.15625 89.011719 521.023438 88.820312 C 521.882812 88.625 522.617188 88.101562 523.085938 87.351562 L 533.574219 70.613281 C 534.042969 69.863281 534.191406 68.972656 533.992188 68.109375 C 533.792969 67.246094 533.269531 66.511719 532.519531 66.042969 L 507.125 50.121094 C 506.367188 49.652344 505.484375 49.503906 504.621094 49.703125 C 503.757812 49.902344 503.023438 50.417969 502.554688 51.175781 L 492.074219 67.910156 C 491.597656 68.660156 491.453125 69.550781 491.652344 70.414062 C 491.847656 71.277344 492.367188 72.011719 493.117188 72.480469 Z M 520.265625 91.699219 C 519.136719 91.699219 518.019531 91.382812 517.039062 90.765625 L 491.636719 74.847656 C 490.253906 73.980469 489.292969 72.628906 488.929688 71.039062 C 488.5625 69.449219 488.835938 67.8125 489.703125 66.425781 L 500.183594 49.691406 C 501.054688 48.3125 502.402344 47.34375 503.992188 46.976562 C 505.585938 46.617188 507.21875 46.890625 508.601562 47.753906 L 534.003906 63.671875 C 535.390625 64.542969 536.351562 65.898438 536.710938 67.480469 C 537.078125 69.074219 536.804688 70.710938 535.933594 72.097656 L 525.453125 88.828125 C 524.589844 90.21875 523.238281 91.179688 521.644531 91.542969 C 521.1875 91.648438 520.726562 91.699219 520.265625 91.699219 " fill-opacity="1" fill-rule="nonzero"/><path fill="#000000" d="M 512.257812 71.84375 C 511.726562 71.84375 511.222656 71.539062 510.992188 71.023438 L 504.671875 57.28125 C 504.34375 56.582031 504.65625 55.746094 505.355469 55.425781 C 506.0625 55.105469 506.890625 55.410156 507.207031 56.117188 L 513.53125 69.859375 C 513.851562 70.558594 513.539062 71.394531 512.839844 71.714844 C 512.648438 71.800781 512.457031 71.84375 512.257812 71.84375 " fill-opacity="1" fill-rule="nonzero"/><path fill="#000000" d="M 512.332031 71.886719 C 511.574219 71.886719 510.953125 71.28125 510.933594 70.519531 C 510.917969 69.75 511.53125 69.109375 512.304688 69.09375 L 527.429688 68.78125 C 528.183594 68.75 528.832031 69.378906 528.851562 70.148438 C 528.871094 70.917969 528.257812 71.5625 527.484375 71.574219 L 512.363281 71.886719 C 512.347656 71.886719 512.34375 71.886719 512.332031 71.886719 " fill-opacity="1" fill-rule="nonzero"/><path fill="#99b9ff" d="M 637.421875 142.273438 L 616.324219 142.90625 C 613.71875 142.984375 611.40625 144.570312 610.386719 146.964844 L 605.234375 159.136719 L 598.015625 146.902344 C 596.773438 144.808594 594.507812 143.5625 592.074219 143.632812 L 572.675781 144.210938 C 569 144.320312 565.929688 141.429688 565.820312 137.75 L 564.582031 96.554688 C 564.472656 92.875 567.363281 89.804688 571.046875 89.695312 L 635.789062 87.753906 C 639.464844 87.644531 642.53125 90.535156 642.644531 94.214844 L 643.878906 135.417969 C 643.992188 139.089844 641.09375 142.160156 637.421875 142.273438 " fill-opacity="1" fill-rule="nonzero"/><path fill="#000000" d="M 592.28125 142.230469 C 595.125 142.230469 597.761719 143.730469 599.214844 146.1875 L 605.027344 156.042969 L 609.109375 146.414062 C 610.332031 143.527344 613.148438 141.601562 616.28125 141.507812 L 637.382812 140.875 C 638.785156 140.835938 640.089844 140.246094 641.058594 139.222656 C 642.019531 138.195312 642.523438 136.863281 642.484375 135.453125 L 641.253906 94.25 C 641.207031 92.847656 640.621094 91.542969 639.597656 90.578125 C 638.574219 89.617188 637.25 89.128906 635.832031 89.144531 L 571.082031 91.089844 C 569.679688 91.128906 568.371094 91.71875 567.410156 92.742188 C 566.445312 93.761719 565.9375 95.101562 565.984375 96.507812 L 567.214844 137.710938 C 567.257812 139.113281 567.84375 140.421875 568.867188 141.386719 C 569.894531 142.347656 571.222656 142.84375 572.632812 142.8125 L 592.03125 142.234375 C 592.121094 142.230469 592.199219 142.230469 592.28125 142.230469 Z M 605.234375 160.535156 C 604.742188 160.535156 604.285156 160.269531 604.03125 159.84375 L 596.8125 147.609375 C 595.835938 145.957031 594.027344 144.984375 592.121094 145.023438 L 572.714844 145.605469 C 570.578125 145.667969 568.519531 144.894531 566.949219 143.414062 C 565.386719 141.941406 564.488281 139.941406 564.421875 137.792969 L 563.191406 96.589844 C 563.128906 94.441406 563.902344 92.390625 565.375 90.828125 C 566.855469 89.257812 568.847656 88.363281 571 88.296875 L 635.746094 86.359375 C 637.882812 86.28125 639.945312 87.070312 641.511719 88.546875 C 643.082031 90.019531 643.976562 92.015625 644.039062 94.167969 L 645.277344 135.371094 C 645.335938 137.523438 644.558594 139.574219 643.085938 141.136719 C 641.613281 142.703125 639.617188 143.601562 637.460938 143.667969 L 616.367188 144.296875 C 614.316406 144.359375 612.476562 145.621094 611.675781 147.507812 L 606.519531 159.679688 C 606.3125 160.164062 605.855469 160.492188 605.328125 160.527344 C 605.292969 160.527344 605.265625 160.535156 605.234375 160.535156 " fill-opacity="1" fill-rule="nonzero"/><path fill="#000000" d="M 581.976562 107.199219 C 581.222656 107.199219 580.609375 106.601562 580.582031 105.84375 C 580.558594 105.074219 581.164062 104.429688 581.933594 104.40625 L 628.503906 102.886719 C 629.253906 102.851562 629.917969 103.464844 629.941406 104.238281 C 629.96875 105.003906 629.363281 105.652344 628.589844 105.675781 L 582.023438 107.191406 C 582.007812 107.199219 581.992188 107.199219 581.976562 107.199219 " fill-opacity="1" fill-rule="nonzero"/><path fill="#000000" d="M 581.203125 118.140625 C 580.457031 118.140625 579.832031 117.550781 579.808594 116.792969 C 579.785156 116.019531 580.386719 115.378906 581.164062 115.355469 L 615.671875 114.226562 C 615.6875 114.226562 615.707031 114.226562 615.71875 114.226562 C 616.46875 114.226562 617.09375 114.824219 617.117188 115.578125 C 617.144531 116.351562 616.535156 116.992188 615.769531 117.023438 L 581.25 118.140625 C 581.238281 118.140625 581.21875 118.140625 581.203125 118.140625 " fill-opacity="1" fill-rule="nonzero"/><path fill="#000000" d="M 582.839844 129.28125 C 582.089844 129.28125 581.464844 128.6875 581.445312 127.933594 C 581.414062 127.160156 582.027344 126.515625 582.792969 126.492188 L 629.363281 124.972656 C 630.121094 124.914062 630.777344 125.550781 630.804688 126.324219 C 630.828125 127.097656 630.226562 127.742188 629.453125 127.765625 L 582.886719 129.28125 C 582.871094 129.28125 582.851562 129.28125 582.839844 129.28125 " fill-opacity="1" fill-rule="nonzero"/><path fill="#ffffff" d="M 645.359375 198.683594 C 640.304688 179.335938 651.875 159.464844 671.203125 154.300781 C 690.523438 149.132812 710.285156 160.628906 715.335938 179.96875 C 720.386719 199.316406 708.816406 219.183594 689.492188 224.355469 C 670.171875 229.519531 650.410156 218.027344 645.359375 198.683594 " fill-opacity="1" fill-rule="nonzero"/><path fill="#000000" d="M 646.703125 198.335938 C 649.054688 207.320312 654.757812 214.835938 662.761719 219.5 C 670.777344 224.160156 680.136719 225.410156 689.128906 223.007812 C 707.683594 218.046875 718.835938 198.902344 713.984375 180.328125 C 711.632812 171.335938 705.9375 163.824219 697.933594 159.160156 C 689.910156 154.496094 680.550781 153.25 671.5625 155.652344 C 653.003906 160.613281 641.859375 179.757812 646.703125 198.335938 Z M 680.085938 226.996094 C 673.566406 226.996094 667.136719 225.277344 661.355469 221.910156 C 652.707031 216.875 646.539062 208.75 644.007812 199.035156 C 638.765625 178.984375 650.804688 158.308594 670.835938 152.957031 C 680.550781 150.359375 690.667969 151.703125 699.332031 156.75 C 707.984375 161.785156 714.148438 169.910156 716.6875 179.625 C 721.921875 199.675781 709.882812 220.347656 689.851562 225.703125 C 686.617188 226.570312 683.34375 226.996094 680.085938 226.996094 " fill-opacity="1" fill-rule="nonzero"/><path fill="#99b9ff" d="M 697.453125 200.976562 L 691.765625 195.90625 C 691.003906 195.253906 689.363281 194.964844 687.429688 196.003906 C 685.613281 196.980469 682.703125 198.515625 677.164062 191.765625 C 671.640625 185.023438 673.476562 182.238281 675.003906 180.847656 C 675.234375 180.640625 676.953125 178.574219 675.9375 176.59375 L 672.933594 171.480469 C 670.421875 167.53125 667.074219 170.683594 666.878906 170.855469 C 661.402344 175.816406 663.253906 186.777344 671.308594 196.601562 C 679.367188 206.433594 689.730469 210.371094 695.632812 205.933594 C 695.847656 205.777344 699.394531 202.855469 697.453125 200.976562 " fill-opacity="1" fill-rule="nonzero"/><path fill="#000000" d="M 669.921875 170.902344 C 669.175781 170.902344 668.339844 171.40625 667.828125 171.878906 C 662.917969 176.328125 664.886719 186.570312 672.382812 195.722656 C 679.890625 204.871094 689.519531 208.785156 694.789062 204.816406 C 695.425781 204.324219 696.59375 203.058594 696.628906 202.316406 C 696.632812 202.21875 696.628906 202.132812 696.492188 201.996094 L 690.832031 196.953125 C 690.519531 196.679688 689.460938 196.496094 688.089844 197.230469 C 685.117188 198.835938 681.609375 199.386719 676.082031 192.652344 C 671.445312 186.992188 670.777344 182.792969 674.066406 179.816406 C 674.0625 179.816406 675.285156 178.382812 674.695312 177.234375 L 671.730469 172.191406 C 671.25 171.433594 670.699219 170.988281 670.121094 170.910156 C 670.054688 170.902344 669.984375 170.902344 669.921875 170.902344 Z M 689.835938 209.164062 C 683.722656 209.164062 676.359375 204.96875 670.226562 197.492188 C 661.628906 187 659.824219 175.363281 665.9375 169.824219 C 666.601562 169.222656 668.355469 167.855469 670.488281 168.140625 C 671.921875 168.332031 673.140625 169.207031 674.113281 170.730469 L 677.140625 175.890625 C 678.5625 178.65625 676.519531 181.359375 675.941406 181.886719 C 675.140625 182.609375 673.027344 184.523438 678.246094 190.882812 C 683.066406 196.773438 685.203125 195.617188 686.761719 194.773438 C 689.394531 193.359375 691.585938 193.925781 692.667969 194.84375 L 698.417969 199.976562 C 699.136719 200.664062 699.476562 201.535156 699.417969 202.5 C 699.261719 204.929688 696.492188 207.027344 696.46875 207.054688 C 694.570312 208.476562 692.304688 209.164062 689.835938 209.164062 " fill-opacity="1" fill-rule="nonzero"/><path fill="#ffffff" d="M 405.925781 475.167969 C 405.925781 450.203125 426.15625 429.964844 451.105469 429.964844 C 476.0625 429.964844 496.292969 450.203125 496.292969 475.167969 C 496.292969 500.125 476.0625 520.363281 451.105469 520.363281 C 426.15625 520.363281 405.925781 500.125 405.925781 475.167969 " fill-opacity="1" fill-rule="nonzero"/><path fill="#000000" d="M 451.105469 431.363281 C 426.964844 431.363281 407.320312 451.015625 407.320312 475.167969 C 407.320312 499.320312 426.964844 518.972656 451.105469 518.972656 C 475.253906 518.972656 494.894531 499.320312 494.894531 475.167969 C 494.894531 451.015625 475.253906 431.363281 451.105469 431.363281 Z M 451.105469 521.761719 C 425.425781 521.761719 404.527344 500.859375 404.527344 475.167969 C 404.527344 449.472656 425.425781 428.574219 451.105469 428.574219 C 476.792969 428.574219 497.691406 449.472656 497.691406 475.167969 C 497.691406 500.859375 476.792969 521.761719 451.105469 521.761719 " fill-opacity="1" fill-rule="nonzero"/><path fill="#5479f7" d="M 451.359375 497.902344 C 450.914062 498.179688 450.351562 498.191406 449.890625 497.933594 C 445.90625 495.710938 427.433594 484.574219 428.160156 470.015625 C 428.921875 454.621094 445.621094 457.289062 449.742188 464.863281 C 449.898438 465.152344 450.207031 465.328125 450.53125 465.308594 C 450.859375 465.292969 451.148438 465.089844 451.273438 464.785156 C 453.292969 459.921875 459.824219 456.394531 465.980469 458.707031 C 473.3125 461.460938 480.769531 479.667969 451.359375 497.902344 " fill-opacity="1" fill-rule="nonzero"/><path fill="#ffffff" d="M 526.550781 514.015625 C 526.550781 498.308594 539.277344 485.582031 554.976562 485.582031 C 570.675781 485.582031 583.402344 498.308594 583.402344 514.015625 C 583.402344 529.71875 570.675781 542.449219 554.976562 542.449219 C 539.277344 542.449219 526.550781 529.71875 526.550781 514.015625 " fill-opacity="1" fill-rule="nonzero"/><path fill="#000000" d="M 554.976562 486.972656 C 540.070312 486.972656 527.949219 499.105469 527.949219 514.015625 C 527.949219 528.921875 540.070312 541.054688 554.976562 541.054688 C 569.882812 541.054688 582.003906 528.921875 582.003906 514.015625 C 582.003906 499.105469 569.882812 486.972656 554.976562 486.972656 Z M 554.976562 543.84375 C 538.535156 543.84375 525.152344 530.464844 525.152344 514.015625 C 525.152344 497.5625 538.535156 484.179688 554.976562 484.179688 C 571.417969 484.179688 584.800781 497.5625 584.800781 514.015625 C 584.800781 530.464844 571.417969 543.84375 554.976562 543.84375 " fill-opacity="1" fill-rule="nonzero"/><path fill="#5479f7" d="M 555.132812 528.316406 C 554.855469 528.488281 554.496094 528.5 554.214844 528.339844 C 551.703125 526.941406 540.085938 519.933594 540.539062 510.769531 C 541.019531 501.089844 551.523438 502.765625 554.121094 507.53125 C 554.21875 507.710938 554.414062 507.820312 554.613281 507.808594 C 554.820312 507.800781 555.003906 507.675781 555.078125 507.484375 C 556.351562 504.421875 560.460938 502.203125 564.335938 503.65625 C 568.949219 505.394531 573.636719 516.84375 555.132812 528.316406 " fill-opacity="1" fill-rule="nonzero"/><path fill="#ffffff" d="M 591.652344 464.726562 C 591.652344 454.300781 600.105469 445.84375 610.527344 445.84375 C 620.957031 445.84375 629.410156 454.300781 629.410156 464.726562 C 629.410156 475.160156 620.957031 483.613281 610.527344 483.613281 C 600.105469 483.613281 591.652344 475.160156 591.652344 464.726562 " fill-opacity="1" fill-rule="nonzero"/><path fill="#000000" d="M 610.535156 447.234375 C 600.898438 447.234375 593.054688 455.085938 593.054688 464.722656 C 593.054688 474.367188 600.898438 482.214844 610.535156 482.214844 C 620.175781 482.214844 628.015625 474.367188 628.015625 464.722656 C 628.015625 455.085938 620.175781 447.234375 610.535156 447.234375 Z M 610.535156 485.007812 C 599.359375 485.007812 590.261719 475.910156 590.261719 464.722656 C 590.261719 453.542969 599.359375 444.445312 610.535156 444.445312 C 621.71875 444.445312 630.8125 453.542969 630.8125 464.722656 C 630.8125 475.910156 621.71875 485.007812 610.535156 485.007812 " fill-opacity="1" fill-rule="nonzero"/><path fill="#5479f7" d="M 610.636719 474.226562 C 610.449219 474.34375 610.214844 474.347656 610.023438 474.242188 C 608.359375 473.308594 600.640625 468.660156 600.941406 462.578125 C 601.261719 456.144531 608.238281 457.257812 609.960938 460.425781 C 610.027344 460.542969 610.15625 460.617188 610.292969 460.609375 C 610.429688 460.605469 610.546875 460.519531 610.601562 460.390625 C 611.441406 458.359375 614.175781 456.886719 616.746094 457.847656 C 619.808594 459.003906 622.925781 466.609375 610.636719 474.226562 " fill-opacity="1" fill-rule="nonzero"/><path fill="#99b9ff" d="M 204.277344 125.703125 C 204.277344 183.234375 250.902344 229.871094 308.410156 229.871094 C 365.929688 229.871094 412.550781 183.234375 412.550781 125.703125 C 412.550781 68.171875 365.929688 21.53125 308.410156 21.53125 C 250.902344 21.53125 204.277344 68.171875 204.277344 125.703125 " fill-opacity="1" fill-rule="nonzero"/><path fill="#000000" d="M 308.414062 231.269531 C 287.046875 231.269531 266.464844 224.917969 248.898438 212.894531 C 248.261719 212.460938 248.101562 211.585938 248.535156 210.953125 C 248.972656 210.316406 249.839844 210.152344 250.476562 210.585938 C 267.578125 222.292969 287.613281 228.476562 308.414062 228.476562 C 365.066406 228.476562 411.152344 182.371094 411.152344 125.699219 C 411.152344 69.035156 365.066406 22.925781 308.414062 22.925781 C 266.410156 22.925781 229.039062 48.074219 213.210938 86.988281 C 212.921875 87.703125 212.101562 88.046875 211.390625 87.757812 C 210.679688 87.460938 210.332031 86.648438 210.625 85.933594 C 226.882812 45.964844 265.269531 20.136719 308.414062 20.136719 C 366.605469 20.136719 413.949219 67.492188 413.949219 125.699219 C 413.949219 183.910156 366.605469 231.269531 308.414062 231.269531 " fill-opacity="1" fill-rule="nonzero"/><path fill="#ffffff" d="M 214.648438 125.738281 C 214.648438 177.613281 256.6875 219.667969 308.546875 219.667969 C 360.410156 219.667969 402.449219 177.613281 402.449219 125.738281 C 402.449219 73.859375 360.410156 31.804688 308.546875 31.804688 C 256.6875 31.804688 214.648438 73.859375 214.648438 125.738281 " fill-opacity="1" fill-rule="nonzero"/><path fill="#000000" d="M 233.828125 177.410156 C 233.378906 177.410156 232.9375 177.195312 232.667969 176.796875 C 229.910156 172.710938 227.472656 168.382812 225.414062 163.917969 C 225.09375 163.21875 225.398438 162.390625 226.097656 162.066406 C 226.796875 161.742188 227.625 162.046875 227.949219 162.75 C 229.945312 167.074219 232.308594 171.277344 234.980469 175.230469 C 235.414062 175.871094 235.246094 176.742188 234.605469 177.171875 C 234.367188 177.332031 234.09375 177.410156 233.828125 177.410156 " fill-opacity="1" fill-rule="nonzero"/><path fill="#caddff" d="M 390.757812 127.4375 C 389.644531 77.285156 345.21875 44.335938 310.5625 44.335938 C 310.523438 44.335938 310.484375 44.335938 310.453125 44.335938 L 310.5625 123.050781 L 390.757812 127.4375 " fill-opacity="1" fill-rule="nonzero"/><path fill="#99b9ff" d="M 303.515625 206.308594 C 303.515625 209.011719 305.707031 211.207031 308.410156 211.207031 C 311.117188 211.207031 313.308594 209.011719 313.308594 206.308594 C 313.308594 203.605469 311.117188 201.414062 308.410156 201.414062 C 305.707031 201.414062 303.515625 203.605469 303.515625 206.308594 " fill-opacity="1" fill-rule="nonzero"/><path fill="#99b9ff" d="M 388.984375 120.808594 C 386.28125 120.808594 384.09375 123.003906 384.09375 125.707031 C 384.09375 128.410156 386.28125 130.601562 388.984375 130.601562 C 391.691406 130.601562 393.882812 128.410156 393.882812 125.707031 C 393.882812 123.003906 391.691406 120.808594 388.984375 120.808594 " fill-opacity="1" fill-rule="nonzero"/><path fill="#99b9ff" d="M 227.835938 120.808594 C 225.132812 120.808594 222.941406 123.003906 222.941406 125.707031 C 222.941406 128.410156 225.132812 130.601562 227.835938 130.601562 C 230.539062 130.601562 232.730469 128.410156 232.730469 125.707031 C 232.730469 123.003906 230.539062 120.808594 227.835938 120.808594 " fill-opacity="1" fill-rule="nonzero"/><path fill="#99b9ff" d="M 346.445312 54.59375 C 345.726562 55.84375 346.15625 57.433594 347.398438 58.15625 C 348.644531 58.875 350.238281 58.445312 350.960938 57.203125 C 351.679688 55.957031 351.25 54.363281 350.007812 53.640625 C 348.757812 52.921875 347.167969 53.351562 346.445312 54.59375 " fill-opacity="1" fill-rule="nonzero"/><path fill="#99b9ff" d="M 379.492188 163.75 C 378.25 163.027344 376.65625 163.457031 375.941406 164.699219 C 375.214844 165.945312 375.648438 167.542969 376.894531 168.257812 C 378.140625 168.980469 379.734375 168.554688 380.449219 167.308594 C 381.167969 166.0625 380.738281 164.464844 379.492188 163.75 " fill-opacity="1" fill-rule="nonzero"/><path fill="#99b9ff" d="M 239.933594 83.144531 C 238.6875 82.425781 237.097656 82.851562 236.375 84.097656 C 235.65625 85.34375 236.082031 86.9375 237.328125 87.660156 C 238.574219 88.378906 240.167969 87.949219 240.886719 86.707031 C 241.609375 85.460938 241.179688 83.863281 239.933594 83.144531 " fill-opacity="1" fill-rule="nonzero"/><path fill="#99b9ff" d="M 376.894531 83.144531 C 375.644531 83.863281 375.21875 85.460938 375.941406 86.707031 C 376.65625 87.949219 378.25 88.378906 379.496094 87.660156 C 380.742188 86.9375 381.167969 85.34375 380.449219 84.097656 C 379.734375 82.851562 378.140625 82.425781 376.894531 83.144531 " fill-opacity="1" fill-rule="nonzero"/><path fill="#99b9ff" d="M 237.328125 163.75 C 236.082031 164.464844 235.65625 166.0625 236.375 167.308594 C 237.09375 168.554688 238.6875 168.980469 239.933594 168.257812 C 241.179688 167.542969 241.605469 165.945312 240.886719 164.699219 C 240.167969 163.457031 238.574219 163.027344 237.328125 163.75 " fill-opacity="1" fill-rule="nonzero"/><path fill="#99b9ff" d="M 350.960938 194.207031 C 350.238281 192.960938 348.644531 192.53125 347.394531 193.253906 C 346.15625 193.972656 345.726562 195.566406 346.441406 196.8125 C 347.167969 198.058594 348.761719 198.484375 350.003906 197.765625 C 351.25 197.046875 351.675781 195.453125 350.960938 194.207031 " fill-opacity="1" fill-rule="nonzero"/><path fill="#99b9ff" d="M 270.382812 54.59375 C 269.660156 53.351562 268.070312 52.921875 266.824219 53.640625 C 265.578125 54.363281 265.152344 55.957031 265.871094 57.203125 C 266.589844 58.445312 268.183594 58.875 269.425781 58.15625 C 270.671875 57.433594 271.101562 55.84375 270.382812 54.59375 " fill-opacity="1" fill-rule="nonzero"/><path fill="#99b9ff" d="M 270.378906 195.421875 C 269.660156 194.179688 268.066406 193.75 266.820312 194.46875 C 265.574219 195.1875 265.148438 196.785156 265.867188 198.027344 C 266.585938 199.277344 268.179688 199.707031 269.425781 198.980469 C 270.671875 198.261719 271.097656 196.671875 270.378906 195.421875 " fill-opacity="1" fill-rule="nonzero"/><path fill="#5479f7" d="M 301.53125 91.433594 C 301.023438 119.054688 304.023438 126.792969 307.894531 126.867188 C 311.765625 126.9375 315.046875 119.3125 315.554688 91.691406 C 315.917969 71.945312 312.785156 47.292969 310.96875 34.832031 C 310.6875 32.929688 308.542969 32.894531 308.199219 34.785156 C 305.925781 47.164062 301.890625 71.691406 301.53125 91.433594 " fill-opacity="1" fill-rule="nonzero"/><path fill="#5479f7" d="M 328.957031 119.554688 C 309.085938 118.984375 305.078125 120.207031 304.960938 124.269531 C 304.847656 128.335938 307.941406 131.324219 327.804688 131.894531 C 342.003906 132.308594 362.132812 129.519531 371.121094 127.632812 C 372.496094 127.339844 372.5625 125.085938 371.207031 124.71875 C 362.339844 122.324219 343.152344 119.964844 328.957031 119.554688 " fill-opacity="1" fill-rule="nonzero"/><path fill="#000000" d="M 320.878906 120.820312 C 315.601562 120.820312 312.144531 121.050781 309.84375 121.542969 C 306.417969 122.265625 306.386719 123.402344 306.359375 124.308594 C 306.320312 125.578125 306.527344 126.917969 309.421875 128.097656 C 312.726562 129.453125 318.753906 130.242188 327.84375 130.5 C 341.527344 130.878906 361.589844 128.203125 370.835938 126.261719 C 370.800781 126.253906 370.804688 126.082031 370.769531 126.015625 C 362.082031 123.699219 342.875 121.355469 328.914062 120.953125 C 325.851562 120.863281 323.1875 120.820312 320.878906 120.820312 Z M 330.734375 133.332031 C 329.71875 133.332031 328.730469 133.320312 327.765625 133.289062 C 318.199219 133.019531 312.035156 132.191406 308.363281 130.6875 C 305.003906 129.308594 303.480469 127.261719 303.566406 124.230469 C 303.675781 120.472656 306.667969 119.359375 309.265625 118.8125 C 312.804688 118.054688 318.703125 117.863281 328.992188 118.160156 C 343.140625 118.566406 362.632812 120.957031 371.570312 123.371094 C 372.816406 123.710938 373.621094 124.867188 373.582031 126.242188 C 373.542969 127.628906 372.671875 128.734375 371.410156 128.996094 C 362.414062 130.886719 344.507812 133.332031 330.734375 133.332031 " fill-opacity="1" fill-rule="nonzero"/><path fill="#5479f7" d="M 302.710938 115.546875 C 297.710938 118.351562 295.933594 124.679688 298.738281 129.675781 C 301.542969 134.671875 307.867188 136.457031 312.867188 133.652344 C 317.859375 130.84375 319.640625 124.519531 316.835938 119.519531 C 314.03125 114.523438 307.710938 112.738281 302.710938 115.546875 " fill-opacity="1" fill-rule="nonzero"/><path fill="#000000" d="M 303.394531 116.757812 C 299.074219 119.183594 297.53125 124.671875 299.957031 128.992188 C 302.378906 133.3125 307.863281 134.855469 312.183594 132.429688 C 314.273438 131.257812 315.785156 129.335938 316.433594 127.03125 C 317.082031 124.722656 316.792969 122.296875 315.621094 120.199219 C 313.195312 115.878906 307.710938 114.339844 303.394531 116.757812 Z M 307.808594 136.371094 C 303.683594 136.371094 299.675781 134.203125 297.519531 130.359375 C 294.347656 124.695312 296.367188 117.503906 302.027344 114.324219 C 307.6875 111.148438 314.875 113.175781 318.054688 118.835938 C 319.59375 121.582031 319.972656 124.753906 319.121094 127.785156 C 318.265625 130.8125 316.289062 133.324219 313.546875 134.867188 C 311.730469 135.886719 309.753906 136.371094 307.808594 136.371094 " fill-opacity="1" fill-rule="nonzero"/><path fill="#5479f7" d="M 402.082031 194.929688 C 401.792969 194.929688 401.507812 194.835938 401.257812 194.660156 C 400.636719 194.203125 400.496094 193.328125 400.953125 192.707031 C 417.054688 170.660156 424.871094 143.496094 422.96875 116.21875 C 421.761719 99.015625 416.929688 82.714844 408.589844 67.777344 C 408.214844 67.101562 408.453125 66.25 409.125 65.875 C 409.796875 65.503906 410.652344 65.738281 411.027344 66.414062 C 419.566406 81.71875 424.523438 98.410156 425.75 116.023438 C 427.699219 143.957031 419.699219 171.773438 403.210938 194.351562 C 402.9375 194.726562 402.511719 194.929688 402.082031 194.929688 " fill-opacity="1" fill-rule="nonzero"/><path fill="#5479f7" d="M 407.050781 207.953125 C 406.742188 207.953125 406.429688 207.851562 406.171875 207.640625 C 405.570312 207.15625 405.484375 206.273438 405.96875 205.675781 C 426.441406 180.453125 436.46875 148.703125 434.203125 116.269531 C 432.75 95.441406 426.175781 75.136719 415.179688 57.542969 C 414.777344 56.890625 414.976562 56.027344 415.625 55.621094 C 416.28125 55.207031 417.144531 55.410156 417.554688 56.0625 C 428.78125 74.039062 435.507812 94.789062 436.992188 116.078125 C 439.304688 149.21875 429.058594 181.664062 408.136719 207.4375 C 407.859375 207.777344 407.457031 207.953125 407.050781 207.953125 " fill-opacity="1" fill-rule="nonzero"/><path fill="#5479f7" d="M 410.246094 221.941406 C 409.910156 221.941406 409.570312 221.820312 409.304688 221.574219 C 408.734375 221.054688 408.699219 220.167969 409.222656 219.601562 C 435.601562 190.96875 448.648438 153.980469 445.960938 115.453125 C 444.195312 90.179688 435.550781 65.886719 420.972656 45.21875 C 420.53125 44.589844 420.683594 43.71875 421.3125 43.273438 C 421.941406 42.828125 422.808594 42.980469 423.257812 43.609375 C 438.132812 64.695312 446.941406 89.472656 448.746094 115.257812 C 451.488281 154.5625 438.179688 192.292969 411.273438 221.492188 C 411 221.796875 410.625 221.941406 410.246094 221.941406 " fill-opacity="1" fill-rule="nonzero"/><path fill="#5479f7" d="M 213.175781 194.929688 C 212.746094 194.929688 212.320312 194.726562 212.046875 194.351562 C 195.5625 171.777344 187.554688 143.957031 189.503906 116.023438 C 190.734375 98.410156 195.691406 81.71875 204.230469 66.414062 C 204.609375 65.746094 205.460938 65.503906 206.132812 65.875 C 206.804688 66.257812 207.046875 67.105469 206.671875 67.777344 C 198.332031 82.714844 193.492188 99.015625 192.289062 116.21875 C 190.386719 143.496094 198.203125 170.660156 214.300781 192.707031 C 214.757812 193.328125 214.621094 194.203125 214 194.660156 C 213.75 194.835938 213.460938 194.929688 213.175781 194.929688 " fill-opacity="1" fill-rule="nonzero"/><path fill="#5479f7" d="M 208.210938 207.953125 C 207.804688 207.953125 207.402344 207.777344 207.125 207.4375 C 186.203125 181.664062 175.957031 149.21875 178.269531 116.078125 C 179.753906 94.789062 186.476562 74.039062 197.707031 56.0625 C 198.117188 55.410156 198.980469 55.207031 199.632812 55.621094 C 200.285156 56.027344 200.484375 56.890625 200.074219 57.542969 C 189.085938 75.128906 182.507812 95.441406 181.054688 116.269531 C 178.789062 148.703125 188.816406 180.453125 209.292969 205.675781 C 209.78125 206.273438 209.6875 207.15625 209.089844 207.640625 C 208.828125 207.851562 208.519531 207.953125 208.210938 207.953125 " fill-opacity="1" fill-rule="nonzero"/><path fill="#5479f7" d="M 205.011719 221.941406 C 204.632812 221.941406 204.257812 221.796875 203.984375 221.492188 C 177.074219 192.292969 163.765625 154.5625 166.511719 115.257812 C 168.3125 89.472656 177.125 64.695312 192 43.609375 C 192.445312 42.980469 193.316406 42.828125 193.945312 43.273438 C 194.574219 43.71875 194.726562 44.589844 194.28125 45.21875 C 179.703125 65.886719 171.0625 90.179688 169.296875 115.453125 C 166.609375 153.980469 179.65625 190.96875 206.035156 219.601562 C 206.558594 220.167969 206.523438 221.054688 205.953125 221.574219 C 205.6875 221.820312 205.347656 221.941406 205.011719 221.941406 " fill-opacity="1" fill-rule="nonzero"/><path fill="#000000" d="M 305.074219 309.277344 C 285.054688 287.601562 255.285156 283.039062 232.910156 289.148438 C 204.59375 296.890625 190.3125 321.394531 180.242188 338.675781 C 162.441406 369.230469 171.039062 380.292969 157.046875 398.039062 C 132.269531 429.46875 93.425781 409.820312 63.226562 432.785156 C 17.160156 467.808594 10.898438 586.675781 73.234375 631.933594 C 114.804688 662.113281 171.351562 644.65625 186.734375 639.910156 C 233.429688 625.496094 291.527344 585.261719 299.863281 530.734375 C 306.761719 485.640625 277.054688 448.125 301.910156 410.328125 C 308.242188 400.703125 313.488281 398.09375 318.1875 386.054688 C 325.820312 366.507812 327.539062 333.59375 305.074219 309.277344 " fill-opacity="1" fill-rule="nonzero"/><path fill="#000000" d="M 244.695312 314.621094 C 255.332031 305.988281 248.601562 280.527344 241.792969 266.792969 C 239.242188 261.648438 227.824219 238.613281 212.808594 239.503906 C 197.382812 240.425781 182.617188 266.324219 188.121094 286.839844 C 195 312.488281 232.230469 324.738281 244.695312 314.621094 " fill-opacity="1" fill-rule="nonzero"/><path fill="#ffffff" d="M 419.582031 672.285156 C 419.582031 672.285156 312.597656 485.738281 297.871094 476.785156 C 283.144531 467.832031 297.871094 562.246094 297.871094 562.246094 L 377.761719 695.652344 L 419.582031 672.285156 " fill-opacity="1" fill-rule="nonzero"/><path fill="#000000" d="M 299.207031 561.757812 L 378.261719 693.773438 L 417.667969 671.753906 C 380.511719 607.011719 308.480469 484.875 297.148438 477.980469 C 296.132812 477.363281 295.738281 477.625 295.574219 477.734375 C 294.03125 478.769531 290.8125 485.113281 294.230469 521.605469 C 296.015625 540.683594 298.835938 559.320312 299.207031 561.757812 Z M 377.761719 697.050781 C 377.285156 697.050781 376.820312 696.808594 376.5625 696.371094 L 296.671875 562.957031 C 296.582031 562.808594 296.519531 562.636719 296.492188 562.460938 C 296.460938 562.261719 293.367188 542.320312 291.453125 521.875 C 287.917969 484.140625 291.222656 477.285156 294.019531 475.414062 C 294.949219 474.789062 296.5 474.320312 298.597656 475.59375 C 313.460938 484.632812 416.417969 663.960938 420.792969 671.589844 C 420.976562 671.914062 421.023438 672.296875 420.925781 672.65625 C 420.824219 673.015625 420.585938 673.320312 420.261719 673.503906 L 378.441406 696.871094 C 378.222656 696.996094 377.992188 697.050781 377.761719 697.050781 " fill-opacity="1" fill-rule="nonzero"/><path fill="#5479f7" d="M 139.929688 473.007812 C 139.929688 473.007812 213.320312 437.007812 297.871094 476.785156 C 297.871094 476.785156 370.3125 721.167969 375.425781 746.582031 C 380.53125 771.996094 346.449219 770.773438 313.773438 765.550781 C 281.097656 760.332031 200.882812 760.386719 167.269531 778.882812 C 133.660156 797.378906 130.207031 752.101562 133.992188 721.917969 C 137.773438 691.738281 139.929688 473.007812 139.929688 473.007812 " fill-opacity="1" fill-rule="nonzero"/><path fill="#ffffff" d="M 146.003906 669.242188 L 250.769531 606.769531 L 307.675781 625.824219 C 307.675781 625.824219 302.675781 631.304688 294.582031 628.648438 C 286.492188 625.984375 275.089844 626.710938 266.988281 633.335938 C 258.890625 639.953125 247.890625 633.335938 247.890625 633.335938 C 247.890625 633.335938 181.296875 732.015625 122.589844 734.050781 C 74.867188 735.699219 100.953125 568.019531 112.378906 505.234375 C 115.007812 490.796875 125.003906 478.785156 138.710938 473.558594 L 156.277344 466.855469 L 146.003906 669.242188 " fill-opacity="1" fill-rule="nonzero"/><path fill="#000000" d="M 154.777344 468.925781 L 139.207031 474.863281 C 126.027344 479.890625 116.277344 491.625 113.753906 505.484375 C 103.523438 561.691406 82.601562 695.753906 109.242188 726.589844 C 112.921875 730.851562 117.261719 732.824219 122.542969 732.65625 C 179.863281 730.671875 246.070312 633.535156 246.734375 632.554688 C 247.148438 631.9375 247.972656 631.753906 248.609375 632.136719 C 248.707031 632.195312 258.878906 638.160156 266.105469 632.253906 C 274.804688 625.140625 286.894531 624.648438 295.019531 627.316406 C 299.476562 628.78125 302.851562 627.523438 304.792969 626.332031 L 250.933594 608.296875 L 146.71875 670.441406 C 146.277344 670.707031 145.726562 670.707031 145.285156 670.441406 C 144.84375 670.175781 144.582031 669.6875 144.609375 669.175781 Z M 121.898438 735.457031 C 116.132812 735.457031 111.167969 733.089844 107.128906 728.417969 C 79.703125 696.671875 100.703125 561.585938 111.003906 504.984375 C 113.703125 490.171875 124.128906 477.625 138.214844 472.253906 L 155.78125 465.550781 C 156.222656 465.382812 156.71875 465.449219 157.101562 465.726562 C 157.480469 466.007812 157.695312 466.453125 157.671875 466.925781 L 147.53125 666.710938 L 250.054688 605.570312 C 250.402344 605.359375 250.828125 605.3125 251.210938 605.445312 L 308.121094 624.503906 C 308.566406 624.652344 308.910156 625.019531 309.027344 625.472656 C 309.144531 625.929688 309.023438 626.421875 308.707031 626.769531 C 308.480469 627.015625 302.996094 632.878906 294.148438 629.972656 C 286.75 627.542969 275.753906 627.96875 267.875 634.414062 C 260.628906 640.339844 251.527344 636.742188 248.332031 635.152344 C 244.882812 640.113281 229.296875 662.039062 208.261719 683.898438 C 176.167969 717.246094 147.363281 734.589844 122.640625 735.441406 C 122.390625 735.453125 122.144531 735.457031 121.898438 735.457031 " fill-opacity="1" fill-rule="nonzero"/><path fill="#000000" d="M 426.863281 692.894531 L 273.941406 699.074219 C 268.765625 699.074219 265.59375 693.402344 268.300781 688.992188 L 345.445312 563.355469 C 347.335938 560.269531 350.695312 558.386719 354.3125 558.386719 L 508.902344 561.921875 L 426.863281 692.894531 " fill-opacity="1" fill-rule="nonzero"/><path fill="#000000" d="M 354.285156 559.789062 C 351.203125 559.789062 348.257812 561.433594 346.628906 564.085938 L 269.492188 689.722656 C 268.488281 691.355469 268.449219 693.328125 269.382812 695.007812 C 270.320312 696.679688 272.023438 697.675781 273.941406 697.675781 L 426.070312 691.523438 L 506.414062 563.257812 Z M 273.992188 700.46875 C 270.996094 700.46875 268.382812 698.933594 266.945312 696.367188 C 265.511719 693.796875 265.574219 690.765625 267.113281 688.261719 L 344.253906 562.625 C 346.386719 559.148438 350.238281 556.992188 354.3125 556.992188 L 511.386719 560.582031 L 427.65625 694.257812 L 426.917969 694.289062 L 273.996094 700.46875 C 273.996094 700.46875 273.996094 700.46875 273.992188 700.46875 " fill-opacity="1" fill-rule="nonzero"/><path fill="#ffffff" d="M 437.875 699.074219 L 272.808594 699.074219 L 359.1875 558.386719 L 524.257812 558.386719 L 437.875 699.074219 " fill-opacity="1" fill-rule="nonzero"/><path fill="#000000" d="M 275.304688 697.675781 L 437.097656 697.675781 L 521.761719 559.789062 L 359.96875 559.789062 Z M 437.875 700.472656 L 272.808594 700.472656 C 272.300781 700.472656 271.835938 700.199219 271.589844 699.753906 C 271.339844 699.316406 271.351562 698.773438 271.617188 698.34375 L 357.996094 557.660156 C 358.25 557.246094 358.703125 556.992188 359.1875 556.992188 L 524.257812 556.992188 C 524.761719 556.992188 525.226562 557.265625 525.476562 557.707031 C 525.722656 558.148438 525.710938 558.6875 525.445312 559.117188 L 439.0625 699.804688 C 438.808594 700.21875 438.363281 700.472656 437.875 700.472656 " fill-opacity="1" fill-rule="nonzero"/><path fill="#ffffff" d="M 441.671875 692.894531 C 441.671875 692.894531 438.570312 676.636719 441.671875 665.789062 C 444.773438 654.9375 464.007812 622.675781 469.503906 615.921875 C 474.996094 609.171875 479.660156 681.261719 441.671875 692.894531 " fill-opacity="1" fill-rule="nonzero"/><path fill="#000000" d="M 470.179688 617.328125 C 464.082031 625.234375 445.898438 656.082031 443.011719 666.167969 C 440.589844 674.636719 442.113281 686.761719 442.777344 691.050781 C 458.882812 685.230469 466.003906 668.03125 469.152344 654.410156 C 473.242188 636.667969 471.773438 620.792969 470.179688 617.328125 Z M 441.671875 694.289062 C 441.417969 694.289062 441.171875 694.21875 440.953125 694.089844 C 440.609375 693.882812 440.371094 693.546875 440.300781 693.15625 C 440.167969 692.476562 437.171875 676.441406 440.332031 665.402344 C 443.433594 654.539062 462.617188 622.167969 468.417969 615.042969 C 469.445312 613.78125 470.601562 614.089844 470.933594 614.210938 C 474.960938 615.710938 474.585938 632.296875 474.527344 634.183594 C 473.800781 658.628906 464.894531 687.242188 442.078125 694.226562 C 441.949219 694.269531 441.808594 694.289062 441.671875 694.289062 " fill-opacity="1" fill-rule="nonzero"/><path fill="#ffffff" d="M 263.203125 420.039062 C 267.980469 422.429688 273.761719 421.511719 277.53125 417.726562 C 281.863281 413.386719 285.355469 408.773438 288.195312 404.105469 L 293.65625 404.214844 C 295.398438 404.253906 296.851562 402.890625 296.929688 401.144531 L 297.871094 379.816406 C 310.429688 359.328125 300.542969 348.347656 300.542969 348.347656 C 299.613281 337.835938 273.089844 331.570312 258.234375 351.824219 C 248.15625 365.5625 233.660156 351.824219 233.660156 351.824219 C 233.660156 351.824219 226.070312 331.351562 217.1875 343.945312 C 208.308594 356.539062 225.917969 378.6875 225.917969 378.6875 L 212.761719 434.738281 C 209.726562 447.671875 200.484375 458.257812 188.085938 463.015625 L 175.453125 467.855469 C 175.453125 467.855469 195.1875 532.53125 251.085938 531.328125 C 293.746094 530.417969 275.351562 472.746094 275.351562 472.746094 L 269.75 470.269531 C 255.082031 463.800781 247.050781 447.84375 250.59375 432.199219 L 254.351562 415.601562 L 263.203125 420.039062 " fill-opacity="1" fill-rule="nonzero"/><path fill="#000000" d="M 258.824219 421.171875 C 258.617188 421.171875 258.410156 421.125 258.210938 421.027344 C 241.898438 413.09375 240.335938 393.875 240.277344 393.0625 C 240.222656 392.292969 240.800781 391.625 241.570312 391.570312 C 242.339844 391.515625 243.007812 392.089844 243.0625 392.859375 C 243.078125 393.042969 244.589844 411.296875 259.433594 418.519531 C 260.128906 418.855469 260.417969 419.6875 260.078125 420.386719 C 259.835938 420.878906 259.339844 421.171875 258.824219 421.171875 " fill-opacity="1" fill-rule="nonzero"/><path fill="#000000" d="M 563.140625 328.71875 C 563.097656 328.71875 563.050781 328.71875 563.003906 328.714844 C 562.238281 328.640625 561.671875 327.957031 561.75 327.1875 L 573.207031 209.234375 C 573.277344 208.46875 573.964844 207.898438 574.730469 207.980469 C 575.496094 208.054688 576.0625 208.738281 575.984375 209.503906 L 564.527344 327.464844 C 564.457031 328.179688 563.847656 328.71875 563.140625 328.71875 " fill-opacity="1" fill-rule="nonzero"/><path fill="#000000" d="M 546.535156 324.5 C 545.847656 324.5 545.246094 323.992188 545.152344 323.296875 L 537.597656 268.410156 C 537.492188 267.644531 538.03125 266.945312 538.792969 266.839844 C 539.554688 266.742188 540.257812 267.265625 540.363281 268.03125 L 547.917969 322.917969 C 548.019531 323.675781 547.488281 324.382812 546.722656 324.488281 C 546.660156 324.496094 546.597656 324.5 546.535156 324.5 " fill-opacity="1" fill-rule="nonzero"/><path fill="#000000" d="M 61.449219 350.933594 C 60.902344 350.933594 60.386719 350.613281 60.160156 350.078125 C 59.863281 349.367188 60.199219 348.550781 60.910156 348.253906 L 65.070312 346.507812 C 65.78125 346.210938 66.601562 346.546875 66.898438 347.261719 C 67.195312 347.96875 66.859375 348.789062 66.148438 349.085938 L 61.988281 350.828125 C 61.8125 350.902344 61.628906 350.933594 61.449219 350.933594 " fill-opacity="1" fill-rule="nonzero"/><path fill="#000000" d="M 41.519531 359.273438 C 40.972656 359.273438 40.457031 358.953125 40.230469 358.414062 C 39.933594 357.707031 40.269531 356.886719 40.980469 356.589844 L 45.140625 354.851562 C 45.851562 354.550781 46.671875 354.886719 46.96875 355.597656 C 47.265625 356.308594 46.929688 357.128906 46.21875 357.425781 L 42.058594 359.167969 C 41.882812 359.238281 41.699219 359.273438 41.519531 359.273438 " fill-opacity="1" fill-rule="nonzero"/><path fill="#000000" d="M 50.164062 346.355469 C 49.625 346.355469 49.109375 346.039062 48.882812 345.511719 L 47.085938 341.355469 C 46.78125 340.648438 47.105469 339.824219 47.8125 339.523438 C 48.523438 339.214844 49.34375 339.539062 49.648438 340.246094 L 51.445312 344.402344 C 51.75 345.113281 51.425781 345.9375 50.714844 346.242188 C 50.535156 346.316406 50.347656 346.355469 50.164062 346.355469 " fill-opacity="1" fill-rule="nonzero"/><path fill="#000000" d="M 58.761719 366.273438 C 58.222656 366.273438 57.707031 365.957031 57.480469 365.429688 L 55.6875 361.269531 C 55.378906 360.5625 55.707031 359.742188 56.414062 359.433594 C 57.121094 359.128906 57.941406 359.457031 58.25 360.164062 L 60.042969 364.320312 C 60.347656 365.03125 60.023438 365.851562 59.316406 366.15625 C 59.132812 366.234375 58.949219 366.273438 58.761719 366.273438 " fill-opacity="1" fill-rule="nonzero"/><path fill="#000000" d="M 454.601562 20.882812 C 454.597656 20.882812 454.589844 20.882812 454.589844 20.882812 C 452.929688 20.886719 451.378906 21.53125 450.207031 22.710938 C 447.785156 25.125 447.78125 29.054688 450.183594 31.460938 C 451.34375 32.625 452.898438 33.265625 454.542969 33.265625 C 454.546875 33.265625 454.550781 33.265625 454.558594 33.265625 C 456.210938 33.261719 457.765625 32.613281 458.941406 31.445312 C 460.109375 30.269531 460.757812 28.714844 460.761719 27.058594 C 460.761719 25.40625 460.125 23.851562 458.957031 22.6875 C 457.792969 21.523438 456.25 20.882812 454.601562 20.882812 Z M 454.542969 36.058594 C 452.144531 36.058594 449.902344 35.128906 448.207031 33.4375 C 444.71875 29.941406 444.722656 24.242188 448.230469 20.730469 C 449.929688 19.03125 452.183594 18.097656 454.585938 18.089844 C 454.589844 18.089844 454.597656 18.089844 454.601562 18.089844 C 456.996094 18.089844 459.242188 19.023438 460.929688 20.710938 C 462.628906 22.40625 463.558594 24.660156 463.550781 27.066406 C 463.546875 29.460938 462.609375 31.71875 460.910156 33.417969 C 459.214844 35.117188 456.957031 36.054688 454.558594 36.058594 C 454.558594 36.058594 454.546875 36.058594 454.542969 36.058594 " fill-opacity="1" fill-rule="nonzero"/><path fill="#000000" d="M 58.929688 279.691406 C 58.757812 279.691406 58.585938 279.65625 58.417969 279.59375 C 57.703125 279.316406 57.347656 278.5 57.628906 277.78125 C 70.503906 244.871094 92.886719 199.402344 126.40625 169.722656 C 126.984375 169.214844 127.863281 169.269531 128.375 169.84375 C 128.886719 170.417969 128.832031 171.300781 128.253906 171.8125 C 95.152344 201.125 72.992188 246.175781 60.226562 278.804688 C 60.011719 279.351562 59.484375 279.691406 58.929688 279.691406 " fill-opacity="1" fill-rule="nonzero"/><path fill="#000000" d="M 60.3125 319.398438 C 60.191406 319.398438 60.070312 319.378906 59.949219 319.347656 C 59.203125 319.144531 58.761719 318.378906 58.964844 317.640625 C 68.191406 283.519531 85.507812 235.890625 115.605469 202.742188 C 116.125 202.175781 117.007812 202.128906 117.578125 202.652344 C 118.148438 203.164062 118.191406 204.050781 117.671875 204.621094 C 87.949219 237.355469 70.804688 284.546875 61.660156 318.363281 C 61.488281 318.988281 60.925781 319.398438 60.3125 319.398438 " fill-opacity="1" fill-rule="nonzero"/><g fill="#000000" fill-opacity="1"><g transform="translate(548.036808, 803.24998)"><g><path d="M 3.9375 0.140625 C 3.382812 0.140625 2.945312 -0.015625 2.625 -0.328125 C 2.300781 -0.640625 2.140625 -1.050781 2.140625 -1.5625 C 2.140625 -2.070312 2.300781 -2.488281 2.625 -2.8125 C 2.945312 -3.144531 3.382812 -3.3125 3.9375 -3.3125 C 4.507812 -3.3125 4.953125 -3.15625 5.265625 -2.84375 C 5.585938 -2.53125 5.75 -2.113281 5.75 -1.59375 C 5.75 -1.082031 5.585938 -0.664062 5.265625 -0.34375 C 4.941406 -0.0195312 4.5 0.140625 3.9375 0.140625 Z M 3.9375 0.140625 "/></g></g></g></svg>