<svg xmlns="http://www.w3.org/2000/svg" xmlns:xlink="http://www.w3.org/1999/xlink" width="1080" zoomAndPan="magnify" viewBox="0 0 810 809.999993" height="1080" preserveAspectRatio="xMidYMid meet" version="1.0"><defs><g/></defs><path fill="#caddff" d="M 68.609375 172.671875 C 124.644531 77.640625 231.300781 54.40625 271.527344 45.648438 C 408.425781 15.828125 610.988281 51.65625 708.722656 213.625 C 794.503906 355.777344 746.738281 507.605469 739.816406 528.425781 C 728.214844 563.335938 699.148438 647.066406 616.742188 703.78125 C 488.46875 792.078125 292.9375 772.269531 226.023438 681.125 C 194.597656 638.320312 220.027344 618.574219 183.429688 542.886719 C 134.410156 441.515625 73.570312 443.949219 45.222656 362.785156 C 13.222656 271.167969 63.429688 181.453125 68.609375 172.671875 " fill-opacity="1" fill-rule="nonzero"/><path fill="#99b9ff" d="M 35.765625 627.476562 C 35.3125 627.476562 34.875 627.242188 34.628906 626.824219 C 34.265625 626.195312 34.476562 625.394531 35.101562 625.027344 L 74.613281 601.976562 C 75.238281 601.609375 76.042969 601.820312 76.40625 602.445312 C 76.773438 603.070312 76.5625 603.878906 75.933594 604.242188 L 36.425781 627.296875 C 36.214844 627.414062 35.992188 627.476562 35.765625 627.476562 " fill-opacity="1" fill-rule="nonzero"/><path fill="#99b9ff" d="M 260.351562 627.902344 C 260.125 627.902344 259.894531 627.84375 259.683594 627.71875 L 243.90625 618.355469 C 243.28125 617.980469 243.074219 617.179688 243.445312 616.554688 C 243.816406 615.933594 244.621094 615.726562 245.246094 616.09375 L 261.023438 625.460938 C 261.648438 625.832031 261.851562 626.636719 261.484375 627.261719 C 261.238281 627.671875 260.800781 627.902344 260.351562 627.902344 " fill-opacity="1" fill-rule="nonzero"/><path fill="#99b9ff" d="M 227.46875 608.386719 C 227.242188 608.386719 227.007812 608.332031 226.800781 608.203125 L 191.917969 587.503906 C 191.292969 587.132812 191.085938 586.328125 191.457031 585.707031 C 191.828125 585.082031 192.632812 584.875 193.253906 585.246094 L 228.136719 605.945312 C 228.761719 606.316406 228.96875 607.121094 228.597656 607.746094 C 228.351562 608.160156 227.917969 608.386719 227.46875 608.386719 " fill-opacity="1" fill-rule="nonzero"/><path fill="#99b9ff" d="M 170.695312 574.628906 C 170.464844 574.628906 170.234375 574.566406 170.023438 574.441406 L 148.152344 561.390625 C 147.527344 561.019531 147.324219 560.214844 147.695312 559.59375 C 148.066406 558.96875 148.871094 558.765625 149.496094 559.136719 L 171.367188 572.183594 C 171.988281 572.558594 172.191406 573.363281 171.820312 573.984375 C 171.578125 574.398438 171.140625 574.628906 170.695312 574.628906 " fill-opacity="1" fill-rule="nonzero"/><path fill="#99b9ff" d="M 98.234375 591.046875 C 97.78125 591.046875 97.34375 590.8125 97.097656 590.394531 C 96.734375 589.769531 96.945312 588.964844 97.574219 588.601562 L 131.125 569.054688 C 131.75 568.6875 132.554688 568.902344 132.921875 569.527344 C 133.285156 570.15625 133.074219 570.957031 132.445312 571.320312 L 98.894531 590.867188 C 98.6875 590.988281 98.457031 591.046875 98.234375 591.046875 " fill-opacity="1" fill-rule="nonzero"/><path fill="#5479f7" d="M 147.570312 728.75 C 147.347656 728.75 147.121094 728.691406 146.917969 728.578125 C 146.511719 728.34375 146.257812 727.90625 146.257812 727.4375 L 146.257812 691.265625 C 146.257812 690.796875 146.511719 690.363281 146.917969 690.128906 L 177.269531 672.71875 C 177.898438 672.363281 178.703125 672.578125 179.0625 673.207031 C 179.421875 673.835938 179.207031 674.636719 178.578125 675 L 148.882812 692.027344 L 148.882812 725.136719 L 259.042969 660.144531 L 259.042969 628.855469 L 205.28125 659.6875 C 204.648438 660.046875 203.847656 659.832031 203.488281 659.199219 C 203.125 658.570312 203.34375 657.769531 203.972656 657.40625 L 259.703125 625.449219 C 260.109375 625.21875 260.609375 625.21875 261.011719 625.453125 C 261.417969 625.6875 261.667969 626.121094 261.667969 626.589844 L 261.667969 660.890625 C 261.667969 661.355469 261.421875 661.789062 261.023438 662.023438 L 148.238281 728.570312 C 148.03125 728.691406 147.800781 728.75 147.570312 728.75 " fill-opacity="1" fill-rule="nonzero"/><path fill="#5479f7" d="M 37.078125 660.464844 L 146.257812 725.136719 L 146.257812 692.019531 L 37.078125 628.445312 Z M 147.570312 728.75 C 147.339844 728.75 147.109375 728.691406 146.902344 728.566406 L 35.09375 662.34375 C 34.695312 662.105469 34.453125 661.675781 34.453125 661.21875 L 34.453125 626.160156 C 34.453125 625.691406 34.703125 625.253906 35.109375 625.023438 C 35.519531 624.789062 36.019531 624.789062 36.425781 625.023438 L 148.230469 690.132812 C 148.636719 690.367188 148.882812 690.800781 148.882812 691.265625 L 148.882812 727.4375 C 148.882812 727.910156 148.632812 728.34375 148.222656 728.578125 C 148.019531 728.691406 147.792969 728.75 147.570312 728.75 " fill-opacity="1" fill-rule="nonzero"/><path fill="#99b9ff" d="M 260.351562 567.644531 C 260.125 567.644531 259.898438 567.585938 259.6875 567.460938 L 223.851562 546.296875 C 223.226562 545.925781 223.019531 545.121094 223.386719 544.496094 C 223.757812 543.871094 224.5625 543.664062 225.1875 544.035156 L 261.023438 565.203125 C 261.648438 565.566406 261.851562 566.371094 261.484375 566.996094 C 261.242188 567.414062 260.804688 567.644531 260.351562 567.644531 " fill-opacity="1" fill-rule="nonzero"/><path fill="#99b9ff" d="M 201.8125 532.933594 C 201.585938 532.933594 201.355469 532.871094 201.144531 532.746094 L 164.945312 511.152344 C 164.324219 510.78125 164.121094 509.976562 164.488281 509.351562 C 164.859375 508.730469 165.664062 508.527344 166.289062 508.898438 L 202.484375 530.488281 C 203.109375 530.863281 203.3125 531.671875 202.941406 532.292969 C 202.695312 532.703125 202.257812 532.933594 201.8125 532.933594 " fill-opacity="1" fill-rule="nonzero"/><path fill="#99b9ff" d="M 99.582031 530.019531 C 99.132812 530.019531 98.691406 529.785156 98.449219 529.367188 C 98.082031 528.738281 98.296875 527.9375 98.921875 527.570312 L 148.164062 498.875 C 148.789062 498.507812 149.59375 498.71875 149.957031 499.34375 C 150.320312 499.96875 150.109375 500.777344 149.484375 501.140625 L 100.242188 529.839844 C 100.035156 529.960938 99.808594 530.019531 99.582031 530.019531 " fill-opacity="1" fill-rule="nonzero"/><path fill="#99b9ff" d="M 35.765625 567.214844 C 35.3125 567.214844 34.875 566.980469 34.628906 566.558594 C 34.265625 565.9375 34.476562 565.128906 35.101562 564.765625 L 75.90625 540.984375 C 76.53125 540.621094 77.335938 540.832031 77.699219 541.457031 C 78.066406 542.085938 77.855469 542.890625 77.226562 543.253906 L 36.425781 567.03125 C 36.214844 567.15625 35.992188 567.214844 35.765625 567.214844 " fill-opacity="1" fill-rule="nonzero"/><path fill="#5479f7" d="M 147.570312 668.492188 C 147.347656 668.492188 147.121094 668.433594 146.917969 668.316406 C 146.511719 668.085938 146.257812 667.648438 146.257812 667.179688 L 146.257812 631.007812 C 146.257812 630.539062 146.511719 630.105469 146.917969 629.871094 L 216.804688 589.792969 C 217.429688 589.429688 218.234375 589.648438 218.59375 590.277344 C 218.957031 590.90625 218.738281 591.707031 218.109375 592.066406 L 148.882812 631.769531 L 148.882812 664.878906 L 259.042969 599.886719 L 259.042969 568.59375 L 239.078125 580.046875 C 238.445312 580.40625 237.648438 580.1875 237.285156 579.5625 C 236.925781 578.929688 237.144531 578.128906 237.773438 577.765625 L 259.703125 565.191406 C 260.109375 564.960938 260.609375 564.960938 261.011719 565.195312 C 261.417969 565.425781 261.667969 565.859375 261.667969 566.328125 L 261.667969 600.632812 C 261.667969 601.097656 261.421875 601.523438 261.023438 601.765625 L 148.238281 668.308594 C 148.03125 668.429688 147.800781 668.492188 147.570312 668.492188 " fill-opacity="1" fill-rule="nonzero"/><path fill="#5479f7" d="M 147.570312 668.492188 C 147.339844 668.492188 147.109375 668.429688 146.902344 668.308594 L 93.992188 636.972656 C 93.371094 636.601562 93.164062 635.796875 93.53125 635.171875 C 93.902344 634.546875 94.707031 634.34375 95.332031 634.710938 L 146.257812 664.875 L 146.257812 631.761719 L 37.078125 568.183594 L 37.078125 600.207031 L 76.53125 623.574219 C 77.152344 623.949219 77.359375 624.75 76.992188 625.375 C 76.621094 625.996094 75.820312 626.203125 75.195312 625.835938 L 35.09375 602.085938 C 34.695312 601.847656 34.453125 601.417969 34.453125 600.957031 L 34.453125 565.902344 C 34.453125 565.433594 34.703125 564.996094 35.109375 564.761719 C 35.519531 564.527344 36.019531 564.53125 36.425781 564.765625 L 148.230469 629.875 C 148.636719 630.109375 148.882812 630.539062 148.882812 631.007812 L 148.882812 667.179688 C 148.882812 667.652344 148.632812 668.085938 148.222656 668.316406 C 148.019531 668.433594 147.792969 668.492188 147.570312 668.492188 " fill-opacity="1" fill-rule="nonzero"/><path fill="#99b9ff" d="M 260.300781 507.566406 C 260.074219 507.566406 259.839844 507.507812 259.628906 507.378906 L 228.113281 488.578125 C 227.488281 488.207031 227.285156 487.402344 227.660156 486.777344 C 228.03125 486.15625 228.832031 485.953125 229.457031 486.320312 L 260.976562 505.125 C 261.597656 505.5 261.800781 506.304688 261.429688 506.925781 C 261.183594 507.335938 260.75 507.566406 260.300781 507.566406 " fill-opacity="1" fill-rule="nonzero"/><path fill="#99b9ff" d="M 228.785156 488.765625 C 228.554688 488.765625 228.324219 488.703125 228.113281 488.578125 L 196.5 469.71875 C 195.875 469.34375 195.671875 468.539062 196.042969 467.917969 C 196.414062 467.296875 197.222656 467.089844 197.84375 467.460938 L 229.457031 486.320312 C 230.082031 486.695312 230.285156 487.5 229.914062 488.125 C 229.667969 488.535156 229.230469 488.765625 228.785156 488.765625 " fill-opacity="1" fill-rule="nonzero"/><path fill="#99b9ff" d="M 177.570312 458.210938 C 177.34375 458.210938 177.109375 458.152344 176.898438 458.023438 L 148.152344 440.875 C 147.527344 440.5 147.324219 439.699219 147.695312 439.074219 C 148.066406 438.449219 148.871094 438.25 149.496094 438.617188 L 178.242188 455.769531 C 178.867188 456.140625 179.070312 456.949219 178.699219 457.566406 C 178.453125 457.980469 178.015625 458.210938 177.570312 458.210938 " fill-opacity="1" fill-rule="nonzero"/><path fill="#99b9ff" d="M 94.703125 472.601562 C 94.253906 472.601562 93.8125 472.367188 93.570312 471.949219 C 93.203125 471.324219 93.417969 470.523438 94.042969 470.15625 L 127.199219 450.828125 C 127.828125 450.460938 128.628906 450.675781 128.996094 451.304688 C 129.359375 451.925781 129.148438 452.734375 128.523438 453.097656 L 95.363281 472.421875 C 95.15625 472.542969 94.929688 472.601562 94.703125 472.601562 " fill-opacity="1" fill-rule="nonzero"/><path fill="#99b9ff" d="M 35.765625 506.953125 C 35.3125 506.953125 34.875 506.722656 34.628906 506.300781 C 34.265625 505.675781 34.476562 504.871094 35.101562 504.503906 L 68.101562 485.273438 C 68.730469 484.90625 69.53125 485.121094 69.898438 485.746094 C 70.261719 486.375 70.050781 487.175781 69.425781 487.539062 L 36.425781 506.773438 C 36.214844 506.894531 35.992188 506.953125 35.765625 506.953125 " fill-opacity="1" fill-rule="nonzero"/><path fill="#5479f7" d="M 247.894531 549.039062 C 247.445312 549.039062 247.007812 548.808594 246.761719 548.390625 C 246.394531 547.769531 246.601562 546.960938 247.226562 546.597656 L 259.042969 539.625 L 259.042969 508.335938 L 195.746094 544.636719 C 195.113281 544.996094 194.3125 544.777344 193.953125 544.148438 C 193.59375 543.519531 193.808594 542.71875 194.4375 542.359375 L 259.703125 504.929688 C 260.109375 504.699219 260.609375 504.699219 261.011719 504.933594 C 261.417969 505.167969 261.667969 505.601562 261.667969 506.070312 L 261.667969 540.371094 C 261.667969 540.835938 261.421875 541.269531 261.023438 541.503906 L 248.558594 548.855469 C 248.351562 548.980469 248.121094 549.039062 247.894531 549.039062 " fill-opacity="1" fill-rule="nonzero"/><path fill="#5479f7" d="M 147.570312 608.230469 C 147.347656 608.230469 147.121094 608.175781 146.917969 608.058594 C 146.511719 607.824219 146.257812 607.386719 146.257812 606.917969 L 146.257812 570.746094 C 146.257812 570.277344 146.511719 569.839844 146.917969 569.609375 L 168.222656 557.390625 C 168.855469 557.03125 169.652344 557.246094 170.015625 557.878906 C 170.375 558.503906 170.160156 559.308594 169.53125 559.667969 L 148.882812 571.511719 L 148.882812 604.621094 L 226.621094 558.75 C 227.25 558.382812 228.054688 558.589844 228.421875 559.214844 C 228.789062 559.839844 228.582031 560.644531 227.957031 561.011719 L 148.238281 608.046875 C 148.03125 608.171875 147.800781 608.230469 147.570312 608.230469 " fill-opacity="1" fill-rule="nonzero"/><path fill="#5479f7" d="M 37.078125 539.949219 L 146.257812 604.617188 L 146.257812 571.5 L 37.078125 507.925781 Z M 147.570312 608.230469 C 147.339844 608.230469 147.109375 608.171875 146.902344 608.046875 L 35.09375 541.828125 C 34.695312 541.589844 34.453125 541.160156 34.453125 540.699219 L 34.453125 505.640625 C 34.453125 505.171875 34.703125 504.734375 35.109375 504.5 C 35.519531 504.265625 36.019531 504.269531 36.425781 504.503906 L 148.230469 569.613281 C 148.636719 569.847656 148.882812 570.28125 148.882812 570.746094 L 148.882812 606.917969 C 148.882812 607.386719 148.632812 607.824219 148.222656 608.058594 C 148.019531 608.175781 147.792969 608.230469 147.570312 608.230469 " fill-opacity="1" fill-rule="nonzero"/><path fill="#99b9ff" d="M 103.796875 407.027344 C 103.34375 407.027344 102.90625 406.792969 102.660156 406.375 C 102.296875 405.75 102.507812 404.949219 103.132812 404.582031 L 148.164062 378.351562 C 148.574219 378.113281 149.085938 378.117188 149.496094 378.359375 L 168.203125 389.519531 C 168.824219 389.890625 169.027344 390.695312 168.65625 391.320312 C 168.285156 391.941406 167.480469 392.144531 166.855469 391.777344 L 148.816406 381.011719 L 104.457031 406.851562 C 104.246094 406.972656 104.019531 407.027344 103.796875 407.027344 " fill-opacity="1" fill-rule="nonzero"/><path fill="#99b9ff" d="M 35.765625 446.691406 C 35.3125 446.691406 34.875 446.464844 34.628906 446.039062 C 34.265625 445.417969 34.476562 444.613281 35.101562 444.246094 L 77.621094 419.441406 C 78.246094 419.074219 79.050781 419.289062 79.417969 419.914062 C 79.78125 420.539062 79.570312 421.34375 78.941406 421.710938 L 36.425781 446.515625 C 36.214844 446.636719 35.992188 446.691406 35.765625 446.691406 " fill-opacity="1" fill-rule="nonzero"/><path fill="#99b9ff" d="M 260.300781 447.308594 C 260.074219 447.308594 259.839844 447.25 259.628906 447.121094 L 245.707031 438.816406 C 245.085938 438.441406 244.882812 437.640625 245.253906 437.015625 C 245.625 436.394531 246.429688 436.191406 247.054688 436.5625 L 260.976562 444.867188 C 261.597656 445.238281 261.800781 446.046875 261.429688 446.664062 C 261.183594 447.078125 260.75 447.308594 260.300781 447.308594 " fill-opacity="1" fill-rule="nonzero"/><path fill="#99b9ff" d="M 230.421875 429.484375 C 230.195312 429.484375 229.964844 429.421875 229.753906 429.292969 L 186.15625 403.285156 C 185.535156 402.917969 185.332031 402.113281 185.703125 401.488281 C 186.074219 400.867188 186.878906 400.660156 187.503906 401.035156 L 231.097656 427.042969 C 231.71875 427.414062 231.921875 428.21875 231.554688 428.839844 C 231.304688 429.257812 230.871094 429.484375 230.421875 429.484375 " fill-opacity="1" fill-rule="nonzero"/><path fill="#5479f7" d="M 147.570312 547.972656 C 147.347656 547.972656 147.121094 547.914062 146.917969 547.800781 C 146.511719 547.566406 146.257812 547.128906 146.257812 546.660156 L 146.257812 510.488281 C 146.257812 510.019531 146.511719 509.582031 146.917969 509.351562 L 200.570312 478.582031 C 201.199219 478.222656 202 478.4375 202.363281 479.070312 C 202.722656 479.695312 202.503906 480.5 201.875 480.859375 L 148.882812 511.25 L 148.882812 544.359375 L 259.042969 479.363281 L 259.042969 448.074219 L 223.566406 468.417969 C 222.933594 468.78125 222.132812 468.5625 221.773438 467.933594 C 221.414062 467.308594 221.628906 466.503906 222.257812 466.144531 L 259.703125 444.671875 C 260.109375 444.441406 260.609375 444.441406 261.011719 444.675781 C 261.417969 444.910156 261.667969 445.34375 261.667969 445.8125 L 261.667969 480.113281 C 261.667969 480.578125 261.421875 481.007812 261.023438 481.246094 L 148.238281 547.789062 C 148.03125 547.910156 147.800781 547.972656 147.570312 547.972656 " fill-opacity="1" fill-rule="nonzero"/><path fill="#5479f7" d="M 147.570312 547.972656 C 147.339844 547.972656 147.109375 547.910156 146.902344 547.789062 L 116.554688 529.816406 C 115.933594 529.445312 115.726562 528.636719 116.09375 528.015625 C 116.464844 527.394531 117.269531 527.1875 117.894531 527.554688 L 146.257812 544.355469 L 146.257812 511.242188 L 37.078125 447.664062 L 37.078125 479.6875 L 97.242188 515.324219 C 97.867188 515.695312 98.074219 516.5 97.703125 517.125 C 97.335938 517.75 96.53125 517.953125 95.90625 517.585938 L 35.09375 481.566406 C 34.695312 481.328125 34.453125 480.898438 34.453125 480.433594 L 34.453125 445.382812 C 34.453125 444.914062 34.703125 444.476562 35.109375 444.242188 C 35.519531 444.007812 36.019531 444.011719 36.425781 444.246094 L 148.230469 509.355469 C 148.636719 509.589844 148.882812 510.023438 148.882812 510.488281 L 148.882812 546.660156 C 148.882812 547.128906 148.632812 547.566406 148.222656 547.800781 C 148.019531 547.914062 147.792969 547.972656 147.570312 547.972656 " fill-opacity="1" fill-rule="nonzero"/><path fill="#5479f7" d="M 181.574219 340.078125 C 181.34375 340.078125 181.113281 340.019531 180.902344 339.894531 L 148.816406 320.75 L 128.757812 332.433594 C 128.128906 332.800781 127.328125 332.589844 126.960938 331.960938 C 126.597656 331.332031 126.808594 330.53125 127.433594 330.164062 L 148.164062 318.089844 C 148.574219 317.851562 149.085938 317.855469 149.496094 318.097656 L 182.246094 337.636719 C 182.871094 338.011719 183.074219 338.816406 182.699219 339.4375 C 182.457031 339.851562 182.019531 340.078125 181.574219 340.078125 " fill-opacity="1" fill-rule="nonzero"/><path fill="#5479f7" d="M 75.972656 362.976562 C 75.519531 362.976562 75.082031 362.746094 74.835938 362.324219 C 74.472656 361.699219 74.683594 360.894531 75.308594 360.527344 L 105.332031 343.039062 C 105.957031 342.675781 106.761719 342.886719 107.128906 343.515625 C 107.492188 344.136719 107.277344 344.945312 106.652344 345.3125 L 76.632812 362.796875 C 76.421875 362.917969 76.195312 362.976562 75.972656 362.976562 " fill-opacity="1" fill-rule="nonzero"/><path fill="#5479f7" d="M 35.765625 386.433594 C 35.3125 386.433594 34.875 386.203125 34.628906 385.78125 C 34.265625 385.160156 34.476562 384.351562 35.101562 383.984375 L 56.609375 371.421875 C 57.238281 371.058594 58.039062 371.269531 58.40625 371.890625 C 58.769531 372.519531 58.558594 373.320312 57.933594 373.6875 L 36.425781 386.253906 C 36.21875 386.378906 35.992188 386.433594 35.765625 386.433594 " fill-opacity="1" fill-rule="nonzero"/><path fill="#5479f7" d="M 260.300781 387.046875 C 260.074219 387.046875 259.839844 386.988281 259.628906 386.863281 L 214.132812 359.71875 C 213.507812 359.347656 213.304688 358.542969 213.679688 357.917969 C 214.050781 357.292969 214.855469 357.09375 215.476562 357.464844 L 260.976562 384.605469 C 261.597656 384.980469 261.800781 385.785156 261.429688 386.40625 C 261.183594 386.820312 260.75 387.046875 260.300781 387.046875 " fill-opacity="1" fill-rule="nonzero"/><path fill="#5479f7" d="M 147.570312 487.710938 C 147.347656 487.710938 147.121094 487.65625 146.917969 487.539062 C 146.511719 487.304688 146.257812 486.871094 146.257812 486.398438 L 146.257812 450.230469 C 146.257812 449.757812 146.511719 449.324219 146.917969 449.089844 L 179.226562 430.5625 C 179.855469 430.199219 180.65625 430.417969 181.015625 431.046875 C 181.378906 431.679688 181.160156 432.480469 180.53125 432.839844 L 148.882812 450.992188 L 148.882812 484.101562 L 213.910156 445.734375 C 214.535156 445.367188 215.339844 445.574219 215.707031 446.195312 C 216.074219 446.824219 215.867188 447.625 215.242188 447.996094 L 148.238281 487.527344 C 148.03125 487.652344 147.800781 487.710938 147.570312 487.710938 " fill-opacity="1" fill-rule="nonzero"/><path fill="#5479f7" d="M 228.398438 440.023438 C 227.949219 440.023438 227.511719 439.792969 227.269531 439.375 C 226.898438 438.753906 227.105469 437.945312 227.730469 437.582031 L 259.042969 419.101562 L 259.042969 387.816406 L 194.796875 424.660156 C 194.167969 425.023438 193.367188 424.804688 193.003906 424.175781 C 192.644531 423.542969 192.863281 422.742188 193.488281 422.378906 L 259.703125 384.410156 C 260.109375 384.179688 260.609375 384.179688 261.011719 384.414062 C 261.417969 384.648438 261.667969 385.082031 261.667969 385.550781 L 261.667969 419.855469 C 261.667969 420.320312 261.421875 420.746094 261.023438 420.984375 L 229.066406 439.839844 C 228.855469 439.964844 228.625 440.023438 228.398438 440.023438 " fill-opacity="1" fill-rule="nonzero"/><path fill="#5479f7" d="M 147.570312 487.710938 C 147.339844 487.710938 147.109375 487.652344 146.902344 487.527344 L 35.09375 421.308594 C 34.695312 421.070312 34.453125 420.640625 34.453125 420.175781 L 34.453125 385.125 C 34.453125 384.652344 34.703125 384.21875 35.109375 383.984375 C 35.519531 383.75 36.019531 383.75 36.425781 383.984375 L 99.15625 420.519531 C 99.78125 420.882812 99.996094 421.683594 99.628906 422.3125 C 99.261719 422.9375 98.460938 423.152344 97.835938 422.785156 L 37.078125 387.40625 L 37.078125 419.429688 L 146.257812 484.097656 L 146.257812 450.984375 L 122.105469 436.917969 C 121.476562 436.550781 121.265625 435.75 121.632812 435.121094 C 121.996094 434.5 122.796875 434.285156 123.425781 434.648438 L 148.230469 449.097656 C 148.636719 449.332031 148.882812 449.761719 148.882812 450.230469 L 148.882812 486.398438 C 148.882812 486.871094 148.632812 487.304688 148.222656 487.539062 C 148.019531 487.65625 147.792969 487.710938 147.570312 487.710938 " fill-opacity="1" fill-rule="nonzero"/><path fill="#99b9ff" d="M 399.199219 213.535156 C 398.472656 213.535156 397.882812 212.949219 397.882812 212.222656 L 397.882812 177.488281 C 397.882812 176.765625 398.472656 176.175781 399.199219 176.175781 C 399.921875 176.175781 400.511719 176.765625 400.511719 177.488281 L 400.511719 212.222656 C 400.511719 212.949219 399.921875 213.535156 399.199219 213.535156 " fill-opacity="1" fill-rule="nonzero"/><path fill="#99b9ff" d="M 399.195312 274.832031 C 398.472656 274.832031 397.882812 274.246094 397.882812 273.519531 L 397.882812 238.789062 C 397.882812 238.0625 398.472656 237.476562 399.195312 237.476562 C 399.917969 237.476562 400.507812 238.0625 400.507812 238.789062 L 400.507812 273.519531 C 400.507812 274.246094 399.917969 274.832031 399.195312 274.832031 " fill-opacity="1" fill-rule="nonzero"/><path fill="#99b9ff" d="M 284.847656 280.4375 C 284.398438 280.4375 283.957031 280.207031 283.714844 279.789062 C 283.347656 279.160156 283.5625 278.355469 284.1875 277.992188 L 398.621094 211.332031 C 399.03125 211.09375 399.546875 211.097656 399.953125 211.339844 L 445.78125 238.679688 C 446.40625 239.050781 446.605469 239.855469 446.238281 240.480469 C 445.863281 241.105469 445.058594 241.304688 444.429688 240.9375 L 399.273438 213.992188 L 285.507812 280.261719 C 285.300781 280.382812 285.074219 280.4375 284.847656 280.4375 " fill-opacity="1" fill-rule="nonzero"/><path fill="#99b9ff" d="M 511.652344 341.292969 C 511.425781 341.292969 511.195312 341.234375 510.980469 341.105469 L 399.273438 274.460938 L 285.507812 340.726562 C 284.878906 341.09375 284.078125 340.882812 283.710938 340.253906 C 283.347656 339.625 283.5625 338.824219 284.1875 338.460938 L 398.617188 271.800781 C 399.03125 271.5625 399.542969 271.5625 399.953125 271.808594 L 512.324219 338.851562 C 512.949219 339.222656 513.152344 340.027344 512.785156 340.652344 C 512.535156 341.058594 512.097656 341.292969 511.652344 341.292969 " fill-opacity="1" fill-rule="nonzero"/><path fill="#99b9ff" d="M 284.847656 401.371094 C 284.398438 401.371094 283.957031 401.140625 283.710938 400.722656 C 283.347656 400.09375 283.5625 399.289062 284.1875 398.925781 L 393.339844 335.339844 C 393.96875 334.980469 394.769531 335.191406 395.136719 335.816406 C 395.5 336.441406 395.289062 337.25 394.664062 337.613281 L 285.507812 401.191406 C 285.300781 401.316406 285.074219 401.371094 284.847656 401.371094 " fill-opacity="1" fill-rule="nonzero"/><path fill="#99b9ff" d="M 284.847656 522.308594 C 284.398438 522.308594 283.957031 522.074219 283.710938 521.65625 C 283.347656 521.03125 283.5625 520.226562 284.1875 519.859375 L 398.617188 453.203125 C 399.242188 452.839844 400.046875 453.050781 400.414062 453.679688 C 400.777344 454.304688 400.566406 455.109375 399.941406 455.472656 L 285.507812 522.128906 C 285.300781 522.253906 285.074219 522.308594 284.847656 522.308594 " fill-opacity="1" fill-rule="nonzero"/><path fill="#5479f7" d="M 397.996094 554.121094 C 397.769531 554.121094 397.539062 554.0625 397.335938 553.945312 L 284.1875 488 C 283.78125 487.765625 283.535156 487.335938 283.535156 486.867188 C 283.535156 486.398438 283.78125 485.96875 284.1875 485.734375 L 380.203125 429.804688 C 380.828125 429.4375 381.632812 429.648438 382 430.277344 C 382.359375 430.902344 382.148438 431.707031 381.523438 432.070312 L 287.453125 486.867188 L 398 551.296875 L 511 486.113281 C 511.625 485.753906 512.425781 485.96875 512.792969 486.597656 C 513.152344 487.222656 512.9375 488.023438 512.3125 488.386719 L 398.652344 553.949219 C 398.449219 554.0625 398.222656 554.121094 397.996094 554.121094 " fill-opacity="1" fill-rule="nonzero"/><path fill="#5479f7" d="M 399.332031 553.023438 L 399.332031 586.421875 L 510.394531 520.894531 L 510.394531 489.332031 Z M 398.015625 590.039062 C 397.792969 590.039062 397.566406 589.980469 397.367188 589.863281 C 396.957031 589.628906 396.703125 589.195312 396.703125 588.722656 L 396.703125 552.261719 C 396.703125 551.792969 396.957031 551.359375 397.363281 551.125 L 511.054688 485.929688 C 511.460938 485.695312 511.960938 485.695312 512.367188 485.933594 C 512.769531 486.164062 513.019531 486.597656 513.019531 487.070312 L 513.019531 521.644531 C 513.019531 522.109375 512.777344 522.539062 512.375 522.777344 L 398.683594 589.855469 C 398.480469 589.976562 398.25 590.039062 398.015625 590.039062 " fill-opacity="1" fill-rule="nonzero"/><path fill="#5479f7" d="M 286.625 521.222656 L 396.703125 586.421875 L 396.703125 553.019531 L 286.625 488.914062 Z M 398.015625 590.039062 C 397.785156 590.039062 397.554688 589.976562 397.347656 589.851562 L 284.644531 523.097656 C 284.246094 522.863281 284 522.433594 284 521.96875 L 284 486.632812 C 284 486.164062 284.25 485.730469 284.660156 485.496094 C 285.066406 485.261719 285.566406 485.261719 285.972656 485.5 L 398.679688 551.128906 C 399.078125 551.363281 399.332031 551.796875 399.332031 552.261719 L 399.332031 588.722656 C 399.332031 589.195312 399.074219 589.628906 398.667969 589.863281 C 398.464844 589.980469 398.242188 590.039062 398.015625 590.039062 " fill-opacity="1" fill-rule="nonzero"/><path fill="#5479f7" d="M 287.457031 243.890625 L 397.996094 308.316406 L 509.0625 244.253906 L 399.273438 178.757812 Z M 397.996094 311.148438 C 397.769531 311.148438 397.539062 311.09375 397.339844 310.972656 L 284.1875 245.027344 C 283.785156 244.789062 283.535156 244.355469 283.535156 243.890625 C 283.535156 243.421875 283.785156 242.992188 284.1875 242.757812 L 398.621094 176.101562 C 399.03125 175.859375 399.542969 175.863281 399.953125 176.105469 L 512.324219 243.148438 C 512.730469 243.386719 512.972656 243.820312 512.96875 244.285156 C 512.964844 244.753906 512.714844 245.179688 512.3125 245.414062 L 398.648438 310.972656 C 398.449219 311.09375 398.222656 311.148438 397.996094 311.148438 " fill-opacity="1" fill-rule="nonzero"/><path fill="#5479f7" d="M 397.996094 493.378906 C 397.769531 493.378906 397.539062 493.320312 397.335938 493.199219 L 284.1875 427.257812 C 283.78125 427.023438 283.535156 426.589844 283.535156 426.121094 C 283.535156 425.65625 283.78125 425.222656 284.1875 424.988281 L 380.179688 369.074219 C 380.804688 368.710938 381.609375 368.921875 381.972656 369.546875 C 382.335938 370.171875 382.125 370.976562 381.496094 371.34375 L 287.453125 426.121094 L 398 490.550781 L 509.128906 426.449219 C 508.605469 426.039062 508.472656 425.289062 508.835938 424.714844 C 509.21875 424.101562 510.03125 423.921875 510.644531 424.3125 L 512.359375 425.398438 C 512.742188 425.644531 512.976562 426.078125 512.964844 426.535156 C 512.957031 426.996094 512.707031 427.414062 512.3125 427.640625 L 398.652344 493.207031 C 398.449219 493.324219 398.222656 493.378906 397.996094 493.378906 " fill-opacity="1" fill-rule="nonzero"/><path fill="#5479f7" d="M 287.453125 365.382812 L 398 429.808594 L 509.0625 365.746094 L 399.273438 300.246094 Z M 397.996094 432.636719 C 397.769531 432.636719 397.539062 432.578125 397.335938 432.457031 L 284.1875 366.515625 C 283.78125 366.28125 283.535156 365.847656 283.535156 365.378906 C 283.535156 364.914062 283.78125 364.480469 284.1875 364.246094 L 398.617188 297.585938 C 399.03125 297.351562 399.542969 297.351562 399.953125 297.59375 L 512.324219 364.636719 C 512.726562 364.875 512.96875 365.308594 512.964844 365.773438 C 512.960938 366.238281 512.710938 366.667969 512.3125 366.902344 L 398.652344 432.460938 C 398.449219 432.578125 398.222656 432.636719 397.996094 432.636719 " fill-opacity="1" fill-rule="nonzero"/><path fill="#5479f7" d="M 286.625 338.992188 L 396.703125 404.191406 L 396.703125 370.789062 L 286.625 306.6875 Z M 398.015625 407.808594 C 397.785156 407.808594 397.554688 407.746094 397.347656 407.625 L 284.644531 340.871094 C 284.246094 340.632812 284 340.203125 284 339.738281 L 284 304.402344 C 284 303.933594 284.25 303.5 284.660156 303.265625 C 285.066406 303.027344 285.566406 303.03125 285.972656 303.265625 L 398.679688 368.898438 C 399.078125 369.136719 399.332031 369.5625 399.332031 370.03125 L 399.332031 406.496094 C 399.332031 406.964844 399.074219 407.402344 398.667969 407.636719 C 398.464844 407.75 398.242188 407.808594 398.015625 407.808594 " fill-opacity="1" fill-rule="nonzero"/><path fill="#5479f7" d="M 397.996094 371.890625 C 397.765625 371.890625 397.539062 371.835938 397.339844 371.714844 L 284.1875 305.769531 C 283.785156 305.535156 283.535156 305.101562 283.535156 304.636719 C 283.535156 304.167969 283.785156 303.734375 284.1875 303.5 L 398.621094 236.84375 C 399.035156 236.601562 399.546875 236.601562 399.953125 236.847656 L 446.226562 264.457031 C 446.851562 264.828125 447.050781 265.632812 446.679688 266.253906 C 446.308594 266.878906 445.507812 267.082031 444.882812 266.710938 L 399.277344 239.5 L 287.457031 304.636719 L 398 369.0625 L 511.003906 303.882812 C 511.628906 303.519531 512.429688 303.734375 512.792969 304.359375 C 513.15625 304.992188 512.941406 305.796875 512.3125 306.15625 L 398.652344 371.714844 C 398.449219 371.835938 398.226562 371.890625 397.996094 371.890625 " fill-opacity="1" fill-rule="nonzero"/><path fill="#5479f7" d="M 399.332031 310.050781 L 399.332031 343.453125 L 510.394531 277.921875 L 510.394531 246.359375 Z M 398.019531 347.0625 C 397.792969 347.0625 397.566406 347.007812 397.367188 346.890625 C 396.960938 346.65625 396.703125 346.222656 396.703125 345.753906 L 396.703125 309.289062 C 396.703125 308.820312 396.957031 308.382812 397.363281 308.148438 L 511.058594 242.953125 C 511.460938 242.71875 511.960938 242.71875 512.367188 242.957031 C 512.769531 243.191406 513.023438 243.625 513.023438 244.089844 L 513.023438 278.671875 C 513.023438 279.136719 512.773438 279.566406 512.375 279.804688 L 398.683594 346.878906 C 398.480469 347.003906 398.25 347.0625 398.019531 347.0625 " fill-opacity="1" fill-rule="nonzero"/><path fill="#99b9ff" d="M 398.015625 527.980469 L 398.015625 491.519531 L 511.707031 426.324219 L 511.707031 460.898438 L 398.015625 527.980469 " fill-opacity="1" fill-rule="nonzero"/><path fill="#000000" d="M 399.332031 492.277344 L 399.332031 525.683594 L 510.394531 460.148438 L 510.394531 428.589844 Z M 398.015625 529.292969 C 397.792969 529.292969 397.566406 529.234375 397.367188 529.121094 C 396.957031 528.886719 396.703125 528.453125 396.703125 527.980469 L 396.703125 491.519531 C 396.703125 491.046875 396.957031 490.617188 397.363281 490.382812 L 511.054688 425.183594 C 511.460938 424.949219 511.960938 424.953125 512.367188 425.1875 C 512.769531 425.421875 513.019531 425.855469 513.019531 426.324219 L 513.019531 460.898438 C 513.019531 461.367188 512.777344 461.792969 512.375 462.03125 L 398.683594 529.113281 C 398.480469 529.230469 398.25 529.292969 398.015625 529.292969 " fill-opacity="1" fill-rule="nonzero"/><path fill="#99b9ff" d="M 398.015625 467.234375 L 398.015625 430.777344 L 511.707031 365.578125 L 511.707031 400.15625 L 398.015625 467.234375 " fill-opacity="1" fill-rule="nonzero"/><path fill="#000000" d="M 399.332031 431.535156 L 399.332031 464.941406 L 510.394531 399.410156 L 510.394531 367.84375 Z M 398.015625 468.550781 C 397.792969 468.550781 397.566406 468.492188 397.367188 468.375 C 396.957031 468.144531 396.703125 467.707031 396.703125 467.234375 L 396.703125 430.777344 C 396.703125 430.304688 396.957031 429.871094 397.363281 429.636719 L 511.054688 364.441406 C 511.460938 364.207031 511.960938 364.210938 512.367188 364.445312 C 512.769531 364.679688 513.019531 365.109375 513.019531 365.578125 L 513.019531 400.15625 C 513.019531 400.621094 512.777344 401.054688 512.375 401.289062 L 398.683594 468.367188 C 398.480469 468.492188 398.25 468.550781 398.015625 468.550781 " fill-opacity="1" fill-rule="nonzero"/><path fill="#99b9ff" d="M 398.015625 406.496094 L 398.015625 370.03125 L 511.707031 304.835938 L 511.707031 339.414062 L 398.015625 406.496094 " fill-opacity="1" fill-rule="nonzero"/><path fill="#000000" d="M 399.332031 370.792969 L 399.332031 404.195312 L 510.394531 338.667969 L 510.394531 307.101562 Z M 398.015625 407.808594 C 397.792969 407.808594 397.566406 407.75 397.367188 407.636719 C 396.957031 407.402344 396.703125 406.964844 396.703125 406.496094 L 396.703125 370.03125 C 396.703125 369.558594 396.957031 369.125 397.363281 368.890625 L 511.054688 303.695312 C 511.460938 303.464844 511.960938 303.464844 512.367188 303.699219 C 512.769531 303.933594 513.019531 304.367188 513.019531 304.835938 L 513.019531 339.414062 C 513.019531 339.878906 512.777344 340.3125 512.375 340.546875 L 398.683594 407.625 C 398.480469 407.746094 398.25 407.808594 398.015625 407.808594 " fill-opacity="1" fill-rule="nonzero"/><path fill="#ffffff" d="M 398.015625 527.980469 L 398.015625 491.519531 L 285.3125 425.890625 L 285.3125 461.226562 L 398.015625 527.980469 " fill-opacity="1" fill-rule="nonzero"/><path fill="#000000" d="M 286.625 460.480469 L 396.703125 525.675781 L 396.703125 492.277344 L 286.625 428.175781 Z M 398.015625 529.292969 C 397.785156 529.292969 397.554688 529.230469 397.347656 529.113281 L 284.644531 462.359375 C 284.246094 462.121094 284 461.691406 284 461.226562 L 284 425.890625 C 284 425.417969 284.25 424.984375 284.660156 424.75 C 285.066406 424.515625 285.566406 424.519531 285.972656 424.753906 L 398.679688 490.382812 C 399.078125 490.617188 399.332031 491.050781 399.332031 491.519531 L 399.332031 527.980469 C 399.332031 528.453125 399.074219 528.890625 398.667969 529.121094 C 398.464844 529.234375 398.242188 529.292969 398.015625 529.292969 " fill-opacity="1" fill-rule="nonzero"/><path fill="#ffffff" d="M 398.015625 467.234375 L 398.015625 430.777344 L 285.3125 365.148438 L 285.3125 400.480469 L 398.015625 467.234375 " fill-opacity="1" fill-rule="nonzero"/><path fill="#000000" d="M 286.625 399.734375 L 396.703125 464.9375 L 396.703125 431.53125 L 286.625 367.429688 Z M 398.015625 468.550781 C 397.785156 468.550781 397.554688 468.488281 397.347656 468.367188 L 284.644531 401.613281 C 284.246094 401.375 284 400.949219 284 400.480469 L 284 365.148438 C 284 364.679688 284.25 364.242188 284.660156 364.007812 C 285.066406 363.773438 285.566406 363.777344 285.972656 364.011719 L 398.679688 429.640625 C 399.078125 429.875 399.332031 430.308594 399.332031 430.777344 L 399.332031 467.234375 C 399.332031 467.707031 399.074219 468.144531 398.667969 468.378906 C 398.464844 468.492188 398.242188 468.550781 398.015625 468.550781 " fill-opacity="1" fill-rule="nonzero"/><path fill="#ffffff" d="M 398.015625 345.753906 L 398.015625 309.289062 L 285.3125 243.660156 L 285.3125 278.996094 L 398.015625 345.753906 " fill-opacity="1" fill-rule="nonzero"/><path fill="#000000" d="M 286.625 278.246094 L 396.707031 343.449219 L 396.707031 310.042969 L 286.625 245.941406 Z M 398.015625 347.0625 C 397.785156 347.0625 397.550781 347.003906 397.347656 346.878906 L 284.644531 280.125 C 284.246094 279.890625 284 279.460938 284 278.996094 L 284 243.65625 C 284 243.191406 284.253906 242.753906 284.660156 242.523438 C 285.066406 242.289062 285.566406 242.289062 285.972656 242.527344 L 398.679688 308.152344 C 399.078125 308.394531 399.332031 308.820312 399.332031 309.289062 L 399.332031 345.753906 C 399.332031 346.21875 399.074219 346.660156 398.667969 346.890625 C 398.464844 347.007812 398.238281 347.0625 398.015625 347.0625 " fill-opacity="1" fill-rule="nonzero"/><path fill="#ffffff" d="M 760.324219 341.566406 L 647.566406 406.601562 L 535.324219 341.1875 L 648.84375 275.0625 L 760.324219 341.566406 " fill-opacity="1" fill-rule="nonzero"/><path fill="#000000" d="M 537.925781 341.1875 L 647.574219 405.085938 L 757.730469 341.542969 L 648.835938 276.582031 Z M 647.570312 407.917969 C 647.34375 407.917969 647.113281 407.859375 646.910156 407.742188 L 534.660156 342.320312 C 534.261719 342.082031 534.007812 341.65625 534.007812 341.1875 C 534.007812 340.714844 534.261719 340.289062 534.660156 340.050781 L 648.1875 273.925781 C 648.59375 273.6875 649.105469 273.6875 649.515625 273.929688 L 760.996094 340.4375 C 761.398438 340.675781 761.636719 341.113281 761.632812 341.578125 C 761.628906 342.039062 761.378906 342.472656 760.980469 342.699219 L 648.222656 407.742188 C 648.023438 407.859375 647.796875 407.917969 647.570312 407.917969 " fill-opacity="1" fill-rule="nonzero"/><path fill="#5479f7" d="M 647.59375 442.234375 L 647.59375 406.058594 L 760.375 341.386719 L 760.375 375.683594 L 647.59375 442.234375 " fill-opacity="1" fill-rule="nonzero"/><path fill="#000000" d="M 648.90625 406.820312 L 648.90625 439.929688 L 759.0625 374.933594 L 759.0625 343.644531 Z M 647.59375 443.542969 C 647.371094 443.542969 647.144531 443.484375 646.9375 443.371094 C 646.53125 443.136719 646.28125 442.699219 646.28125 442.230469 L 646.28125 406.058594 C 646.28125 405.589844 646.53125 405.152344 646.9375 404.921875 L 759.726562 340.238281 C 760.132812 340.011719 760.636719 340.011719 761.042969 340.246094 C 761.441406 340.476562 761.691406 340.910156 761.691406 341.378906 L 761.691406 375.683594 C 761.691406 376.148438 761.449219 376.578125 761.046875 376.816406 L 648.257812 443.359375 C 648.058594 443.480469 647.824219 443.542969 647.59375 443.542969 " fill-opacity="1" fill-rule="nonzero"/><path fill="#99b9ff" d="M 647.59375 442.230469 L 647.59375 406.058594 L 535.789062 340.953125 L 535.789062 376.003906 L 647.59375 442.230469 " fill-opacity="1" fill-rule="nonzero"/><path fill="#000000" d="M 537.101562 375.257812 L 646.277344 439.925781 L 646.277344 406.8125 L 537.101562 343.238281 Z M 647.589844 443.542969 C 647.363281 443.542969 647.132812 443.480469 646.925781 443.359375 L 535.117188 377.140625 C 534.71875 376.898438 534.472656 376.472656 534.472656 376.007812 L 534.472656 340.953125 C 534.472656 340.484375 534.726562 340.046875 535.128906 339.8125 C 535.539062 339.578125 536.039062 339.582031 536.449219 339.816406 L 648.253906 404.925781 C 648.652344 405.160156 648.90625 405.59375 648.90625 406.058594 L 648.90625 442.230469 C 648.90625 442.699219 648.652344 443.136719 648.242188 443.371094 C 648.039062 443.488281 647.820312 443.542969 647.589844 443.542969 " fill-opacity="1" fill-rule="nonzero"/><path fill="#ffffff" d="M 760.324219 281.308594 L 647.566406 346.34375 L 535.324219 280.925781 L 648.84375 214.796875 L 760.324219 281.308594 " fill-opacity="1" fill-rule="nonzero"/><path fill="#000000" d="M 537.925781 280.925781 L 647.574219 344.828125 L 757.730469 281.289062 L 648.835938 216.324219 Z M 647.570312 347.660156 C 647.34375 347.660156 647.113281 347.597656 646.910156 347.480469 L 534.660156 282.058594 C 534.261719 281.824219 534.007812 281.390625 534.007812 280.925781 C 534.007812 280.457031 534.261719 280.03125 534.660156 279.792969 L 648.1875 213.664062 C 648.59375 213.425781 649.105469 213.425781 649.515625 213.675781 L 760.996094 280.183594 C 761.398438 280.421875 761.636719 280.851562 761.632812 281.316406 C 761.628906 281.78125 761.378906 282.214844 760.980469 282.445312 L 648.222656 347.480469 C 648.023438 347.597656 647.796875 347.660156 647.570312 347.660156 " fill-opacity="1" fill-rule="nonzero"/><path fill="#5479f7" d="M 647.59375 381.972656 L 647.59375 345.800781 L 760.375 281.125 L 760.375 315.425781 L 647.59375 381.972656 " fill-opacity="1" fill-rule="nonzero"/><path fill="#000000" d="M 648.90625 346.5625 L 648.90625 379.671875 L 759.0625 314.671875 L 759.0625 283.386719 Z M 647.59375 383.28125 C 647.371094 383.28125 647.144531 383.226562 646.9375 383.109375 C 646.53125 382.875 646.28125 382.4375 646.28125 381.96875 L 646.28125 345.796875 C 646.28125 345.328125 646.53125 344.894531 646.9375 344.65625 L 759.726562 279.980469 C 760.132812 279.75 760.636719 279.75 761.042969 279.988281 C 761.441406 280.21875 761.691406 280.652344 761.691406 281.121094 L 761.691406 315.421875 C 761.691406 315.886719 761.449219 316.320312 761.046875 316.554688 L 648.257812 383.101562 C 648.058594 383.222656 647.824219 383.28125 647.59375 383.28125 " fill-opacity="1" fill-rule="nonzero"/><path fill="#99b9ff" d="M 647.59375 381.972656 L 647.59375 345.796875 L 535.789062 280.691406 L 535.789062 315.746094 L 647.59375 381.972656 " fill-opacity="1" fill-rule="nonzero"/><path fill="#000000" d="M 537.101562 315 L 646.277344 379.667969 L 646.277344 346.550781 L 537.101562 282.976562 Z M 647.589844 383.28125 C 647.363281 383.28125 647.132812 383.222656 646.925781 383.097656 L 535.117188 316.878906 C 534.71875 316.640625 534.472656 316.214844 534.472656 315.746094 L 534.472656 280.695312 C 534.472656 280.222656 534.726562 279.789062 535.128906 279.554688 C 535.539062 279.320312 536.039062 279.320312 536.449219 279.5625 L 648.253906 344.667969 C 648.652344 344.902344 648.90625 345.332031 648.90625 345.800781 L 648.90625 381.96875 C 648.90625 382.445312 648.652344 382.878906 648.242188 383.113281 C 648.039062 383.226562 647.820312 383.28125 647.589844 383.28125 " fill-opacity="1" fill-rule="nonzero"/><path fill="#ffffff" d="M 760.324219 221.046875 L 647.566406 286.089844 L 535.324219 220.667969 L 648.84375 154.539062 L 760.324219 221.046875 " fill-opacity="1" fill-rule="nonzero"/><path fill="#000000" d="M 537.925781 220.667969 L 647.574219 284.566406 L 757.730469 221.03125 L 648.835938 156.0625 Z M 647.570312 287.402344 C 647.34375 287.402344 647.113281 287.335938 646.910156 287.222656 L 534.660156 221.800781 C 534.261719 221.5625 534.007812 221.136719 534.007812 220.667969 C 534.007812 220.195312 534.261719 219.769531 534.660156 219.53125 L 648.1875 153.40625 C 648.59375 153.167969 649.105469 153.167969 649.515625 153.414062 L 760.996094 219.921875 C 761.398438 220.160156 761.636719 220.59375 761.632812 221.058594 C 761.628906 221.519531 761.378906 221.953125 760.980469 222.183594 L 648.222656 287.222656 C 648.023438 287.34375 647.796875 287.402344 647.570312 287.402344 " fill-opacity="1" fill-rule="nonzero"/><path fill="#5479f7" d="M 647.59375 321.710938 L 647.59375 285.539062 L 760.375 220.863281 L 760.375 255.164062 L 647.59375 321.710938 " fill-opacity="1" fill-rule="nonzero"/><path fill="#000000" d="M 648.90625 286.296875 L 648.90625 319.410156 L 759.0625 254.414062 L 759.0625 223.128906 Z M 647.59375 323.023438 C 647.371094 323.023438 647.144531 322.96875 646.9375 322.851562 C 646.53125 322.617188 646.28125 322.183594 646.28125 321.710938 L 646.28125 285.539062 C 646.28125 285.070312 646.53125 284.636719 646.9375 284.398438 L 759.726562 219.722656 C 760.132812 219.492188 760.636719 219.492188 761.042969 219.722656 C 761.441406 219.960938 761.691406 220.394531 761.691406 220.863281 L 761.691406 255.164062 C 761.691406 255.628906 761.449219 256.0625 761.046875 256.292969 L 648.257812 322.84375 C 648.058594 322.960938 647.824219 323.023438 647.59375 323.023438 " fill-opacity="1" fill-rule="nonzero"/><path fill="#99b9ff" d="M 647.59375 321.714844 L 647.59375 285.539062 L 535.789062 220.433594 L 535.789062 255.492188 L 647.59375 321.714844 " fill-opacity="1" fill-rule="nonzero"/><path fill="#000000" d="M 537.101562 254.742188 L 646.277344 319.410156 L 646.277344 286.296875 L 537.101562 222.714844 Z M 647.589844 323.023438 C 647.363281 323.023438 647.132812 322.960938 646.925781 322.84375 L 535.117188 256.617188 C 534.71875 256.382812 534.472656 255.953125 534.472656 255.488281 L 534.472656 220.433594 C 534.472656 219.964844 534.726562 219.527344 535.128906 219.296875 C 535.539062 219.0625 536.039062 219.0625 536.449219 219.300781 L 648.253906 284.40625 C 648.652344 284.640625 648.90625 285.070312 648.90625 285.539062 L 648.90625 321.714844 C 648.90625 322.183594 648.652344 322.617188 648.242188 322.851562 C 648.039062 322.96875 647.820312 323.023438 647.589844 323.023438 " fill-opacity="1" fill-rule="nonzero"/><path fill="#ffffff" d="M 760.324219 160.789062 L 647.566406 225.824219 L 535.324219 160.40625 L 648.84375 94.277344 L 760.324219 160.789062 " fill-opacity="1" fill-rule="nonzero"/><path fill="#000000" d="M 537.925781 160.40625 L 647.574219 224.308594 L 757.730469 160.769531 L 648.835938 95.804688 Z M 647.570312 227.140625 C 647.34375 227.140625 647.113281 227.078125 646.910156 226.960938 L 534.660156 161.539062 C 534.261719 161.304688 534.007812 160.875 534.007812 160.40625 C 534.007812 159.941406 534.261719 159.511719 534.660156 159.273438 L 648.1875 93.144531 C 648.59375 92.90625 649.105469 92.90625 649.515625 93.15625 L 760.996094 159.660156 C 761.398438 159.898438 761.636719 160.332031 761.632812 160.796875 C 761.628906 161.265625 761.378906 161.695312 760.980469 161.925781 L 648.222656 226.960938 C 648.023438 227.082031 647.796875 227.140625 647.570312 227.140625 " fill-opacity="1" fill-rule="nonzero"/><path fill="#5479f7" d="M 647.59375 261.449219 L 647.59375 225.285156 L 760.375 160.601562 L 760.375 194.910156 L 647.59375 261.449219 " fill-opacity="1" fill-rule="nonzero"/><path fill="#000000" d="M 648.90625 226.039062 L 648.90625 259.152344 L 759.0625 194.15625 L 759.0625 162.867188 Z M 647.59375 262.761719 C 647.371094 262.761719 647.144531 262.703125 646.9375 262.589844 C 646.53125 262.355469 646.28125 261.925781 646.28125 261.449219 L 646.28125 225.28125 C 646.28125 224.8125 646.53125 224.375 646.9375 224.140625 L 759.726562 159.464844 C 760.132812 159.234375 760.636719 159.234375 761.042969 159.464844 C 761.441406 159.703125 761.691406 160.136719 761.691406 160.597656 L 761.691406 194.90625 C 761.691406 195.371094 761.449219 195.796875 761.046875 196.035156 L 648.257812 262.582031 C 648.058594 262.703125 647.824219 262.761719 647.59375 262.761719 " fill-opacity="1" fill-rule="nonzero"/><path fill="#99b9ff" d="M 647.59375 261.449219 L 647.59375 225.277344 L 535.789062 160.171875 L 535.789062 195.230469 L 647.59375 261.449219 " fill-opacity="1" fill-rule="nonzero"/><path fill="#000000" d="M 537.101562 194.480469 L 646.277344 259.148438 L 646.277344 226.035156 L 537.101562 162.457031 Z M 647.589844 262.765625 C 647.363281 262.765625 647.132812 262.703125 646.925781 262.582031 L 535.117188 196.359375 C 534.71875 196.125 534.472656 195.691406 534.472656 195.230469 L 534.472656 160.171875 C 534.472656 159.707031 534.726562 159.269531 535.128906 159.035156 C 535.539062 158.800781 536.039062 158.800781 536.449219 159.039062 L 648.253906 224.148438 C 648.652344 224.382812 648.90625 224.8125 648.90625 225.28125 L 648.90625 261.449219 C 648.90625 261.921875 648.652344 262.359375 648.242188 262.589844 C 648.039062 262.707031 647.820312 262.765625 647.589844 262.765625 " fill-opacity="1" fill-rule="nonzero"/><path fill="#ffffff" d="M 760.324219 100.527344 L 647.570312 165.566406 L 535.328125 100.148438 L 648.847656 34.019531 L 760.324219 100.527344 " fill-opacity="1" fill-rule="nonzero"/><path fill="#000000" d="M 537.929688 100.148438 L 647.574219 164.050781 L 757.730469 100.511719 L 648.835938 35.546875 Z M 647.566406 166.882812 C 647.339844 166.882812 647.113281 166.816406 646.914062 166.703125 L 534.664062 101.28125 C 534.257812 101.046875 534.011719 100.613281 534.011719 100.148438 C 534.011719 99.679688 534.257812 99.25 534.664062 99.011719 L 648.1875 32.890625 C 648.59375 32.644531 649.105469 32.652344 649.515625 32.894531 L 760.992188 99.402344 C 761.394531 99.640625 761.636719 100.074219 761.632812 100.539062 C 761.632812 101.003906 761.378906 101.4375 760.976562 101.667969 L 648.222656 166.703125 C 648.023438 166.824219 647.796875 166.882812 647.566406 166.882812 " fill-opacity="1" fill-rule="nonzero"/><path fill="#5479f7" d="M 647.59375 201.195312 L 647.59375 165.023438 L 760.375 100.347656 L 760.375 134.648438 L 647.59375 201.195312 " fill-opacity="1" fill-rule="nonzero"/><path fill="#000000" d="M 648.90625 165.78125 L 648.90625 198.890625 L 759.0625 133.894531 L 759.0625 102.605469 Z M 647.59375 202.503906 C 647.371094 202.503906 647.144531 202.445312 646.9375 202.332031 C 646.53125 202.097656 646.28125 201.660156 646.28125 201.191406 L 646.28125 165.023438 C 646.28125 164.546875 646.53125 164.113281 646.9375 163.882812 L 759.726562 99.203125 C 760.132812 98.96875 760.636719 98.96875 761.042969 99.207031 C 761.441406 99.441406 761.691406 99.871094 761.691406 100.339844 L 761.691406 134.648438 C 761.691406 135.113281 761.449219 135.539062 761.046875 135.777344 L 648.257812 202.320312 C 648.058594 202.441406 647.824219 202.503906 647.59375 202.503906 " fill-opacity="1" fill-rule="nonzero"/><path fill="#99b9ff" d="M 647.589844 201.195312 L 647.589844 165.019531 L 535.785156 99.914062 L 535.785156 134.96875 L 647.589844 201.195312 " fill-opacity="1" fill-rule="nonzero"/><path fill="#000000" d="M 537.101562 134.222656 L 646.28125 198.890625 L 646.28125 165.773438 L 537.101562 102.195312 Z M 647.589844 202.503906 C 647.363281 202.503906 647.128906 202.445312 646.925781 202.324219 L 535.117188 136.097656 C 534.714844 135.863281 534.472656 135.433594 534.472656 134.96875 L 534.472656 99.914062 C 534.472656 99.445312 534.726562 99.011719 535.132812 98.777344 C 535.542969 98.542969 536.039062 98.542969 536.449219 98.78125 L 648.253906 163.886719 C 648.65625 164.121094 648.902344 164.554688 648.902344 165.023438 L 648.902344 201.191406 C 648.902344 201.667969 648.652344 202.101562 648.238281 202.335938 C 648.039062 202.445312 647.816406 202.503906 647.589844 202.503906 " fill-opacity="1" fill-rule="nonzero"/><path fill="#ffffff" d="M 538.851562 704.011719 L 541.65625 733.796875 C 541.75 734.636719 541.1875 735.402344 540.449219 735.449219 L 525.65625 736.363281 C 525.019531 736.402344 524.472656 735.890625 524.382812 735.171875 L 521.636719 708.097656 L 538.851562 704.011719 " fill-opacity="1" fill-rule="nonzero"/><path fill="#000000" d="M 523.054688 709.113281 L 525.6875 735.039062 C 525.691406 735.039062 525.691406 735.046875 525.691406 735.046875 L 540.359375 734.140625 C 540.316406 734.140625 540.363281 734.058594 540.351562 733.945312 L 537.683594 705.636719 Z M 525.585938 737.679688 C 524.3125 737.679688 523.246094 736.699219 523.082031 735.332031 L 520.328125 708.234375 C 520.261719 707.578125 520.691406 706.972656 521.328125 706.824219 L 538.542969 702.730469 C 538.914062 702.644531 539.304688 702.722656 539.613281 702.941406 C 539.925781 703.164062 540.121094 703.507812 540.15625 703.886719 L 542.960938 733.675781 C 543.046875 734.441406 542.8125 735.238281 542.308594 735.839844 C 541.847656 736.390625 541.214844 736.71875 540.527344 736.761719 L 525.738281 737.675781 C 525.6875 737.679688 525.636719 737.679688 525.585938 737.679688 " fill-opacity="1" fill-rule="nonzero"/><path fill="#5479f7" d="M 543.988281 726.085938 C 544.96875 729.605469 547.039062 739.515625 547.90625 745.484375 C 548.449219 749.226562 546.082031 752.769531 542.464844 753.746094 C 532.234375 756.515625 507.777344 756.394531 487.410156 757.292969 C 486.015625 757.355469 483.441406 756.675781 482.304688 753.296875 C 478.425781 741.832031 499.828125 738.28125 520.984375 726.628906 C 521.402344 726.402344 521.910156 726.421875 522.292969 726.699219 C 522.535156 726.871094 522.847656 727.085938 523.210938 727.316406 C 526.894531 729.660156 533.007812 729.664062 536.746094 727.414062 L 540.96875 724.875 C 542.125 724.179688 543.621094 724.777344 543.988281 726.085938 " fill-opacity="1" fill-rule="nonzero"/><path fill="#000000" d="M 521.578125 727.800781 C 515.121094 731.355469 508.628906 734.167969 502.898438 736.648438 C 489.0625 742.644531 481.339844 746.351562 483.542969 752.875 C 484.582031 755.945312 486.890625 756.003906 487.347656 755.980469 C 492.574219 755.75 498.140625 755.585938 503.519531 755.425781 C 518.824219 754.96875 534.660156 754.496094 542.125 752.476562 C 545.128906 751.667969 547.050781 748.742188 546.605469 745.671875 C 545.773438 739.964844 543.714844 729.996094 542.722656 726.4375 C 542.632812 726.128906 542.410156 725.996094 542.285156 725.945312 C 542.164062 725.898438 541.914062 725.839844 541.644531 726 L 537.425781 728.539062 C 533.246094 731.054688 526.554688 730.996094 522.507812 728.425781 C 522.144531 728.191406 521.828125 727.980469 521.578125 727.800781 Z M 487.234375 758.609375 C 485.09375 758.609375 482.285156 757.34375 481.058594 753.71875 C 477.96875 744.585938 488.511719 740.019531 501.859375 734.238281 C 507.546875 731.777344 513.992188 728.984375 520.351562 725.480469 C 521.203125 725.007812 522.269531 725.070312 523.054688 725.632812 C 523.285156 725.789062 523.570312 725.992188 523.914062 726.210938 C 527.148438 728.269531 532.71875 728.304688 536.066406 726.292969 L 540.292969 723.75 C 541.195312 723.203125 542.269531 723.117188 543.253906 723.507812 C 544.238281 723.898438 544.96875 724.710938 545.25 725.730469 C 546.273438 729.398438 548.339844 739.339844 549.203125 745.292969 C 549.839844 749.679688 547.089844 753.851562 542.804688 755.011719 C 535.046875 757.113281 519.773438 757.566406 503.597656 758.050781 C 498.226562 758.210938 492.671875 758.375 487.46875 758.605469 C 487.390625 758.605469 487.308594 758.609375 487.234375 758.609375 " fill-opacity="1" fill-rule="nonzero"/><path fill="#ffffff" d="M 548.523438 748.183594 C 548.542969 748.289062 548.558594 748.359375 548.5625 748.390625 C 549.109375 752.136719 545.550781 754.4375 542.152344 756.027344 C 532.074219 760.765625 491.363281 758.050781 489.789062 757.941406 C 489.757812 757.941406 489.734375 757.9375 489.703125 757.941406 C 489.195312 757.949219 484.027344 757.949219 482.539062 754.734375 C 482.351562 754.335938 482.238281 753.777344 482.167969 753.246094 C 482.058594 752.390625 482.113281 751.515625 482.300781 750.671875 C 482.457031 749.980469 483.136719 749.550781 483.816406 749.722656 C 491.375 751.65625 509.019531 752.296875 526.652344 750.351562 C 538.371094 749.0625 543.460938 746.507812 546.179688 744.882812 C 546.921875 744.4375 547.871094 744.867188 548.039062 745.722656 C 548.175781 746.433594 548.347656 747.300781 548.523438 748.183594 " fill-opacity="1" fill-rule="nonzero"/><path fill="#000000" d="M 489.6875 756.628906 C 489.730469 756.628906 489.839844 756.632812 489.875 756.632812 C 504.347656 757.617188 533.785156 758.507812 541.59375 754.839844 C 545.851562 752.84375 547.601562 750.914062 547.261719 748.582031 L 546.765625 746.058594 C 543.722656 747.867188 538.339844 750.386719 526.792969 751.660156 C 508.382812 753.691406 490.820312 752.84375 483.570312 751.015625 C 483.417969 751.730469 483.382812 752.421875 483.46875 753.078125 C 483.5625 753.773438 483.679688 754.082031 483.730469 754.183594 C 484.652344 756.175781 488.039062 756.65625 489.679688 756.628906 C 489.683594 756.628906 489.683594 756.628906 489.6875 756.628906 Z M 515.386719 760.144531 C 503.449219 760.144531 491.960938 759.410156 489.699219 759.253906 C 488.625 759.265625 483.140625 759.160156 481.34375 755.285156 C 481.128906 754.816406 480.972656 754.207031 480.871094 753.421875 C 480.738281 752.441406 480.792969 751.421875 481.023438 750.386719 C 481.171875 749.707031 481.597656 749.105469 482.1875 748.75 C 482.777344 748.382812 483.46875 748.28125 484.144531 748.449219 C 491.121094 750.234375 508.335938 751.050781 526.5 749.050781 C 537.65625 747.820312 542.691406 745.4375 545.507812 743.753906 C 546.21875 743.332031 547.089844 743.277344 547.851562 743.613281 C 548.609375 743.949219 549.160156 744.644531 549.324219 745.46875 L 549.804688 747.929688 C 549.808594 747.933594 549.808594 747.9375 549.808594 747.9375 L 549.855469 748.1875 C 550.550781 752.949219 546.113281 755.625 542.710938 757.21875 C 537.816406 759.515625 526.40625 760.144531 515.386719 760.144531 " fill-opacity="1" fill-rule="nonzero"/><path fill="#000000" d="M 519.535156 737.207031 C 519.253906 737.207031 518.976562 737.117188 518.742188 736.933594 L 512.566406 732.230469 C 511.988281 731.796875 511.878906 730.96875 512.316406 730.394531 C 512.753906 729.816406 513.578125 729.707031 514.15625 730.144531 L 520.332031 734.847656 C 520.90625 735.285156 521.019531 736.109375 520.578125 736.691406 C 520.320312 737.027344 519.933594 737.207031 519.535156 737.207031 " fill-opacity="1" fill-rule="nonzero"/><path fill="#000000" d="M 511.332031 740.570312 C 511.054688 740.570312 510.777344 740.484375 510.542969 740.308594 L 505.140625 736.253906 C 504.558594 735.816406 504.445312 734.992188 504.875 734.414062 C 505.3125 733.832031 506.136719 733.714844 506.714844 734.152344 L 512.121094 738.207031 C 512.695312 738.640625 512.816406 739.464844 512.382812 740.046875 C 512.125 740.386719 511.726562 740.570312 511.332031 740.570312 " fill-opacity="1" fill-rule="nonzero"/><path fill="#5479f7" d="M 582.808594 428.519531 C 582.808594 428.519531 594.542969 452.003906 598.488281 476.75 C 602.164062 499.789062 615.679688 594.640625 648.609375 670.722656 C 652.34375 679.34375 648.03125 688.320312 638.855469 690.324219 C 635.179688 691.121094 633.636719 689.816406 630.457031 688.265625 C 628.816406 687.472656 626.101562 685.117188 626.101562 685.117188 C 626.101562 685.117188 567.800781 636.382812 544.03125 508.515625 C 528.742188 426.277344 531.28125 432.796875 531.28125 432.796875 L 582.808594 428.519531 " fill-opacity="1" fill-rule="nonzero"/><path fill="#5479f7" d="M 566.4375 439.265625 C 566.4375 439.265625 573.285156 483.902344 560.339844 516.925781 C 547.890625 548.675781 539.945312 673.15625 544.582031 709.113281 C 544.875 711.378906 543.304688 713.449219 541.046875 713.765625 C 535.386719 714.5625 525.175781 715.640625 518.191406 714.335938 C 516.90625 714.097656 515.878906 713.152344 515.554688 711.882812 C 510.945312 693.636719 472.714844 528.703125 499.671875 444.183594 L 566.4375 439.265625 " fill-opacity="1" fill-rule="nonzero"/><path fill="#99b9ff" d="M 553.351562 555.511719 C 553.328125 555.511719 553.300781 555.511719 553.277344 555.507812 C 552.550781 555.464844 551.996094 554.847656 552.042969 554.121094 C 552.082031 553.464844 553.089844 537.757812 560.789062 519.761719 C 563.042969 514.480469 564.675781 508.171875 565.636719 501.007812 C 565.730469 500.289062 566.394531 499.78125 567.109375 499.878906 C 567.832031 499.976562 568.332031 500.640625 568.238281 501.359375 C 567.246094 508.753906 565.546875 515.292969 563.199219 520.792969 C 555.683594 538.375 554.671875 554.117188 554.664062 554.277344 C 554.625 554.972656 554.042969 555.511719 553.351562 555.511719 " fill-opacity="1" fill-rule="nonzero"/><path fill="#99b9ff" d="M 552.015625 464.144531 L 552.023438 464.144531 Z M 516.425781 466.324219 C 516.042969 466.324219 515.679688 466.460938 515.386719 466.714844 C 515.050781 467.003906 514.863281 467.410156 514.851562 467.851562 L 514.078125 491.953125 C 513.96875 495.480469 515.972656 498.691406 519.195312 500.132812 L 531.441406 505.613281 C 534.609375 507.035156 538.335938 506.65625 541.15625 504.613281 L 549.085938 498.878906 C 551.210938 497.34375 552.511719 494.949219 552.652344 492.328125 L 554.011719 467.089844 C 554.039062 466.617188 553.847656 466.160156 553.496094 465.839844 C 553.148438 465.519531 552.675781 465.375 552.199219 465.441406 C 545.253906 466.445312 531.390625 467.90625 516.601562 466.332031 C 516.542969 466.332031 516.480469 466.324219 516.425781 466.324219 Z M 535.421875 509.089844 C 533.707031 509.089844 531.976562 508.734375 530.367188 508.011719 L 518.121094 502.527344 C 513.925781 500.648438 511.308594 496.46875 511.457031 491.871094 L 512.226562 467.769531 C 512.257812 466.605469 512.785156 465.503906 513.660156 464.738281 C 514.546875 463.972656 515.71875 463.601562 516.875 463.726562 C 531.382812 465.265625 545.003906 463.835938 551.824219 462.847656 C 553.078125 462.660156 554.335938 463.046875 555.269531 463.902344 C 556.203125 464.753906 556.699219 465.964844 556.632812 467.230469 L 555.273438 492.472656 C 555.09375 495.886719 553.398438 499.003906 550.625 501.007812 L 542.695312 506.742188 C 540.554688 508.292969 537.992188 509.089844 535.421875 509.089844 " fill-opacity="1" fill-rule="nonzero"/><path fill="#99b9ff" d="M 594.558594 503.390625 C 593.890625 503.390625 593.222656 503.234375 592.605469 502.921875 L 579.121094 496.070312 C 577.828125 495.414062 576.964844 494.15625 576.804688 492.714844 L 573.765625 464.636719 C 573.515625 462.355469 575.097656 460.296875 577.363281 459.941406 L 590.105469 457.933594 C 590.8125 457.820312 591.492188 458.3125 591.605469 459.023438 C 591.722656 459.746094 591.230469 460.414062 590.511719 460.523438 L 577.769531 462.539062 C 576.890625 462.675781 576.277344 463.472656 576.375 464.355469 L 579.417969 492.429688 C 579.476562 492.988281 579.808594 493.472656 580.3125 493.726562 L 593.796875 500.582031 C 594.34375 500.863281 595 500.8125 595.503906 500.460938 L 598.71875 498.289062 C 599.316406 497.878906 600.128906 498.035156 600.542969 498.636719 C 600.945312 499.238281 600.785156 500.054688 600.1875 500.460938 L 597 502.617188 C 596.273438 503.128906 595.414062 503.390625 594.558594 503.390625 " fill-opacity="1" fill-rule="nonzero"/><path fill="#ffffff" d="M 638.917969 704.765625 C 637.121094 695.777344 636.34375 693.925781 632.027344 687 C 628.824219 681.847656 636.613281 674.082031 640.578125 673.484375 C 647.199219 672.121094 646.140625 674.21875 653.710938 683.921875 L 659.636719 691.214844 C 659.636719 691.214844 640.488281 712.621094 638.917969 704.765625 " fill-opacity="1" fill-rule="nonzero"/><path fill="#000000" d="M 640.679688 707.796875 C 640.394531 707.796875 640.125 707.765625 639.871094 707.695312 C 639.195312 707.511719 638.011719 706.917969 637.632812 705.023438 C 636.042969 697.09375 635.550781 695.019531 632.375 689.714844 C 632 689.09375 632.203125 688.285156 632.824219 687.914062 C 633.445312 687.542969 634.25 687.742188 634.625 688.363281 C 638.015625 694.03125 638.578125 696.382812 640.207031 704.507812 C 640.320312 705.09375 640.503906 705.144531 640.5625 705.164062 C 642.898438 705.789062 651.191406 698.539062 657.902344 691.175781 L 652.996094 685.179688 C 650.808594 682.378906 649.457031 680.199219 648.265625 678.203125 C 647.886719 677.578125 648.085938 676.769531 648.710938 676.398438 C 649.335938 676.027344 650.144531 676.226562 650.511719 676.851562 C 651.667969 678.777344 652.972656 680.882812 655.042969 683.539062 L 660.652344 690.382812 C 661.0625 690.882812 661.046875 691.605469 660.617188 692.085938 C 657.207031 695.894531 646.121094 707.796875 640.679688 707.796875 " fill-opacity="1" fill-rule="nonzero"/><path fill="#5479f7" d="M 637.871094 701.394531 L 645.535156 689.828125 C 649.105469 684.433594 656.710938 683.628906 661.339844 688.160156 L 670.105469 695.519531 C 670.105469 695.519531 671.789062 700.578125 671.253906 703.847656 C 670.554688 708.097656 669.191406 714.164062 666.542969 720.167969 C 662.476562 729.414062 651.203125 747.980469 647.191406 754.507812 C 646.351562 755.875 644.25 757.226562 642.785156 756.574219 C 641.046875 755.792969 639.246094 754.394531 637.503906 752.757812 C 634.808594 750.234375 635.710938 738.410156 636.679688 730.1875 C 637.300781 724.910156 636.835938 711.449219 636.609375 705.902344 C 636.546875 704.300781 636.988281 702.730469 637.871094 701.394531 " fill-opacity="1" fill-rule="nonzero"/><path fill="#000000" d="M 638.96875 702.117188 C 638.230469 703.230469 637.867188 704.519531 637.921875 705.847656 C 638.152344 711.421875 638.613281 724.96875 637.988281 730.34375 C 635.917969 747.949219 637.785156 751.21875 638.402344 751.800781 C 640.289062 753.566406 641.894531 754.734375 643.320312 755.375 C 643.964844 755.664062 645.464844 754.820312 646.082031 753.820312 C 650.550781 746.550781 661.367188 728.667969 665.34375 719.640625 C 667.96875 713.679688 669.304688 707.644531 669.957031 703.632812 C 670.328125 701.402344 669.457031 697.851562 668.972656 696.277344 L 660.421875 689.09375 C 658.5 687.214844 655.859375 686.292969 653.183594 686.578125 C 650.507812 686.859375 648.117188 688.308594 646.628906 690.554688 Z M 643.609375 758.054688 C 643.152344 758.054688 642.691406 757.964844 642.25 757.773438 C 640.550781 757.007812 638.707031 755.683594 636.609375 753.714844 C 635.054688 752.261719 633.242188 748.222656 635.375 730.035156 C 635.984375 724.847656 635.527344 711.46875 635.300781 705.957031 C 635.222656 704.074219 635.734375 702.242188 636.78125 700.667969 L 644.441406 689.101562 C 646.367188 686.203125 649.445312 684.328125 652.90625 683.964844 C 656.347656 683.601562 659.738281 684.773438 662.21875 687.183594 L 671.242188 694.753906 L 671.359375 695.105469 C 671.429688 695.324219 673.128906 700.515625 672.546875 704.058594 C 671.871094 708.222656 670.488281 714.484375 667.746094 720.699219 C 663.707031 729.875 652.8125 747.882812 648.316406 755.195312 C 647.472656 756.558594 645.523438 758.054688 643.609375 758.054688 " fill-opacity="1" fill-rule="nonzero"/><path fill="#000000" d="M 636.953125 715.890625 C 636.375 715.890625 635.851562 715.507812 635.6875 714.925781 C 635.492188 714.226562 635.90625 713.503906 636.605469 713.3125 L 644.855469 711.046875 C 645.554688 710.855469 646.277344 711.265625 646.46875 711.964844 C 646.660156 712.660156 646.25 713.386719 645.554688 713.574219 L 637.300781 715.84375 C 637.183594 715.875 637.070312 715.890625 636.953125 715.890625 " fill-opacity="1" fill-rule="nonzero"/><path fill="#000000" d="M 637.566406 723.257812 C 636.992188 723.257812 636.464844 722.871094 636.300781 722.289062 C 636.109375 721.589844 636.519531 720.867188 637.21875 720.675781 L 645.472656 718.410156 C 646.167969 718.214844 646.894531 718.628906 647.082031 719.328125 C 647.273438 720.027344 646.867188 720.75 646.167969 720.941406 L 637.914062 723.207031 C 637.796875 723.238281 637.683594 723.257812 637.566406 723.257812 " fill-opacity="1" fill-rule="nonzero"/><path fill="#ffffff" d="M 645.980469 757.179688 C 645.144531 757.179688 644.34375 757.042969 643.621094 756.792969 C 641.15625 755.945312 634.996094 754.109375 635.683594 745.277344 C 636.394531 736.121094 643.359375 731.457031 648.441406 725.445312 C 652.320312 720.859375 651.929688 701.6875 653.148438 697.929688 C 655.335938 691.199219 665.167969 690.183594 670.109375 695.519531 C 673.234375 698.886719 673.601562 706.199219 673.300781 711.578125 C 672.730469 721.648438 666.808594 741.6875 659.328125 751.367188 C 655.675781 756.09375 650.050781 757.179688 645.980469 757.179688 " fill-opacity="1" fill-rule="nonzero"/><path fill="#000000" d="M 662.042969 693.421875 C 661.332031 693.421875 660.617188 693.496094 659.914062 693.652344 C 657.179688 694.253906 655.171875 695.960938 654.398438 698.335938 C 654.027344 699.460938 653.789062 702.652344 653.539062 706.035156 C 652.972656 713.566406 652.277344 722.945312 649.441406 726.292969 C 648.242188 727.71875 646.925781 729.070312 645.660156 730.382812 C 641.460938 734.714844 637.5 738.804688 636.988281 745.378906 C 636.398438 752.945312 641.230469 754.589844 643.820312 755.476562 L 644.042969 755.550781 C 644.648438 755.761719 645.300781 755.867188 645.980469 755.867188 C 649.046875 755.867188 654.726562 755.179688 658.292969 750.566406 C 665.851562 740.777344 671.453125 720.894531 671.988281 711.503906 C 672.394531 704.296875 671.359375 698.796875 669.148438 696.414062 C 667.371094 694.496094 664.734375 693.421875 662.042969 693.421875 Z M 645.980469 758.492188 C 645.003906 758.492188 644.070312 758.339844 643.1875 758.035156 L 642.96875 757.964844 C 640.414062 757.089844 633.625 754.773438 634.371094 745.171875 C 634.953125 737.664062 639.4375 733.03125 643.777344 728.554688 C 645.007812 727.273438 646.289062 725.953125 647.433594 724.597656 C 649.722656 721.898438 650.441406 712.234375 650.925781 705.835938 C 651.210938 701.992188 651.4375 698.957031 651.902344 697.523438 C 652.96875 694.242188 655.683594 691.894531 659.351562 691.085938 C 663.605469 690.148438 668.207031 691.539062 671.078125 694.625 C 674.761719 698.605469 674.871094 707 674.609375 711.648438 C 674.054688 721.371094 668.238281 741.988281 660.363281 752.171875 C 656.121094 757.667969 649.53125 758.492188 645.980469 758.492188 " fill-opacity="1" fill-rule="nonzero"/><path fill="#000000" d="M 645.980469 758.492188 C 643.628906 758.492188 641.488281 757.582031 640.101562 755.996094 C 638.863281 754.578125 638.335938 752.71875 638.605469 750.769531 C 639.9375 741.128906 645.164062 736.121094 650.6875 730.820312 C 654.8125 726.859375 655.921875 712.59375 656.453125 705.738281 C 656.660156 703.152344 656.761719 701.882812 656.933594 701.253906 C 657.753906 698.253906 661.453125 695.5625 665.347656 695.132812 C 668.941406 694.738281 671.980469 696.367188 673.691406 699.59375 C 674.027344 700.238281 673.78125 701.027344 673.140625 701.371094 C 672.503906 701.707031 671.710938 701.460938 671.367188 700.820312 C 669.839844 697.925781 667.398438 697.554688 665.636719 697.742188 C 662.585938 698.082031 659.929688 700.230469 659.46875 701.945312 C 659.351562 702.363281 659.214844 704.101562 659.074219 705.941406 C 658.472656 713.675781 657.355469 728.0625 652.503906 732.714844 C 647.089844 737.90625 642.414062 742.394531 641.207031 751.128906 C 641.039062 752.335938 641.339844 753.421875 642.078125 754.269531 C 642.964844 755.285156 644.386719 755.867188 645.980469 755.867188 C 646.882812 755.867188 647.785156 755.808594 648.652344 755.699219 C 649.367188 755.601562 650.023438 756.113281 650.121094 756.832031 C 650.214844 757.550781 649.703125 758.210938 648.988281 758.300781 C 648.011719 758.429688 646.996094 758.492188 645.980469 758.492188 " fill-opacity="1" fill-rule="nonzero"/><path fill="#ffffff" d="M 628.683594 449.722656 C 628.683594 449.722656 639.308594 446.957031 642.050781 449.339844 C 642.765625 449.953125 639.066406 461.429688 641.222656 464.496094 C 643.96875 468.398438 650.5 472.097656 651.703125 475.203125 C 653.558594 480.015625 651.34375 493.9375 650.203125 500.183594 C 649.613281 503.40625 645.128906 503.953125 643.894531 500.917969 C 643.554688 500.089844 643.382812 498.992188 643.480469 497.550781 C 643.824219 492.492188 643.347656 488.855469 643.007812 487.046875 C 642.851562 486.246094 642.410156 485.542969 641.761719 485.058594 C 638.710938 482.792969 629.328125 475.460938 627.945312 470.003906 C 627.769531 469.304688 627.773438 467.109375 628.171875 465.785156 C 628.558594 464.496094 628.859375 461.164062 628.8125 459.824219 L 628.683594 449.722656 " fill-opacity="1" fill-rule="nonzero"/><path fill="#000000" d="M 630.011719 450.746094 L 630.128906 459.804688 C 630.175781 461.195312 629.875 464.6875 629.429688 466.160156 C 629.089844 467.292969 629.105469 469.238281 629.21875 469.675781 C 630.234375 473.699219 636.773438 479.714844 642.542969 484.003906 C 643.464844 484.683594 644.085938 485.675781 644.292969 486.800781 C 644.632812 488.601562 645.144531 492.398438 644.792969 497.636719 C 644.714844 498.777344 644.828125 499.714844 645.113281 500.425781 C 645.613281 501.652344 646.761719 501.632812 647.105469 501.597656 C 647.84375 501.523438 648.707031 501.046875 648.910156 499.949219 C 651.105469 487.898438 651.699219 478.824219 650.476562 475.675781 C 649.957031 474.328125 647.820312 472.519531 645.753906 470.777344 C 643.675781 469.019531 641.523438 467.203125 640.148438 465.25 C 638.570312 463 639.289062 458.363281 640.316406 452.992188 C 640.511719 451.964844 640.746094 450.742188 640.816406 450.085938 C 638.953125 449.226562 633.75 449.886719 630.011719 450.746094 Z M 646.863281 504.234375 C 645 504.234375 643.394531 503.164062 642.683594 501.414062 C 642.238281 500.332031 642.066406 499.003906 642.171875 497.460938 C 642.511719 492.507812 642.03125 488.960938 641.714844 487.289062 C 641.628906 486.816406 641.367188 486.394531 640.980469 486.109375 C 637.164062 483.277344 628.125 476.066406 626.675781 470.324219 C 626.417969 469.3125 626.46875 466.894531 626.917969 465.40625 C 627.25 464.316406 627.546875 461.171875 627.503906 459.867188 L 627.371094 449.738281 C 627.363281 449.132812 627.769531 448.601562 628.351562 448.449219 C 630.242188 447.957031 639.804688 445.648438 642.914062 448.34375 C 643.734375 449.058594 643.542969 450.085938 642.894531 453.480469 C 642.3125 456.535156 641.226562 462.21875 642.292969 463.738281 C 643.476562 465.414062 645.496094 467.125 647.445312 468.769531 C 649.871094 470.820312 652.164062 472.753906 652.925781 474.726562 C 654.847656 479.703125 652.859375 492.960938 651.492188 500.421875 C 651.121094 502.472656 649.464844 503.992188 647.371094 504.210938 C 647.203125 504.226562 647.03125 504.234375 646.863281 504.234375 " fill-opacity="1" fill-rule="nonzero"/><path fill="#ffffff" d="M 413.160156 282.578125 L 408.136719 277.753906 C 404.402344 274.597656 403.011719 267.703125 403.011719 267.703125 C 402.355469 265.09375 400.839844 262.777344 398.71875 261.125 L 377.675781 244.753906 C 376.300781 243.6875 374.253906 244.449219 373.957031 246.160156 C 373.664062 247.867188 374.070312 250.109375 376.691406 252.453125 L 382.273438 257.070312 C 383.269531 257.894531 383.519531 259.304688 382.875 260.421875 C 381.6875 262.464844 380.234375 266.015625 381.289062 269.957031 C 383.648438 278.726562 394.105469 281.734375 396.710938 282.355469 C 397.089844 282.445312 403.917969 292.714844 403.917969 292.714844 L 413.160156 282.578125 " fill-opacity="1" fill-rule="nonzero"/><path fill="#000000" d="M 376.253906 245.570312 C 376.082031 245.570312 375.945312 245.613281 375.863281 245.640625 C 375.710938 245.707031 375.335938 245.898438 375.25 246.386719 C 374.953125 248.117188 375.734375 249.832031 377.566406 251.472656 L 383.117188 256.0625 C 384.601562 257.292969 384.976562 259.398438 384.007812 261.078125 C 382.84375 263.089844 381.648438 266.207031 382.566406 269.613281 C 384.753906 277.773438 394.988281 280.597656 397.015625 281.074219 C 397.609375 281.21875 397.871094 281.277344 404.085938 290.585938 L 411.332031 282.636719 L 407.230469 278.699219 C 403.253906 275.34375 401.789062 268.261719 401.726562 267.960938 C 401.160156 265.707031 399.800781 263.625 397.914062 262.160156 L 376.867188 245.789062 C 376.65625 245.621094 376.4375 245.570312 376.253906 245.570312 Z M 403.921875 294.023438 C 403.890625 294.023438 403.855469 294.023438 403.820312 294.023438 C 403.417969 293.988281 403.050781 293.773438 402.828125 293.4375 C 400.460938 289.871094 396.964844 284.722656 396.027344 283.535156 C 392.425781 282.625 382.445312 279.304688 380.027344 270.292969 C 378.882812 266.015625 380.324219 262.207031 381.738281 259.757812 C 382.0625 259.199219 381.933594 258.492188 381.4375 258.082031 L 375.855469 253.460938 C 372.636719 250.582031 372.347656 247.785156 372.667969 245.9375 C 372.882812 244.683594 373.722656 243.65625 374.914062 243.195312 C 376.125 242.726562 377.457031 242.921875 378.480469 243.71875 L 399.527344 260.085938 C 401.871094 261.910156 403.558594 264.5 404.285156 267.382812 C 404.3125 267.503906 405.648438 273.929688 408.988281 276.746094 L 414.070312 281.628906 C 414.589844 282.121094 414.613281 282.9375 414.132812 283.457031 L 404.890625 293.59375 C 404.640625 293.871094 404.285156 294.023438 403.921875 294.023438 " fill-opacity="1" fill-rule="nonzero"/><path fill="#000000" d="M 398.230469 286.984375 L 409.828125 275.363281 C 410.9375 274.738281 412.257812 275.039062 413.175781 275.921875 C 439.539062 301.371094 459.652344 298.625 480.757812 293.324219 C 480.757812 293.324219 502.425781 288.253906 508.433594 287.691406 C 512.96875 287.269531 525.007812 284.214844 553.207031 287.371094 C 564.167969 288.601562 574.796875 291.945312 584.484375 297.203125 L 585.945312 297.992188 C 585.945312 297.992188 665.691406 348.015625 646.199219 456.015625 C 645.980469 457.214844 644.925781 458.179688 643.703125 458.179688 L 627.6875 458.179688 C 626.355469 458.179688 625.25 457.058594 625.164062 455.730469 C 624.445312 444.535156 620.09375 396.191406 597.648438 369.382812 C 595.167969 366.429688 590.390625 367.289062 589.238281 370.96875 C 587.453125 376.679688 586.992188 388.820312 591.703125 414.394531 C 591.847656 415.171875 597.78125 445.347656 597.78125 445.347656 C 597.78125 445.347656 535.363281 456.050781 513.609375 452.144531 C 496.414062 449.050781 491.21875 444.816406 489.804688 443.183594 C 489.476562 442.808594 489.335938 442.316406 489.390625 441.824219 L 491.917969 419.835938 C 492.816406 411.863281 495.027344 396.957031 492.410156 377.972656 C 488.816406 351.871094 473.167969 352.371094 473.167969 352.371094 C 453.289062 351.097656 417.578125 355.269531 396.949219 290.113281 C 396.566406 288.910156 397.128906 287.601562 398.230469 286.984375 " fill-opacity="1" fill-rule="nonzero"/><path fill="#ffffff" d="M 503.488281 231.960938 C 503.488281 231.960938 499.6875 237.792969 499.507812 242.582031 C 499.457031 243.851562 498.976562 247.90625 495.910156 252.363281 C 495.617188 252.796875 495.6875 253.375 496.085938 253.722656 L 499.09375 256.34375 C 499.304688 256.523438 499.421875 256.777344 499.425781 257.050781 C 499.457031 258.742188 499.574219 264.984375 499.792969 266.144531 C 500.046875 267.492188 501.144531 268.667969 501.683594 268.953125 C 503.109375 269.703125 509.265625 268.851562 509.265625 268.851562 C 509.265625 268.851562 510.914062 268.988281 514.253906 277.722656 C 517.855469 287.152344 510.640625 290.808594 510.640625 290.808594 C 507.933594 292.261719 508.367188 294.960938 511.324219 295.871094 C 521.519531 298.996094 541.332031 302.375 552.839844 293.683594 C 554.992188 292.054688 554.078125 290.320312 552.230469 289.910156 C 524.785156 283.824219 537.507812 255.039062 536.941406 254.890625 C 535.476562 254.523438 527.003906 245.792969 522.070312 243.335938 C 518.703125 241.664062 514.675781 244.183594 511.921875 241.625 L 503.488281 231.960938 " fill-opacity="1" fill-rule="nonzero"/><path fill="#000000" d="M 498.234375 257.332031 L 498.242188 257.332031 Z M 509.265625 267.539062 C 509.300781 267.539062 509.335938 267.539062 509.371094 267.539062 C 511.015625 267.679688 513.070312 270.945312 515.480469 277.25 C 519.460938 287.664062 511.324219 291.933594 511.238281 291.980469 C 510.523438 292.363281 510.113281 292.871094 510.152344 293.328125 C 510.207031 293.832031 510.816406 294.339844 511.710938 294.609375 C 516.191406 295.984375 539.199219 302.339844 552.046875 292.632812 C 552.632812 292.191406 552.804688 291.828125 552.773438 291.695312 C 552.746094 291.554688 552.464844 291.304688 551.945312 291.191406 C 544.488281 289.535156 539.171875 286.085938 536.128906 280.933594 C 530.691406 271.710938 534.207031 259.769531 535.367188 255.847656 C 535.398438 255.75 535.425781 255.648438 535.453125 255.550781 C 534.644531 254.976562 533.457031 253.957031 531.449219 252.199219 C 528.40625 249.53125 524.242188 245.878906 521.484375 244.507812 C 520.273438 243.90625 518.851562 243.996094 517.34375 244.085938 C 515.28125 244.21875 512.953125 244.363281 511.03125 242.582031 C 511 242.550781 510.96875 242.515625 510.9375 242.484375 L 503.699219 234.191406 C 502.621094 236.152344 500.933594 239.667969 500.824219 242.632812 C 500.773438 243.832031 500.371094 248.082031 497.136719 252.894531 L 499.957031 255.351562 C 500.445312 255.773438 500.730469 256.382812 500.742188 257.023438 C 500.824219 261.65625 500.960938 265.222656 501.082031 265.902344 C 501.257812 266.832031 502.070312 267.65625 502.300781 267.792969 C 502.917969 268.074219 506.09375 267.964844 509.082031 267.550781 C 509.140625 267.539062 509.203125 267.539062 509.265625 267.539062 Z M 532.816406 300.527344 C 522.855469 300.527344 513.65625 297.953125 510.941406 297.121094 C 508.96875 296.519531 507.703125 295.191406 507.542969 293.578125 C 507.390625 292.03125 508.320312 290.566406 510.023438 289.648438 C 510.296875 289.511719 516.148438 286.347656 513.027344 278.1875 C 510.8125 272.386719 509.441406 270.667969 508.96875 270.214844 C 506.789062 270.496094 502.582031 270.90625 501.070312 270.113281 C 500.238281 269.671875 498.839844 268.183594 498.503906 266.382812 C 498.289062 265.226562 498.171875 260.226562 498.125 257.230469 L 495.226562 254.707031 C 494.328125 253.921875 494.160156 252.597656 494.828125 251.617188 C 497.875 247.191406 498.167969 243.273438 498.195312 242.535156 C 498.390625 237.4375 502.226562 231.492188 502.390625 231.242188 C 502.613281 230.898438 502.988281 230.675781 503.398438 230.648438 C 503.804688 230.621094 504.210938 230.78125 504.480469 231.097656 L 512.867188 240.703125 C 513.894531 241.625 515.179688 241.59375 517.179688 241.46875 C 518.886719 241.363281 520.8125 241.242188 522.660156 242.15625 C 525.714844 243.679688 529.851562 247.308594 533.179688 250.222656 C 534.804688 251.644531 536.820312 253.410156 537.339844 253.640625 C 537.6875 253.730469 537.914062 253.941406 538.09375 254.25 C 538.410156 254.804688 538.300781 255.183594 537.878906 256.585938 C 536.808594 260.242188 533.53125 271.359375 538.386719 279.597656 C 541.046875 284.101562 545.800781 287.136719 552.515625 288.628906 C 553.992188 288.953125 555.074219 289.914062 555.339844 291.136719 C 555.5 291.875 555.492188 293.320312 553.628906 294.730469 C 547.777344 299.152344 540.09375 300.527344 532.816406 300.527344 " fill-opacity="1" fill-rule="nonzero"/><path fill="#000000" d="M 496.167969 252.96875 C 496.136719 252.96875 496.109375 252.96875 496.082031 252.96875 C 494.675781 252.882812 493.492188 252.265625 492.660156 251.191406 C 490.339844 248.214844 491.34375 242.535156 491.46875 241.898438 C 491.601562 241.210938 492.253906 240.746094 492.945312 240.847656 L 514.492188 243.980469 C 515.210938 244.085938 515.707031 244.757812 515.601562 245.472656 C 515.5 246.191406 514.828125 246.6875 514.113281 246.582031 L 493.871094 243.632812 C 493.6875 245.453125 493.671875 248.222656 494.730469 249.582031 C 495.101562 250.0625 495.585938 250.308594 496.242188 250.347656 C 496.96875 250.390625 497.515625 251.011719 497.472656 251.738281 C 497.433594 252.433594 496.855469 252.96875 496.167969 252.96875 " fill-opacity="1" fill-rule="nonzero"/><path fill="#000000" d="M 514.421875 255.320312 C 513.722656 255.320312 513.09375 255.222656 512.601562 255.082031 C 511.902344 254.882812 511.496094 254.15625 511.699219 253.460938 C 511.898438 252.765625 512.621094 252.363281 513.3125 252.554688 C 513.71875 252.664062 517.257812 253.484375 518.902344 249.324219 C 519.507812 247.777344 519.398438 246.539062 518.59375 245.933594 C 517.84375 245.371094 516.402344 245.324219 515.097656 246.324219 C 514.851562 246.519531 514.261719 247.335938 513.886719 247.945312 C 513.515625 248.570312 512.707031 248.765625 512.085938 248.390625 C 511.464844 248.015625 511.269531 247.210938 511.644531 246.589844 C 511.886719 246.191406 512.738281 244.832031 513.503906 244.246094 C 515.605469 242.628906 518.351562 242.460938 520.175781 243.835938 C 521.960938 245.1875 522.398438 247.597656 521.34375 250.289062 C 519.773438 254.265625 516.714844 255.320312 514.421875 255.320312 " fill-opacity="1" fill-rule="nonzero"/><path fill="#000000" d="M 495.394531 217.707031 C 497.335938 214.371094 499.429688 211.503906 505.910156 210.148438 C 510.351562 209.222656 517.636719 212.425781 521.253906 216.175781 C 521.554688 216.488281 522.023438 216.492188 522.273438 216.175781 C 523.027344 215.199219 524.824219 212.988281 526.4375 212.777344 C 531.105469 212.171875 535.953125 218.171875 537.6875 221.265625 C 538.957031 223.523438 541.109375 228.636719 542.234375 234.597656 C 542.304688 234.972656 542.644531 235.246094 543.015625 235.210938 C 544.417969 235.058594 547.238281 235.03125 549.765625 236.859375 C 554.269531 240.117188 553.84375 244.960938 553.796875 245.554688 C 553.261719 252.460938 546.3125 257.640625 541.023438 260.460938 C 537.441406 262.378906 536.085938 262.660156 533.972656 263.179688 C 533.851562 263.207031 533.71875 263.199219 533.597656 263.160156 C 531.726562 263.453125 528.539062 263.636719 524.972656 262.441406 C 519.304688 260.542969 519.625 251.171875 519.625 251.171875 L 520.316406 249.402344 C 520.734375 248.328125 520.78125 247.117188 520.332031 246.054688 C 518.964844 242.808594 514.078125 245.3125 513.894531 245.277344 C 504.621094 243.460938 501.324219 240.785156 499.621094 238.960938 C 493.523438 232.421875 490.703125 225.785156 495.394531 217.707031 " fill-opacity="1" fill-rule="nonzero"/><path fill="#5479f7" d="M 141.828125 258.371094 C 141.378906 258.371094 140.9375 258.140625 140.691406 257.71875 C 140.328125 257.09375 140.539062 256.292969 141.164062 255.925781 L 221.230469 209.289062 C 221.855469 208.925781 222.65625 209.136719 223.023438 209.765625 C 223.386719 210.390625 223.175781 211.191406 222.550781 211.558594 L 142.488281 258.195312 C 142.28125 258.316406 142.050781 258.371094 141.828125 258.371094 " fill-opacity="1" fill-rule="nonzero"/><path fill="#5479f7" d="M 668.335938 611.621094 C 667.890625 611.621094 667.449219 611.390625 667.203125 610.96875 C 666.839844 610.347656 667.050781 609.539062 667.675781 609.175781 L 747.742188 562.539062 C 748.359375 562.175781 749.167969 562.382812 749.535156 563.015625 C 749.898438 563.640625 749.6875 564.441406 749.058594 564.808594 L 668.996094 611.441406 C 668.789062 611.566406 668.5625 611.621094 668.335938 611.621094 " fill-opacity="1" fill-rule="nonzero"/><path fill="#5479f7" d="M 367.597656 124.941406 C 367.371094 124.941406 367.144531 124.882812 366.941406 124.769531 C 366.535156 124.53125 366.28125 124.101562 366.28125 123.628906 L 366.28125 79.355469 L 295.453125 114.894531 C 294.804688 115.222656 294.015625 114.960938 293.691406 114.308594 C 293.367188 113.660156 293.628906 112.871094 294.277344 112.546875 L 367.007812 76.054688 C 367.414062 75.851562 367.898438 75.871094 368.285156 76.113281 C 368.671875 76.347656 368.90625 76.773438 368.90625 77.226562 L 368.90625 121.34375 L 447 75.855469 C 447.625 75.496094 448.425781 75.707031 448.789062 76.332031 C 449.15625 76.960938 448.945312 77.761719 448.316406 78.128906 L 368.257812 124.761719 C 368.054688 124.882812 367.824219 124.941406 367.597656 124.941406 " fill-opacity="1" fill-rule="nonzero"/><path fill="#5479f7" d="M 64.863281 114.683594 C 64.410156 114.683594 63.96875 114.449219 63.722656 114.027344 C 63.363281 113.402344 63.574219 112.597656 64.199219 112.230469 L 144.261719 65.597656 C 144.886719 65.230469 145.691406 65.445312 146.054688 66.070312 C 146.421875 66.695312 146.207031 67.5 145.582031 67.863281 L 65.519531 114.503906 C 65.3125 114.621094 65.085938 114.683594 64.863281 114.683594 " fill-opacity="1" fill-rule="nonzero"/><path fill="#5479f7" d="M 77.457031 228.511719 C 76.996094 228.511719 76.550781 228.265625 76.308594 227.835938 C 75.957031 227.203125 76.183594 226.40625 76.816406 226.050781 L 90.320312 218.515625 C 90.953125 218.164062 91.753906 218.390625 92.105469 219.023438 C 92.457031 219.65625 92.230469 220.457031 91.597656 220.8125 L 78.097656 228.34375 C 77.894531 228.457031 77.675781 228.511719 77.457031 228.511719 " fill-opacity="1" fill-rule="nonzero"/><path fill="#5479f7" d="M 103.503906 213.929688 C 103.046875 213.929688 102.597656 213.6875 102.359375 213.257812 C 102.003906 212.628906 102.226562 211.824219 102.859375 211.472656 L 190.671875 162.144531 C 192.085938 161.351562 192.964844 159.84375 192.964844 158.222656 L 192.964844 143.136719 C 192.964844 140.613281 194.320312 138.253906 196.5 136.984375 L 250.875 105.308594 C 251.5 104.945312 252.304688 105.160156 252.667969 105.785156 C 253.03125 106.414062 252.820312 107.214844 252.195312 107.578125 L 197.824219 139.25 C 196.445312 140.054688 195.589844 141.539062 195.589844 143.136719 L 195.589844 158.222656 C 195.589844 160.792969 194.199219 163.171875 191.957031 164.429688 L 104.144531 213.761719 C 103.941406 213.875 103.71875 213.929688 103.503906 213.929688 " fill-opacity="1" fill-rule="nonzero"/><path fill="#5479f7" d="M 357.332031 705.625 C 356.878906 705.625 356.441406 705.394531 356.195312 704.972656 C 355.832031 704.347656 356.046875 703.542969 356.675781 703.175781 L 413.929688 669.824219 C 414.554688 669.464844 415.359375 669.671875 415.722656 670.300781 C 416.089844 670.925781 415.875 671.730469 415.25 672.097656 L 357.992188 705.445312 C 357.785156 705.566406 357.558594 705.625 357.332031 705.625 " fill-opacity="1" fill-rule="nonzero"/><path fill="#5479f7" d="M 459.632812 65.632812 C 459.632812 61.539062 462.949219 58.21875 467.042969 58.21875 C 471.140625 58.21875 474.453125 61.539062 474.453125 65.632812 C 474.453125 69.726562 471.140625 73.046875 467.042969 73.046875 C 462.949219 73.046875 459.632812 69.726562 459.632812 65.632812 " fill-opacity="1" fill-rule="nonzero"/><path fill="#5479f7" d="M 360.425781 123.609375 C 360.425781 119.519531 363.746094 116.199219 367.839844 116.199219 C 371.929688 116.199219 375.25 119.519531 375.25 123.609375 C 375.25 127.707031 371.929688 131.023438 367.839844 131.023438 C 363.746094 131.023438 360.425781 127.707031 360.425781 123.609375 " fill-opacity="1" fill-rule="nonzero"/><path fill="#5479f7" d="M 360.425781 77.230469 C 360.425781 73.136719 363.746094 69.816406 367.839844 69.816406 C 371.933594 69.816406 375.253906 73.136719 375.253906 77.230469 C 375.253906 81.324219 371.933594 84.640625 367.839844 84.640625 C 363.746094 84.640625 360.425781 81.324219 360.425781 77.230469 " fill-opacity="1" fill-rule="nonzero"/><path fill="#5479f7" d="M 430.171875 659.039062 C 430.171875 654.949219 433.492188 651.628906 437.585938 651.628906 C 441.675781 651.628906 444.996094 654.949219 444.996094 659.039062 C 444.996094 663.136719 441.675781 666.457031 437.585938 666.457031 C 433.492188 666.457031 430.171875 663.136719 430.171875 659.039062 " fill-opacity="1" fill-rule="nonzero"/><path fill="#5479f7" d="M 266.925781 126.84375 C 266.925781 122.75 270.246094 119.429688 274.339844 119.429688 C 278.429688 119.429688 281.75 122.75 281.75 126.84375 C 281.75 130.9375 278.429688 134.253906 274.339844 134.253906 C 270.246094 134.253906 266.925781 130.9375 266.925781 126.84375 " fill-opacity="1" fill-rule="nonzero"/><path fill="#000000" d="M 240.699219 195.804688 C 238.167969 195.804688 236.105469 197.867188 236.105469 200.398438 C 236.105469 202.933594 238.167969 204.996094 240.699219 204.996094 C 243.234375 204.996094 245.296875 202.933594 245.296875 200.398438 C 245.296875 197.867188 243.234375 195.804688 240.699219 195.804688 Z M 240.699219 207.621094 C 236.71875 207.621094 233.480469 204.382812 233.480469 200.398438 C 233.480469 196.417969 236.71875 193.179688 240.699219 193.179688 C 244.683594 193.179688 247.921875 196.417969 247.921875 200.398438 C 247.921875 204.382812 244.683594 207.621094 240.699219 207.621094 " fill-opacity="1" fill-rule="nonzero"/><path fill="#000000" d="M 722.246094 443.277344 C 719.710938 443.277344 717.652344 445.339844 717.652344 447.875 C 717.652344 450.40625 719.710938 452.46875 722.246094 452.46875 C 724.78125 452.46875 726.839844 450.40625 726.839844 447.875 C 726.839844 445.339844 724.78125 443.277344 722.246094 443.277344 Z M 722.246094 455.09375 C 718.269531 455.09375 715.027344 451.851562 715.027344 447.875 C 715.027344 443.890625 718.269531 440.652344 722.246094 440.652344 C 726.230469 440.652344 729.464844 443.890625 729.464844 447.875 C 729.464844 451.851562 726.230469 455.09375 722.246094 455.09375 " fill-opacity="1" fill-rule="nonzero"/><path fill="#99b9ff" d="M 692.804688 495.011719 C 692.804688 492.5 694.84375 490.460938 697.355469 490.460938 C 699.863281 490.460938 701.894531 492.5 701.894531 495.011719 C 701.894531 497.523438 699.863281 499.558594 697.355469 499.558594 C 694.84375 499.558594 692.804688 497.523438 692.804688 495.011719 " fill-opacity="1" fill-rule="nonzero"/><path fill="#000000" d="M 332.402344 628.996094 C 332.0625 628.996094 331.730469 628.863281 331.472656 628.609375 L 328.460938 625.601562 C 327.949219 625.085938 327.949219 624.257812 328.460938 623.746094 C 328.972656 623.234375 329.804688 623.234375 330.316406 623.746094 L 333.324219 626.757812 C 333.839844 627.269531 333.839844 628.097656 333.324219 628.609375 C 333.074219 628.863281 332.734375 628.996094 332.402344 628.996094 " fill-opacity="1" fill-rule="nonzero"/><path fill="#000000" d="M 343.765625 640.367188 C 343.433594 640.367188 343.09375 640.238281 342.839844 639.980469 L 339.832031 636.972656 C 339.316406 636.460938 339.316406 635.628906 339.832031 635.117188 C 340.34375 634.601562 341.171875 634.601562 341.683594 635.117188 L 344.695312 638.125 C 345.207031 638.636719 345.207031 639.46875 344.695312 639.980469 C 344.4375 640.238281 344.105469 640.367188 343.765625 640.367188 " fill-opacity="1" fill-rule="nonzero"/><path fill="#000000" d="M 329.390625 640.367188 C 329.054688 640.367188 328.71875 640.238281 328.460938 639.980469 C 327.949219 639.46875 327.949219 638.636719 328.460938 638.125 L 331.472656 635.117188 C 331.984375 634.601562 332.8125 634.601562 333.324219 635.117188 C 333.839844 635.628906 333.839844 636.460938 333.324219 636.972656 L 330.316406 639.980469 C 330.0625 640.238281 329.722656 640.367188 329.390625 640.367188 " fill-opacity="1" fill-rule="nonzero"/><path fill="#000000" d="M 340.761719 628.996094 C 340.421875 628.996094 340.085938 628.863281 339.832031 628.609375 C 339.316406 628.097656 339.316406 627.269531 339.832031 626.757812 L 342.839844 623.746094 C 343.351562 623.234375 344.183594 623.234375 344.695312 623.746094 C 345.207031 624.257812 345.207031 625.085938 344.695312 625.601562 L 341.683594 628.609375 C 341.429688 628.863281 341.09375 628.996094 340.761719 628.996094 " fill-opacity="1" fill-rule="nonzero"/><g fill="#000000" fill-opacity="1"><g transform="translate(548.036808, 803.24998)"><g><path d="M 3.9375 0.140625 C 3.382812 0.140625 2.945312 -0.015625 2.625 -0.328125 C 2.300781 -0.640625 2.140625 -1.050781 2.140625 -1.5625 C 2.140625 -2.070312 2.300781 -2.488281 2.625 -2.8125 C 2.945312 -3.144531 3.382812 -3.3125 3.9375 -3.3125 C 4.507812 -3.3125 4.953125 -3.15625 5.265625 -2.84375 C 5.585938 -2.53125 5.75 -2.113281 5.75 -1.59375 C 5.75 -1.082031 5.585938 -0.664062 5.265625 -0.34375 C 4.941406 -0.0195312 4.5 0.140625 3.9375 0.140625 Z M 3.9375 0.140625 "/></g></g></g></svg>